<svg width="185" height="38" viewBox="0 0 185 38" fill="none" xmlns="http://www.w3.org/2000/svg">
<rect x="0.604004" width="183.47" height="38" rx="5" fill="#CBC5C1"/>
<rect x="7.84424" y="6.25751" width="26.5567" height="26.6139" rx="13.2784" fill="white"/>
<g clip-path="url(#clip0)">
<path d="M31.7751 19.8125C31.7751 19.0803 31.7152 18.3441 31.5875 17.6237H21.3401V21.7719H27.2083C26.9648 23.1097 26.1823 24.2932 25.0366 25.0453V27.7369H28.5376C30.5935 25.8607 31.7751 23.0899 31.7751 19.8125Z" fill="#4285F4"/>
<path d="M21.3403 30.3374C24.2704 30.3374 26.7414 29.3835 28.5418 27.7369L25.0408 25.0453C24.0668 25.7023 22.8093 26.0744 21.3443 26.0744C18.51 26.0744 16.1068 24.1784 15.2446 21.6293H11.6318V24.404C13.4761 28.0416 17.2326 30.3374 21.3403 30.3374Z" fill="#34A853"/>
<path d="M15.2417 21.6293C14.7866 20.2914 14.7866 18.8427 15.2417 17.5049V14.7302H11.633C10.0921 17.774 10.0921 21.3602 11.633 24.404L15.2417 21.6293Z" fill="#FBBC04"/>
<path d="M21.3403 13.0558C22.8892 13.0321 24.3861 13.61 25.5079 14.6708L28.6096 11.5953C26.6456 9.76656 24.0388 8.76117 21.3403 8.79284C17.2326 8.79284 13.4761 11.0886 11.6318 14.7302L15.2406 17.5049C16.0988 14.9518 18.506 13.0558 21.3403 13.0558Z" fill="#EA4335"/>
</g>
<defs>
<clipPath id="clip0">
<path d="M10.2588 8.79211H31.987V30.3367H10.2588V8.79211Z" fill="white"/>
</clipPath>
</defs>
</svg>
