<svg width="138" height="130" viewBox="0 0 138 130" fill="none" xmlns="http://www.w3.org/2000/svg">
<path d="M2.5 2.5H135.5V110C135.5 119.665 127.665 127.5 118 127.5H2.5V2.5Z" fill="#5B5549" stroke="#524D42" stroke-width="5"/>
<path d="M41 96.7442H97" stroke="#CBC5C1" stroke-width="3"/>
<path d="M97 96.7442V89.6899C97 85.9481 95.525 82.3596 92.8995 79.7137C90.274 77.0679 86.713 75.5814 83 75.5814H55C51.287 75.5814 47.726 77.0679 45.1005 79.7137C42.475 82.3596 41 85.9481 41 89.6899V96.7442" stroke="#CBC5C1" stroke-width="3" stroke-linecap="round" stroke-linejoin="round"/>
<path d="M69 66.5116C76.732 66.5116 83 60.195 83 52.4031C83 44.6112 76.732 38.2946 69 38.2946C61.268 38.2946 55 44.6112 55 52.4031C55 60.195 61.268 66.5116 69 66.5116Z" stroke="#CBC5C1" stroke-width="3" stroke-linecap="round" stroke-linejoin="round"/>
</svg>
