<svg width="138" height="125" viewBox="0 0 138 125" fill="none" xmlns="http://www.w3.org/2000/svg">
<path d="M41 89.9999H97" stroke="#CBC5C1" stroke-width="3"/>
<path d="M97 90V83.362C97 79.8411 95.525 76.4643 92.8995 73.9746C90.274 71.4849 86.713 70.0862 83 70.0862H55C51.287 70.0862 47.726 71.4849 45.1005 73.9746C42.475 76.4643 41 79.8411 41 83.362V90" stroke="#CBC5C1" stroke-width="3" stroke-linecap="round" stroke-linejoin="round"/>
<path d="M69 61.5517C76.732 61.5517 83 55.6079 83 48.2759C83 40.9438 76.732 35 69 35C61.268 35 55 40.9438 55 48.2759C55 55.6079 61.268 61.5517 69 61.5517Z" stroke="#CBC5C1" stroke-width="3" stroke-linecap="round" stroke-linejoin="round"/>
</svg>
