<svg width="863" height="616" viewBox="0 0 863 616" fill="none" xmlns="http://www.w3.org/2000/svg">
<path d="M451.429 343.73L444.661 297.745C455.863 281.442 464.89 264.921 482.041 249.212C476.188 249.946 472.096 251.032 460.233 250.565C452.664 247.54 456.575 243.747 455.941 239.588C450.88 242.038 445.152 240.886 439.396 239.588L430.684 231.671C426.94 232.165 421.85 232.053 413.866 230.64C426.941 248.603 421.978 244.533 425.237 252.198C419.381 258.729 417.728 260.29 412.324 262.58C403.492 267.26 394.029 263.981 384.499 259.875C375.761 256.768 381.16 250.482 379.987 245.674C377.758 249.756 376.575 254.779 371.715 256.494L355.17 257.847C350.538 262.766 345.662 269.445 342.386 264.609L323.806 263.059L321.33 267.314C329.258 270.885 335.288 274.046 337.912 278.81L334.114 292.335L324.076 299.822C372.595 298.95 376.728 304.508 404.052 309.241L441.652 346.435L450.677 351.845L451.429 343.73Z" fill="#0F371D"/>
<path d="M379.987 245.674C379.209 251.615 377.107 258.256 384.499 259.875C398.827 267.467 405.934 268.146 412.324 262.58C419.295 260.798 423.275 257.133 425.237 252.198C428.26 247.036 420.681 238.929 413.866 230.64C419.597 231.545 425.43 232.912 430.684 231.671C430.837 227.128 433.775 224.151 430.372 217.61C429.532 210.374 423.915 206.002 418.716 201.38L406.683 193.603L403.299 193.265C405.552 187.178 405.431 181.092 403.676 175.006L388.259 170.272L378.107 174.668L360.058 178.725C355.93 182.711 352.933 187.148 353.29 192.927C357.728 199.518 356.327 205.106 369.029 208.637L360.343 208.876C353.857 210.222 351.068 213.941 346.522 216.595C345.675 218.764 344.218 220.384 344.266 223.358L354.042 233.163L358.93 242.631L361.939 252.098C363.711 254.709 366.45 256.575 371.715 256.494C376.487 254.246 379.226 250.627 379.987 245.674V245.674Z" fill="#780B01"/>
<path d="M406.683 193.603L430.372 217.61L430.684 231.671C433.129 234.31 430.667 236.949 439.396 239.588C444.057 241.107 448.531 243.007 455.941 239.588C454.822 243.247 446.542 250.248 460.233 250.565C467.516 250.173 475.378 252.217 482.041 249.213C488.651 247.945 493.014 246.388 497.184 244.807C501.239 241.445 501.233 237.562 500.375 233.57L499.311 226.397C494.744 220.797 487.746 217.655 477.509 217.79C485.531 216.466 493.29 216.798 501.97 211.334L501.172 201.054L494.259 191.729L480.434 189.816L476.977 193.403L472.192 178.101C470.362 172.925 463.984 173.593 458.898 172.602C451.902 170.341 445.72 169.154 446.135 176.666C440.772 178.818 437.643 181.662 440.02 185.991L442.945 197.467C436.043 194.007 434.829 194.444 430.449 192.685L413.167 189.338L406.683 193.603Z" fill="#6C0709"/>
<path d="M477.509 217.79C493.981 221.345 503.487 228.687 497.184 244.807C502.378 243.82 507.856 243.781 514.466 233.57C521.581 231.49 525.451 237.732 531.217 240.503C535.467 239.409 539.932 236.9 542.118 233.331V222.572C546.171 225.978 548.455 224.589 551.157 222.333L555.412 214.682C556.562 215.373 560.382 215.264 565.781 214.682C570.746 213.168 575.218 211.477 576.682 208.704C578.616 204.799 577.73 200.894 576.15 196.989L567.11 194.598L560.995 191.968C556.964 195.857 553.292 199.616 552.753 202.249L540.522 198.185L531.216 188.143L520.05 186.708L518.72 195.555L514.998 198.902L510.744 196.511L501.172 201.054C501.913 210.603 502.265 215.134 501.97 211.334C507.245 209.695 486.527 216.247 477.509 217.79Z" fill="#550303"/>
<path d="M560.995 191.968L552.753 202.249L540.522 198.184L531.216 188.143C537.737 186.375 525.972 190.746 520.05 186.708L524.092 168.497L523.529 164.102C520.399 160.527 519.743 156.489 518.265 152.605L520.333 145.927C521.277 143.02 524.694 139.657 528.323 138.066L537.159 136.122L544.115 135.7C544.064 132.383 547.424 132.169 551.635 131.557L558.404 127.838L565.36 128.514L570.06 133.586L571.94 139.334L575.7 142.208L580.588 147.787C581.057 150.421 582.558 152.333 580.964 156.41L577.956 161.481L572.128 163.003L571.752 166.891L577.58 168.413C580.417 171.281 581.247 173.657 581.34 175.852C582.044 178.364 582.309 180.832 580.776 183.121C580.192 184.876 579.748 186.656 577.956 188.193L575.888 192.42L576.151 196.989C568.478 198.615 565.076 194.865 560.995 191.968V191.968Z" fill="#460905"/>
<path d="M472.861 168.244L472.192 178.101C473.487 183.156 472.991 187.943 476.977 193.402C482.343 192.695 480.433 189.233 494.26 191.729L501.172 201.053L510.744 196.511C514.625 201.054 516.684 198.35 518.72 195.554C520.931 192.87 520.825 189.839 520.05 186.708C517.896 178.902 520.222 171.462 523.529 164.102C522.564 160.506 523.396 157.45 518.265 152.605C510.136 153.642 509.654 157.018 507.642 160.805C507.71 156.522 507.784 153.253 504.446 148.971L493.918 145.589L485.27 147.28L479.629 154.719C478.765 159.559 482.276 162.432 485.27 165.539C481.176 166.137 477.402 164.435 472.861 168.244Z" fill="#80070F"/>
<path d="M442.945 197.467L413.166 189.338C411.747 182.6 408.689 175.296 413.432 170.689C410.528 171.093 407.593 171.397 403.993 169.613L406.121 164.114C406.166 161.992 408.428 161.083 407.051 157.539C408.302 156.266 400.928 156.789 402.531 153.714C400.67 150.436 403.828 147.723 405.722 144.867C408.486 142.316 412.659 141.348 417.42 141.042C411.987 136.785 411.005 131.328 410.508 125.74C409.04 122.951 410.372 120.161 411.305 117.372C413.53 111.692 416.686 110.518 419.392 107.866C427.478 106.905 427.334 109.643 429.917 111.156C431.942 108.569 434.447 106.155 438.957 104.461L444.806 99.6794L455.707 101.831L455.441 118.807L459.163 127.414L468.203 126.935L471.394 139.129L478.573 143.433L479.629 154.719C477.778 161.331 478.717 162.832 472.861 168.244L472.191 178.101C467.574 175.34 463.02 173.595 458.898 172.602C453.691 173.957 451.093 173.733 446.135 176.666C441.338 179.261 440.98 182.498 440.02 185.99L442.945 197.467Z" fill="#9B0B09"/>
<path d="M455.707 101.831C453.608 106.973 454.048 112.767 455.441 118.807C455.605 121.191 456.04 123.698 459.164 127.414C462.177 129.761 465.19 128.037 468.203 126.935L471.394 139.129L478.573 143.433L485.269 147.28L493.918 145.589L504.446 148.971C507.692 146.669 509.187 143.021 512.073 140.803C516.826 136.325 518.11 137.008 520.581 135.304C524.73 131.066 525.138 126.348 525.899 121.676L524.835 114.264L516.859 101.831L519.784 90.594C510.28 82.7704 509.438 86.6109 509.071 84.9018L505.692 79.5958C503.702 80.4075 502.457 80.2146 499.577 82.2258C496.482 77.0762 490.69 75.5649 485.751 72.9013L482.561 79.1176L480.305 89.0674C478.321 83.1548 472.959 84.0915 465.461 84.0395C462.856 87.3288 459.427 90.4698 459.164 94.1802C456.332 96.1814 453.188 98.0803 455.707 101.831Z" fill="#740D04"/>
<path d="M505.692 79.5958L509.071 84.9017L519.784 90.5939L516.859 101.831L524.835 114.264L525.899 121.676L531.519 120.906L536.031 126.485C534.767 129.513 534.439 132.646 537.159 136.122C542.006 138.769 550.769 131.939 558.403 127.838C568.108 130.177 565.989 127.696 563.667 125.133L560.847 115.665L564.607 105.86L566.111 98.083C563.437 85.0973 556.693 87.9724 551.259 85.7414L554.079 80.6696L552.387 70.1877C546.788 65.0815 541.999 58.1792 533.023 57.8462C529.075 56.9367 525.126 58.1014 521.178 56.1556L515.35 56.3247C517.582 54.6087 517.367 51.9495 516.102 48.886L511.59 43.4761L505.574 42.1235L503.318 41.7852L493.166 37.5587L486.585 40.6018C486.585 40.6018 488.53 49.7807 488.906 50.626C489.282 51.4714 489.03 63.2562 489.03 63.2562L485.751 72.9011C488.938 76.521 491.559 80.3439 499.577 82.2257L505.692 79.5958Z" fill="#53130F"/>
<path d="M412.7 71.8783C417.642 67.5531 421.059 70.7709 425.108 70.8639C429.657 72.8927 431.201 74.9214 433.38 76.9501L440.9 70.5258L449.173 71.202L451.993 76.781L451.429 83.0364C455.266 82.2371 459.63 82.1479 465.462 84.0393C461.455 89.8103 458.428 93.7937 455.707 101.831C452.667 101.308 452.794 101.821 444.806 99.6792C430.531 118.785 429.679 108.677 419.392 107.866C409.014 115.972 410.892 119.968 410.508 125.74C397.014 123.906 394.226 120.956 389.012 118.708V112.115L398.036 104L401.42 94.5326C401.73 96.1583 400.403 90.0295 401.608 87.6011L409.316 82.022L412.7 71.8783Z" fill="#7D0C10"/>
<path d="M380.332 151.451C391.049 153.536 392.669 153.043 394.289 160.647C393.359 164.017 392.15 167.346 388.259 170.272C384.024 173.513 373.725 176.257 360.058 178.725C356.591 186 350.462 198.86 353.29 192.927L341.645 196.511C335.546 196.257 333.594 192.275 333.137 186.947C329.769 192.808 326.402 195.111 323.034 194.598L316.121 194.12L313.462 184.078L306.549 174.036L302.827 163.994L306.549 158.256L321.438 152.996L315.057 143.911C313.031 140.563 314.717 137.216 316.121 133.869C320.907 130.663 325.692 131.757 330.478 132.913L336.328 131.956L340.05 121.436C346.302 118.191 348.606 119.678 350.685 121.436L361.32 129.565L369.297 120.48C373.318 115.399 380.027 112.734 389.011 112.115L391.099 131L401.202 133.391C404.061 136.608 407.006 139.787 405.722 144.867C392.594 147.479 394.625 151.932 380.332 151.451Z" fill="#B00811"/>
<path d="M328.85 217.948C319.509 218.257 312.627 217.811 309.297 220.822C304.352 223.725 300.717 227.613 298.769 230.966L291.625 236.883C290.95 241.721 289.896 246.49 291.625 251.76L279.969 250.746L266.432 254.127L261.92 258.185C263.496 262.242 263.97 266.3 269.816 270.357C268.823 275.68 267.974 281.055 269.44 287.263L278.841 290.307L291.249 284.22C291.525 287.793 293.923 290.889 296.137 294.026C303.204 295.534 308.486 295.438 313.057 294.702L324.076 299.822C329.767 298.03 332.933 295.48 334.114 292.335C337.508 288.784 337.373 283.646 337.912 278.81C336.719 272.498 327.481 270.789 321.33 267.314L323.806 263.059L342.386 264.609C339.463 264.716 346.926 269.394 349.906 264.609L352.162 251.084C352.361 246.521 354.086 241.958 349.09 237.395C345.723 234.283 341.76 233.317 337.391 233.809L326.224 237.634L320.582 240.276L328.085 226.397C331.415 222.862 329.179 220.628 328.85 217.948Z" fill="#880606"/>
<path d="M283.684 223.05C287.063 228.155 290.954 233.605 291.625 236.883C293.967 232.342 288.589 242.768 285.811 248.154C278.05 253.865 275.802 248.516 271.187 247.915C266.917 254.296 264.436 256.198 261.92 258.185C256.156 257.317 249.645 258.237 246.727 250.545L246.461 238.351L250.449 228.549L239.016 239.786C237.274 241.478 234.106 241.034 230.242 239.547L227.583 233.331L227.849 218.268L229.179 210.617L235.294 205.357L248.056 202.488L243.536 192.446C242.571 189.799 241.385 187.548 242.473 181.209L247.524 172.124L254.437 168.298L261.084 168.537L268.263 176.427L277.037 176.427L284.481 180.252L285.545 189.338C300.399 184.671 302.694 185.75 308.145 185.512C310.75 188.743 313.294 191.956 311.741 193.941C313.438 198.846 311.796 202.25 310.801 205.944L310.049 216.764L305.725 222.343C302.914 223.117 302.359 224.181 295.009 224.372L283.684 223.05Z" fill="#9C0109"/>
<path d="M231.087 264.947C232.911 260.866 239.198 258.351 245.397 255.805L255.501 260.108C264.682 263.525 266.751 266.941 269.816 270.357C271.172 275.993 271.61 281.628 269.44 287.263L278.841 290.306C284.992 295.367 286.837 299.837 284.481 303.623C282.388 310.567 278.613 312.975 275.176 316.295L270.922 318.925L260.552 318.207L257.628 325.141C253.386 325.671 249.305 326.54 243.004 322.75L236.889 317.968L226.254 317.251C217.462 313.247 215.004 309.875 212.428 306.492L212.96 302.188L223.861 298.363L210.833 295.972L205.25 286.647L199.932 285.452C196.115 281.786 196.752 278.12 196.21 274.454L201.261 266.564L217.48 263.217L231.087 264.947Z" fill="#5F0F03"/>
<path d="M173.182 209.664L193.487 209.833L200.255 213.383L204.015 220.653L211.911 215.581C215.358 215.126 218.805 213.305 222.251 218.286L222.063 225.894L222.439 232.318L225.071 239.081L228.267 248.21C228.414 251.479 229.465 254.747 228.267 258.016L223.003 262.242L217.48 263.217L201.262 266.564L196.21 274.454L185.402 275.429C180.335 274.286 178.126 271.001 176.002 267.652C174.127 264.44 173.805 261.228 175.438 258.016C173.809 255.48 168.206 253.083 170.55 250.408C167.952 247.027 166.694 243.645 166.602 240.264C166.562 236.175 173.976 237.33 178.07 236.545L168.858 225.049L168.294 216.088L173.182 209.664Z" fill="#7D0F01"/>
<path d="M196.741 182.644C200.102 191.865 199.106 196.385 199.134 202.01L193.487 209.833L173.182 209.664C169.859 206.156 166.996 202.648 168.558 199.141C169.294 195.601 170.054 192.107 171.483 189.816L167.761 184.078L166.431 172.363C166.009 168.27 166.518 164.345 169.622 160.886L174.939 150.606L179.194 150.367L185.575 158.974L189.563 161.604L188.233 153.714L188.765 146.302L186.106 141.52L184.777 135.543L188.499 127.653L199.4 121.676H205.25L213.492 132.196L216.682 136.978L214.024 143.911L205.25 149.888L201.527 154.192L212.162 151.084L221.734 149.41L227.849 149.649L230.508 160.886C227.285 162.381 225.703 164.86 218.544 163.995C216.178 168.302 214.321 172.686 216.151 177.623L215.619 189.338L211.365 191.968C207.083 194.249 204.787 192.959 202.591 191.49L196.741 182.644Z" fill="#5E0A04"/>
<path d="M215.619 189.338C214.643 192.791 212.076 196.965 221.123 202.563C232.695 203.115 240.684 196.827 243.536 192.447L242.473 181.209L247.524 172.124L261.084 168.537L268.263 176.427L277.037 176.427L287.489 168.92L290.121 153.366L287.113 141.87L277.337 139.841C272.588 142.855 264.549 143.897 263.8 149.309L264.928 137.136L254.4 133.079L245.752 135.108L241.24 143.223C236.398 143.154 231.7 143.927 227.849 149.649L230.508 160.886L218.544 163.995C215.472 168.128 214.218 172.589 216.151 177.623L215.619 189.338Z" fill="#770801"/>
<path d="M213.492 132.196L236.352 124.964L242.368 124.626C251.592 126.387 253.037 119.153 255.528 113.129C257.403 107.793 257.797 102.013 268.312 99.2664C273.224 93.7628 271.39 87.3927 269.44 81.0076L255.152 78.3027C260.284 74.6931 265.537 73.3353 263.424 66.4683C262.06 58.9851 251.36 61.996 242.368 63.0871L231.463 68.159L225.823 78.6408L220.183 78.3025C215.236 81.0819 210.438 82.2446 205.143 88.7844C202.827 93.9689 197.878 99.1535 199.127 104.338C198.055 108.555 199.197 111.279 202.135 112.791L211.535 110.424L205.25 121.675L213.492 132.196Z" fill="#8D1A05"/>
<path d="M242.368 124.625C241.548 122.087 241.84 122.99 245.752 135.107L254.4 133.079C266.699 137.819 267.399 138.088 264.928 137.136L263.8 149.309L277.337 139.841C280.814 136.775 285.391 134.5 284.105 128.007L291.625 119.892C295.354 114.42 291.476 110.746 286.361 107.719C291.696 106.233 293.669 102.522 293.129 96.5613L290.873 94.8707C290.104 92.6078 286.652 89.6034 276.209 94.1944L276.961 87.7701C285.091 82.7438 267.906 78.2839 269.44 81.0075L268.312 99.2662C259.664 95.3304 251.016 113.741 242.368 124.625Z" fill="#A10D15"/>
<path d="M277.337 139.841L287.113 141.87C288.176 145.486 289.385 148.576 290.121 153.366L287.489 168.92L306.549 174.036L302.827 163.994L306.549 158.256L321.438 152.996L315.057 143.911C314.885 145.542 312.882 139.989 316.121 133.869C316.782 133.823 317.949 130.431 330.478 132.913L336.328 131.956L340.05 121.436C336.462 120.804 333.076 119.748 328.474 121.245C326.882 116.761 325.012 112.235 325.466 108.058C325.791 102.964 327.95 98.6931 331.106 94.8712L335.994 85.4037L334.866 79.6556H318.698L313.809 88.1087L293.129 96.5618C293.927 105.316 289.576 105.581 286.361 107.72C289.823 111.528 294.571 114.344 291.625 119.892L284.105 128.007C285.281 133.614 280.427 136.301 277.337 139.841Z" fill="#7D0F19"/>
<path d="M345.77 87.0938C338.723 86.6343 337.772 88.0024 334.866 88.7845C332.347 93.2855 329.944 96.8405 327.722 98.9282C324.663 101.892 324.878 106.328 324.714 110.593C324.871 113.947 323.601 117.043 328.474 121.245C332.173 121.667 335.432 123.08 340.05 121.436L347.838 120.906L361.32 129.565C372.175 119.696 378.169 113.584 389.012 112.115L398.036 104C399.203 100.949 401.144 99.9888 401.42 94.5326C401.386 95.8773 401.545 89.9226 401.608 87.6011L409.316 82.022C408.25 84.624 409.734 81.0008 411.948 75.5977C405.058 74.6322 397.463 74.9363 389.575 75.7668L385.251 69.0043C381.627 67.1288 377.741 65.3855 366.263 67.4828L360.623 72.3856C357.296 71.9301 353.472 71.0275 352.162 72.3856C347.858 72.0641 346.216 76.2269 348.026 75.0906L345.206 82.5293L345.77 87.0938Z" fill="#9C020C"/>
<path d="M276.771 42.5368C269.252 44.0443 262.139 46.4624 256.032 51.1441C256.775 57.1309 254.973 62.1542 242.368 63.0869C249.58 63.8666 259.354 60.0373 263.424 66.4682C264.525 71.1297 254.514 73.5204 269.44 81.0075C273.439 81.9202 279.001 81.4268 276.961 87.7702L276.209 94.1945C281.849 93.0834 287.489 90.9425 293.129 96.5616C305.963 91.8847 320.999 87.6974 318.698 79.6554C323.692 81.4325 329.165 81.0567 334.866 79.6554L335.264 67.4021C337.768 70.6393 340.644 73.7333 348.026 75.0906C350.315 71.173 355.769 72.2534 360.622 72.3856C363.462 66.0739 365.687 62.2451 369.828 50.6659H348.558L331.542 57.3604L315.057 61.664C313.358 57.6636 308.149 53.137 310.272 49.7095C300.955 53.6245 297.784 52.0129 291.66 53.0567C286.141 47.5487 281.652 45.7501 276.771 42.5368Z" fill="#90140F"/>
<path d="M430.183 58.3169C431.074 61.8508 435.534 66.0979 440.9 70.5259L451.187 65.7286L456.771 61.9032L456.693 78.6409L460.265 81.1769L467.221 80.3315L485.752 72.9013C490.133 64.6241 492.155 48.6345 486.586 40.6019L480.758 40.7711L482.638 31.4727L474.929 26.908C470.724 26.3317 467.209 26.9996 463.461 27.2461L453.873 22.6815L449.549 22.0052C445.09 24.3693 440.446 26.6778 441.841 30.7964L444.097 37.728C433.763 36.373 436.06 38.5126 432.064 38.9114L428.492 46.012C427.636 49.5666 427.555 53.4196 430.183 58.3169Z" fill="#740A0A"/>
<path d="M378.071 16.953C376.656 12.8088 375.26 8.66454 377.273 4.52031C378.677 3.09694 381.635 1.90653 386.047 0.933975C392.679 0.469429 394.284 4.52473 397.746 6.91119L414.762 11.4539L420.611 15.0403L431.512 10.2584C436.269 10.329 440.626 10.9972 442.413 15.5184C445.814 17.6802 448.637 19.842 449.549 22.0038C446.45 24.4633 441.604 26.7482 442.679 29.6247L444.097 37.7266L432.065 38.91L428.492 46.0106L430.183 58.3155L428.853 65.2491L418.75 68.2377L407.317 65.8468L399.873 60.3478L388.307 64.7709C385.249 65.9941 382.192 65.6869 379.134 62.8582C377.483 59.8297 376.854 56.8013 378.204 53.7728L381.926 46.7197L369.828 50.6646H348.558L351.786 41.2769L356.486 34.6835L356.674 28.4282L361.375 25.216L361.751 20.6513L367.579 15.7485C374.606 12.976 374.66 16.4734 378.071 16.953Z" fill="#6C0202"/>
<path d="M276.771 42.5369L291.66 53.0568C301.301 54.0016 305.829 51.8811 310.272 49.7095C308.185 52.6598 311.604 57.1571 315.057 61.6641C328.832 61.5148 338.088 55.2716 348.558 50.6659C350.197 45.0599 353.291 43.6744 356.486 34.6848L356.674 28.4295L361.375 25.2172L367.579 15.7498C366.415 12.2328 366.994 8.35445 359.683 6.11326L349.342 5.94421L342.574 3.4083L338.25 0.87236C333.387 1.68825 332.14 -0.0971301 322.834 3.91549L316.441 11.0161C310.286 10.2312 305.035 12.3057 299.897 14.7355C295.639 16.5388 297.581 18.3421 296.513 20.1454L302.717 26.0626C296.739 26.6116 292.437 25.4179 282.789 29.782C280.478 31.4966 278.143 33.2068 278.277 35.361L276.771 42.5369Z" fill="#8B0711"/>
<path d="M441.652 346.435C442.789 364.356 443.495 382.276 448.045 400.197L454.437 412.369L429.62 396.139L407.812 387.686C400.569 387.566 395.059 391.344 391.332 393.12L382.619 405.945L382.995 413.384C383.193 409.736 386.858 407.334 390.515 404.931L397.751 404.814L407.151 408.295L416.661 406.621L427.235 400.634L440.524 407.974L452.181 416.089L478.877 441.786L488.278 455.649L490.534 432.657L491.286 410.002C490.531 403.088 488.135 395.19 485.27 387.01C476.017 370.905 470.462 366.441 463.837 358.608L451.429 343.73L450.677 351.845L441.652 346.435Z" fill="#0F371D"/>
<path d="M489.782 442.462L501.062 461.397L507.83 468.836C508.855 460.021 505.925 454.761 528.026 426.993L547.169 404.28C555.237 393.186 557.735 381.091 560.995 369.133L565.515 349.767L567.642 316.534L570.035 285.93L578.277 273.497C592.513 264.068 611.811 261.011 630.921 257.718C644.802 243.439 650.261 243.226 657.509 240.025L675.589 234.048L690.744 235.482C697.968 238.429 704.91 241.884 713.078 243.133L739.647 246.952C750.483 244.34 763.435 243.63 779.281 245.524C796.529 247.678 806.813 251.406 817.302 255.088L848.676 282.344C806.171 262.574 770.046 269.826 729.479 303.961C700.002 306.154 697.771 305.284 691.698 304.846C690.614 305.389 683.772 305.024 653.346 318.709L592.808 337.982C572.418 339.691 574.925 351.694 571.376 360.974L560.847 397.492L552.575 411.693C545.822 417.963 540.297 422.85 536.407 428.261L526.255 448.21C518.609 454.071 519.29 459.932 516.102 465.793L516.854 476.613L527.383 489.462L530.015 505.015L532.271 514.145L534.903 486.418L536.407 472.894L540.543 469.512L551.447 469.851L564.607 479.318L571.376 489.8L563.103 488.447L558.591 484.052L543.551 484.39L539.415 489.462L536.407 510.426L535.279 520.231L523.998 524.627L519.862 514.483L504.822 497.915L493.918 478.98L488.278 455.649L489.782 442.462Z" fill="#0F371D"/>
<path d="M523.998 524.627L534.903 555.396L494.294 536.461L475.493 522.936L434.132 495.21L412.7 474.246L389.763 448.887L371.715 427.923L366.827 423.866L367.955 406.621C362.107 374.486 339.17 369.635 309.297 387.01C333.991 387.403 355.354 392.999 361.186 422.851L295.385 403.916C278.355 395.219 276.832 387.788 269.816 379.909C243.515 367.891 231.376 353.326 214.167 339.673C191.607 336.175 169.116 332.371 144.605 337.644C122.594 342.829 112.852 348.013 97.9802 353.198C80.5923 364.509 68.9392 377.295 58.4992 390.391C6.86097 415.525 12.4703 420.306 0.593872 431.304C20.0568 425.91 34.9729 425.627 50.6031 424.542C85.1106 407.551 114.601 406.801 144.229 405.607L188.974 413.722L248.008 411.355L276.584 403.916L287.489 405.607L333.362 418.117L359.682 426.57L384.499 453.282L410.444 486.08L434.132 509.411L460.829 520.569L480.381 531.389L484.141 536.123L449.549 530.713L401.795 526.655L372.467 533.756C342.443 527.353 334.434 518.476 319.073 510.425C304.472 508.625 289.835 506.564 276.208 511.778C264.651 520.308 252.837 529.223 226.575 559.791L192.734 574.669L181.078 590.561L172.054 613.553C184.438 607.094 197.946 597.094 208.527 596.309C220.667 590.656 232.224 586.314 242.368 585.151L279.969 583.122L319.825 571.288L368.707 542.885L401.795 535.108L440.524 536.799L486.397 541.195L500.31 544.576L522.118 557.763L538.287 567.23L554.831 615.244L576.264 614.905L577.768 606.114L588.672 587.517L607.472 586.841C620 575.565 634.276 568.849 656.729 583.46C649.297 574.592 646.894 566.767 627.401 555.396L615.369 561.482L598.072 562.496L587.544 573.992L581.152 585.15L574.008 594.618L570.623 603.071L566.863 584.474L575.888 569.935L585.664 555.057L593.56 546.942L604.84 522.936L621.761 489.461C645.669 468.337 669.657 447.977 698.466 473.57L729.675 482.023L759.38 482.699L793.973 478.641C810.113 477.774 825.448 477.423 827.814 485.404L862.03 505.691C853.987 483.534 841.572 478.417 830.822 466.807C818.571 459.611 811.094 451.555 803.749 443.477C765.389 440.077 729.47 438.982 697.339 423.527L661.242 430.966L639.433 457.678L610.104 500.281L591.68 530.036L575.136 554.043L561.223 584.812L549.943 569.597L540.543 539.842C537.799 533.083 534.208 526.133 535.279 520.231L523.998 524.627Z" fill="#0F371D"/>
</svg>
