<svg width="1202" height="839" viewBox="0 0 1202 839" fill="none" xmlns="http://www.w3.org/2000/svg">
<path d="M790.429 566.73L783.661 520.745C794.863 504.442 803.89 487.921 821.041 472.212C815.188 472.946 811.096 474.032 799.233 473.565C791.664 470.54 795.575 466.747 794.941 462.588C789.88 465.038 784.152 463.886 778.396 462.588L769.684 454.671C765.94 455.165 760.85 455.053 752.866 453.64C765.941 471.603 760.978 467.533 764.237 475.198C758.381 481.729 756.728 483.29 751.324 485.58C742.492 490.26 733.029 486.981 723.499 482.875C714.761 479.768 720.16 473.482 718.987 468.674C716.758 472.756 715.575 477.779 710.715 479.494L694.17 480.847C689.538 485.766 684.662 492.445 681.386 487.609L662.806 486.059L660.33 490.314C668.258 493.885 674.288 497.046 676.912 501.81L673.114 515.335L663.076 522.822C711.595 521.95 715.728 527.508 743.052 532.241L780.652 569.435L789.677 574.845L790.429 566.73Z" fill="#0F371D"/>
<path d="M718.987 468.674C718.209 474.615 716.107 481.256 723.499 482.875C737.827 490.467 744.934 491.146 751.324 485.58C758.295 483.798 762.275 480.133 764.237 475.198C767.26 470.036 759.681 461.929 752.866 453.64C758.597 454.545 764.43 455.912 769.684 454.671C769.837 450.128 772.775 447.151 769.372 440.61C768.532 433.374 762.915 429.002 757.716 424.38L745.683 416.603L742.299 416.265C744.552 410.178 744.431 404.092 742.676 398.006L727.259 393.272L717.107 397.668L699.058 401.725C694.93 405.711 691.933 410.148 692.29 415.927C696.728 422.518 695.327 428.106 708.029 431.637L699.343 431.876C692.857 433.222 690.068 436.941 685.522 439.595C684.675 441.764 683.218 443.384 683.266 446.358L693.042 456.163L697.93 465.631L700.939 475.098C702.711 477.709 705.45 479.575 710.715 479.494C715.487 477.246 718.226 473.627 718.987 468.674V468.674Z" fill="#780B01"/>
<path d="M745.683 416.603L769.372 440.61L769.684 454.671C772.129 457.31 769.667 459.949 778.396 462.588C783.057 464.107 787.531 466.007 794.941 462.588C793.822 466.247 785.542 473.248 799.233 473.565C806.516 473.173 814.378 475.217 821.041 472.213C827.651 470.945 832.014 469.388 836.184 467.807C840.239 464.445 840.233 460.562 839.375 456.57L838.311 449.397C833.744 443.797 826.746 440.655 816.509 440.79C824.531 439.466 832.29 439.798 840.97 434.334L840.172 424.054L833.259 414.729L819.434 412.816L815.977 416.403L811.192 401.101C809.362 395.925 802.984 396.593 797.898 395.602C790.902 393.341 784.72 392.154 785.135 399.666C779.772 401.818 776.643 404.662 779.02 408.991L781.945 420.467C775.043 417.007 773.829 417.444 769.449 415.685L752.167 412.338L745.683 416.603Z" fill="#6C0709"/>
<path d="M816.509 440.79C832.981 444.345 842.487 451.687 836.184 467.807C841.378 466.82 846.856 466.781 853.466 456.57C860.581 454.49 864.451 460.732 870.217 463.503C874.467 462.409 878.932 459.9 881.118 456.331V445.572C885.171 448.978 887.455 447.589 890.157 445.333L894.412 437.682C895.562 438.373 899.382 438.264 904.781 437.682C909.746 436.168 914.218 434.477 915.682 431.704C917.616 427.799 916.73 423.894 915.15 419.989L906.11 417.598L899.995 414.968C895.964 418.857 892.292 422.616 891.753 425.249L879.522 421.185L870.216 411.143L859.05 409.708L857.72 418.555L853.998 421.902L849.744 419.511L840.172 424.054C840.913 433.603 841.265 438.134 840.97 434.334C846.245 432.695 825.527 439.247 816.509 440.79Z" fill="#550303"/>
<path d="M899.995 414.968L891.753 425.249L879.522 421.184L870.216 411.143C876.737 409.375 864.972 413.746 859.05 409.708L863.092 391.497L862.529 387.102C859.399 383.527 858.743 379.489 857.265 375.605L859.333 368.927C860.277 366.02 863.694 362.657 867.323 361.066L876.159 359.122L883.115 358.7C883.064 355.383 886.424 355.169 890.635 354.557L897.404 350.838L904.36 351.514L909.06 356.586L910.94 362.334L914.7 365.208L919.588 370.787C920.057 373.421 921.558 375.333 919.964 379.41L916.956 384.481L911.128 386.003L910.752 389.891L916.58 391.413C919.417 394.281 920.247 396.657 920.34 398.852C921.044 401.364 921.309 403.832 919.776 406.121C919.192 407.876 918.748 409.656 916.956 411.193L914.888 415.42L915.151 419.989C907.478 421.615 904.076 417.865 899.995 414.968V414.968Z" fill="#460905"/>
<path d="M811.861 391.244L811.192 401.101C812.487 406.156 811.991 410.943 815.977 416.402C821.343 415.695 819.433 412.233 833.26 414.729L840.172 424.053L849.744 419.511C853.625 424.054 855.684 421.35 857.72 418.554C859.931 415.87 859.825 412.839 859.05 409.708C856.896 401.902 859.222 394.462 862.529 387.102C861.564 383.506 862.396 380.45 857.265 375.605C849.136 376.642 848.654 380.018 846.642 383.805C846.71 379.522 846.784 376.253 843.446 371.971L832.918 368.589L824.27 370.28L818.629 377.719C817.765 382.559 821.276 385.432 824.27 388.539C820.176 389.137 816.402 387.435 811.861 391.244Z" fill="#80070F"/>
<path d="M781.945 420.467L752.166 412.338C750.747 405.6 747.689 398.296 752.432 393.689C749.528 394.093 746.593 394.397 742.993 392.613L745.121 387.114C745.166 384.992 747.428 384.083 746.051 380.539C747.302 379.266 739.928 379.789 741.531 376.714C739.67 373.436 742.828 370.723 744.722 367.867C747.486 365.316 751.659 364.348 756.42 364.042C750.987 359.785 750.005 354.328 749.508 348.74C748.04 345.951 749.372 343.161 750.305 340.372C752.53 334.692 755.686 333.518 758.392 330.866C766.478 329.905 766.334 332.643 768.917 334.156C770.942 331.569 773.447 329.155 777.957 327.461L783.806 322.679L794.707 324.831L794.441 341.807L798.163 350.414L807.203 349.935L810.394 362.129L817.573 366.433L818.629 377.719C816.778 384.331 817.717 385.832 811.861 391.244L811.191 401.101C806.574 398.34 802.02 396.595 797.898 395.602C792.691 396.957 790.093 396.733 785.135 399.666C780.338 402.261 779.98 405.498 779.02 408.99L781.945 420.467Z" fill="#9B0B09"/>
<path d="M794.707 324.831C792.608 329.973 793.048 335.767 794.441 341.807C794.605 344.191 795.04 346.698 798.164 350.414C801.177 352.761 804.19 351.037 807.203 349.935L810.394 362.129L817.573 366.433L824.269 370.28L832.918 368.589L843.446 371.971C846.692 369.669 848.187 366.021 851.073 363.803C855.826 359.325 857.11 360.008 859.581 358.304C863.73 354.066 864.138 349.348 864.899 344.676L863.835 337.264L855.859 324.831L858.784 313.594C849.28 305.77 848.438 309.611 848.071 307.902L844.692 302.596C842.702 303.407 841.457 303.215 838.577 305.226C835.482 300.076 829.69 298.565 824.751 295.901L821.561 302.118L819.305 312.067C817.321 306.155 811.959 307.092 804.461 307.039C801.856 310.329 798.427 313.47 798.164 317.18C795.332 319.181 792.188 321.08 794.707 324.831Z" fill="#740D04"/>
<path d="M844.692 302.596L848.071 307.902L858.784 313.594L855.859 324.831L863.835 337.264L864.899 344.676L870.519 343.906L875.031 349.485C873.767 352.513 873.439 355.646 876.159 359.122C881.006 361.769 889.769 354.939 897.403 350.838C907.108 353.177 904.989 350.696 902.667 348.133L899.847 338.665L903.607 328.86L905.111 321.083C902.437 308.097 895.693 310.972 890.259 308.741L893.079 303.67L891.387 293.188C885.788 288.081 880.999 281.179 872.023 280.846C868.075 279.937 864.126 281.101 860.178 279.156L854.35 279.325C856.582 277.609 856.367 274.949 855.102 271.886L850.59 266.476L844.574 265.124L842.318 264.785L832.166 260.559L825.585 263.602C825.585 263.602 827.53 272.781 827.906 273.626C828.282 274.471 828.03 286.256 828.03 286.256L824.751 295.901C827.938 299.521 830.559 303.344 838.577 305.226L844.692 302.596Z" fill="#53130F"/>
<path d="M751.7 294.878C756.642 290.553 760.059 293.771 764.108 293.864C768.657 295.893 770.201 297.921 772.38 299.95L779.9 293.526L788.173 294.202L790.993 299.781L790.429 306.036C794.266 305.237 798.63 305.148 804.462 307.039C800.455 312.81 797.428 316.794 794.707 324.831C791.667 324.308 791.794 324.821 783.806 322.679C769.531 341.785 768.679 331.677 758.392 330.866C748.014 338.972 749.892 342.968 749.508 348.74C736.014 346.906 733.226 343.956 728.012 341.708V335.115L737.036 327L740.42 317.533C740.73 319.158 739.403 313.029 740.608 310.601L748.316 305.022L751.7 294.878Z" fill="#7D0C10"/>
<path d="M719.332 374.451C730.049 376.536 731.669 376.043 733.289 383.647C732.359 387.017 731.15 390.346 727.259 393.272C723.024 396.513 712.725 399.257 699.058 401.725C695.591 409 689.462 421.86 692.29 415.927L680.645 419.511C674.546 419.257 672.594 415.275 672.137 409.947C668.769 415.808 665.402 418.111 662.034 417.598L655.121 417.12L652.462 407.078L645.549 397.036L641.827 386.994L645.549 381.256L660.438 375.996L654.057 366.911C652.031 363.563 653.717 360.216 655.121 356.869C659.907 353.663 664.692 354.757 669.478 355.913L675.328 354.956L679.05 344.436C685.302 341.191 687.606 342.678 689.685 344.436L700.32 352.565L708.297 343.48C712.318 338.399 719.027 335.734 728.011 335.115L730.099 354L740.202 356.391C743.061 359.608 746.006 362.787 744.722 367.867C731.594 370.479 733.625 374.932 719.332 374.451Z" fill="#B00811"/>
<path d="M667.85 440.948C658.509 441.257 651.627 440.811 648.297 443.822C643.352 446.725 639.717 450.613 637.769 453.966L630.625 459.883C629.95 464.721 628.896 469.49 630.625 474.76L618.969 473.746L605.432 477.127L600.92 481.185C602.496 485.242 602.97 489.3 608.816 493.357C607.823 498.68 606.974 504.055 608.44 510.263L617.841 513.307L630.249 507.22C630.525 510.793 632.923 513.889 635.137 517.026C642.204 518.534 647.486 518.438 652.057 517.702L663.076 522.822C668.767 521.03 671.933 518.48 673.114 515.335C676.508 511.784 676.373 506.646 676.912 501.81C675.719 495.498 666.481 493.789 660.33 490.314L662.806 486.059L681.386 487.609C678.463 487.716 685.926 492.394 688.906 487.609L691.162 474.084C691.361 469.521 693.086 464.958 688.09 460.395C684.723 457.283 680.76 456.317 676.391 456.809L665.224 460.634L659.582 463.276L667.085 449.397C670.415 445.862 668.179 443.628 667.85 440.948Z" fill="#880606"/>
<path d="M622.684 446.05C626.063 451.155 629.954 456.605 630.625 459.883C632.967 455.342 627.589 465.768 624.811 471.154C617.05 476.865 614.802 471.516 610.187 470.915C605.917 477.296 603.436 479.198 600.92 481.185C595.156 480.317 588.645 481.237 585.727 473.545L585.461 461.351L589.449 451.549L578.016 462.786C576.274 464.478 573.106 464.034 569.242 462.547L566.583 456.331L566.849 441.268L568.179 433.617L574.294 428.357L587.056 425.488L582.536 415.446C581.571 412.799 580.385 410.548 581.473 404.209L586.524 395.124L593.437 391.298L600.084 391.537L607.263 399.427L616.037 399.427L623.481 403.252L624.545 412.338C639.399 407.671 641.694 408.75 647.145 408.512C649.75 411.743 652.294 414.956 650.741 416.941C652.438 421.846 650.796 425.25 649.801 428.944L649.049 439.764L644.725 445.343C641.914 446.117 641.359 447.181 634.009 447.372L622.684 446.05Z" fill="#9C0109"/>
<path d="M570.087 487.947C571.911 483.866 578.198 481.351 584.397 478.805L594.501 483.108C603.682 486.525 605.751 489.941 608.816 493.357C610.172 498.993 610.61 504.628 608.44 510.263L617.841 513.306C623.992 518.367 625.837 522.837 623.481 526.623C621.388 533.567 617.613 535.975 614.176 539.295L609.922 541.925L599.552 541.207L596.628 548.141C592.386 548.671 588.305 549.54 582.004 545.75L575.889 540.968L565.254 540.251C556.462 536.247 554.004 532.875 551.428 529.492L551.96 525.188L562.861 521.363L549.833 518.972L544.25 509.647L538.932 508.452C535.115 504.786 535.752 501.12 535.21 497.454L540.261 489.564L556.48 486.217L570.087 487.947Z" fill="#5F0F03"/>
<path d="M512.182 432.664L532.487 432.833L539.255 436.383L543.015 443.653L550.911 438.581C554.358 438.126 557.805 436.305 561.251 441.286L561.063 448.894L561.439 455.318L564.071 462.081L567.267 471.21C567.414 474.479 568.465 477.747 567.267 481.016L562.003 485.242L556.48 486.217L540.262 489.564L535.21 497.454L524.402 498.429C519.335 497.286 517.126 494.001 515.002 490.652C513.127 487.44 512.805 484.228 514.438 481.016C512.809 478.48 507.206 476.083 509.55 473.408C506.952 470.027 505.694 466.645 505.602 463.264C505.562 459.175 512.976 460.33 517.07 459.545L507.858 448.049L507.294 439.088L512.182 432.664Z" fill="#7D0F01"/>
<path d="M535.741 405.644C539.102 414.865 538.106 419.385 538.134 425.01L532.487 432.833L512.182 432.664C508.859 429.156 505.996 425.648 507.558 422.141C508.294 418.601 509.054 415.107 510.483 412.816L506.761 407.078L505.431 395.363C505.009 391.27 505.518 387.345 508.622 383.886L513.939 373.606L518.194 373.367L524.575 381.974L528.563 384.604L527.233 376.714L527.765 369.302L525.106 364.52L523.777 358.543L527.499 350.653L538.4 344.676H544.25L552.492 355.196L555.682 359.978L553.024 366.911L544.25 372.888L540.527 377.192L551.162 374.084L560.734 372.41L566.849 372.649L569.508 383.886C566.285 385.381 564.703 387.86 557.544 386.995C555.178 391.302 553.321 395.686 555.151 400.623L554.619 412.338L550.365 414.968C546.083 417.249 543.787 415.959 541.591 414.49L535.741 405.644Z" fill="#5E0A04"/>
<path d="M554.619 412.338C553.643 415.791 551.076 419.965 560.123 425.563C571.695 426.115 579.684 419.827 582.536 415.447L581.473 404.209L586.524 395.124L600.084 391.537L607.263 399.427L616.037 399.427L626.489 391.92L629.121 376.366L626.113 364.87L616.337 362.841C611.588 365.855 603.549 366.897 602.8 372.309L603.928 360.136L593.4 356.079L584.752 358.108L580.24 366.223C575.398 366.154 570.7 366.927 566.849 372.649L569.508 383.886L557.544 386.995C554.472 391.128 553.218 395.589 555.151 400.623L554.619 412.338Z" fill="#770801"/>
<path d="M552.492 355.196L575.352 347.964L581.368 347.626C590.592 349.387 592.037 342.153 594.528 336.129C596.403 330.793 596.797 325.013 607.312 322.266C612.224 316.763 610.39 310.393 608.44 304.008L594.152 301.303C599.284 297.693 604.537 296.335 602.424 289.468C601.06 281.985 590.36 284.996 581.368 286.087L570.463 291.159L564.823 301.641L559.183 301.302C554.236 304.082 549.438 305.245 544.143 311.784C541.827 316.969 536.878 322.154 538.127 327.338C537.055 331.555 538.197 334.279 541.135 335.791L550.535 333.424L544.25 344.675L552.492 355.196Z" fill="#8D1A05"/>
<path d="M581.368 347.625C580.548 345.087 580.84 345.99 584.752 358.107L593.4 356.079C605.699 360.819 606.399 361.088 603.928 360.136L602.8 372.309L616.337 362.841C619.814 359.775 624.391 357.5 623.105 351.007L630.625 342.892C634.354 337.42 630.476 333.746 625.361 330.719C630.696 329.233 632.669 325.522 632.129 319.561L629.873 317.871C629.104 315.608 625.652 312.603 615.209 317.194L615.961 310.77C624.091 305.744 606.906 301.284 608.44 304.007L607.312 322.266C598.664 318.33 590.016 336.741 581.368 347.625Z" fill="#A10D15"/>
<path d="M616.337 362.841L626.113 364.87C627.176 368.486 628.385 371.576 629.121 376.366L626.489 391.92L645.549 397.036L641.827 386.994L645.549 381.256L660.438 375.996L654.057 366.911C653.885 368.542 651.882 362.989 655.121 356.869C655.782 356.823 656.949 353.431 669.478 355.913L675.328 354.956L679.05 344.436C675.462 343.804 672.076 342.748 667.474 344.245C665.882 339.761 664.012 335.235 664.466 331.058C664.791 325.964 666.95 321.693 670.106 317.871L674.994 308.404L673.866 302.656H657.698L652.809 311.109L632.129 319.562C632.927 328.316 628.576 328.581 625.361 330.72C628.823 334.528 633.571 337.344 630.625 342.892L623.105 351.007C624.281 356.614 619.427 359.301 616.337 362.841Z" fill="#7D0F19"/>
<path d="M684.77 310.094C677.723 309.634 676.772 311.002 673.866 311.784C671.347 316.286 668.944 319.841 666.722 321.928C663.663 324.892 663.878 329.328 663.714 333.593C663.871 336.947 662.601 340.043 667.474 344.245C671.173 344.667 674.432 346.08 679.05 344.436L686.838 343.906L700.32 352.565C711.175 342.696 717.169 336.584 728.012 335.115L737.036 327C738.203 323.949 740.144 322.989 740.42 317.533C740.386 318.877 740.545 312.923 740.608 310.601L748.316 305.022C747.25 307.624 748.734 304.001 750.948 298.598C744.058 297.632 736.463 297.936 728.575 298.767L724.251 292.004C720.627 290.129 716.741 288.385 705.263 290.483L699.623 295.386C696.296 294.93 692.472 294.028 691.162 295.386C686.858 295.064 685.216 299.227 687.026 298.091L684.206 305.529L684.77 310.094Z" fill="#9C020C"/>
<path d="M615.771 265.537C608.252 267.044 601.139 269.462 595.032 274.144C595.775 280.131 593.973 285.154 581.368 286.087C588.58 286.867 598.354 283.037 602.424 289.468C603.525 294.13 593.514 296.52 608.44 304.007C612.439 304.92 618.001 304.427 615.961 310.77L615.209 317.194C620.849 316.083 626.489 313.942 632.129 319.562C644.963 314.885 659.999 310.697 657.698 302.655C662.692 304.433 668.165 304.057 673.866 302.655L674.264 290.402C676.768 293.639 679.644 296.733 687.026 298.091C689.315 294.173 694.769 295.253 699.622 295.386C702.462 289.074 704.687 285.245 708.828 273.666H687.558L670.542 280.36L654.057 284.664C652.358 280.664 647.149 276.137 649.272 272.71C639.955 276.624 636.784 275.013 630.66 276.057C625.141 270.549 620.652 268.75 615.771 265.537Z" fill="#90140F"/>
<path d="M769.183 281.317C770.074 284.851 774.534 289.098 779.9 293.526L790.187 288.729L795.771 284.903L795.693 301.641L799.265 304.177L806.221 303.332L824.752 295.901C829.133 287.624 831.155 271.634 825.586 263.602L819.758 263.771L821.638 254.473L813.929 249.908C809.724 249.332 806.209 250 802.461 250.246L792.873 245.681L788.549 245.005C784.09 247.369 779.446 249.678 780.841 253.796L783.097 260.728C772.763 259.373 775.06 261.513 771.064 261.911L767.492 269.012C766.636 272.567 766.555 276.42 769.183 281.317Z" fill="#740A0A"/>
<path d="M717.071 239.953C715.656 235.809 714.26 231.665 716.273 227.52C717.677 226.097 720.635 224.907 725.047 223.934C731.679 223.469 733.284 227.525 736.746 229.911L753.762 234.454L759.611 238.04L770.512 233.258C775.269 233.329 779.626 233.997 781.413 238.518C784.814 240.68 787.637 242.842 788.549 245.004C785.45 247.463 780.604 249.748 781.679 252.625L783.097 260.727L771.065 261.91L767.492 269.011L769.183 281.316L767.853 288.249L757.75 291.238L746.317 288.847L738.873 283.348L727.307 287.771C724.249 288.994 721.192 288.687 718.134 285.858C716.483 282.83 715.854 279.801 717.204 276.773L720.926 269.72L708.828 273.665H687.558L690.786 264.277L695.486 257.683L695.674 251.428L700.375 248.216L700.751 243.651L706.579 238.749C713.606 235.976 713.66 239.473 717.071 239.953Z" fill="#6C0202"/>
<path d="M615.771 265.537L630.66 276.057C640.301 277.002 644.829 274.881 649.272 272.71C647.185 275.66 650.604 280.157 654.057 284.664C667.832 284.515 677.088 278.272 687.558 273.666C689.197 268.06 692.291 266.674 695.486 257.685L695.674 251.429L700.375 248.217L706.579 238.75C705.415 235.233 705.994 231.354 698.683 229.113L688.342 228.944L681.574 226.408L677.25 223.872C672.387 224.688 671.14 222.903 661.834 226.915L655.441 234.016C649.286 233.231 644.035 235.306 638.897 237.735C634.639 239.539 636.581 241.342 635.513 243.145L641.717 249.063C635.739 249.612 631.437 248.418 621.789 252.782C619.478 254.497 617.143 256.207 617.277 258.361L615.771 265.537Z" fill="#8B0711"/>
<path d="M780.652 569.435C781.789 587.356 782.495 605.276 787.045 623.197L793.437 635.369L768.62 619.139L746.812 610.686C739.569 610.566 734.059 614.344 730.332 616.12L721.619 628.945L721.995 636.384C722.193 632.736 725.858 630.334 729.515 627.931L736.751 627.814L746.151 631.295L755.661 629.621L766.235 623.634L779.524 630.974L791.181 639.089L817.877 664.786L827.278 678.649L829.534 655.657L830.286 633.002C829.531 626.088 827.135 618.19 824.27 610.01C815.017 593.905 809.462 589.441 802.837 581.608L790.429 566.73L789.677 574.845L780.652 569.435Z" fill="#0F371D"/>
<path d="M828.782 665.462L840.062 684.397L846.83 691.836C847.855 683.021 844.925 677.761 867.026 649.993L886.169 627.28C894.237 616.186 896.735 604.091 899.995 592.133L904.515 572.767L906.642 539.534L909.035 508.93L917.277 496.497C931.513 487.068 950.811 484.011 969.921 480.718C983.802 466.439 989.261 466.226 996.509 463.025L1014.59 457.048L1029.74 458.482C1036.97 461.429 1043.91 464.884 1052.08 466.133L1078.65 469.952C1089.48 467.34 1102.43 466.63 1118.28 468.524C1135.53 470.678 1145.81 474.406 1156.3 478.088L1187.68 505.344C1145.17 485.574 1109.05 492.826 1068.48 526.961C1039 529.154 1036.77 528.284 1030.7 527.846C1029.61 528.389 1022.77 528.024 992.346 541.709L931.808 560.982C911.418 562.691 913.925 574.694 910.376 583.974L899.847 620.492L891.575 634.693C884.822 640.963 879.297 645.85 875.407 651.261L865.255 671.21C857.609 677.071 858.29 682.932 855.102 688.793L855.854 699.613L866.383 712.462L869.015 728.015L871.271 737.145L873.903 709.418L875.407 695.894L879.543 692.512L890.447 692.851L903.607 702.318L910.376 712.8L902.103 711.447L897.591 707.052L882.551 707.39L878.415 712.462L875.407 733.426L874.279 743.231L862.998 747.627L858.862 737.483L843.822 720.915L832.918 701.98L827.278 678.649L828.782 665.462Z" fill="#0F371D"/>
<path d="M862.998 747.627L873.903 778.396L833.294 759.461L814.493 745.936L773.132 718.21L751.7 697.246L728.763 671.887L710.715 650.923L705.827 646.866L706.955 629.621C701.107 597.486 678.17 592.635 648.297 610.01C672.991 610.403 694.354 615.999 700.186 645.851L634.385 626.916C617.355 618.219 615.832 610.788 608.816 602.909C582.515 590.891 570.376 576.326 553.167 562.673C530.607 559.175 508.116 555.371 483.605 560.644C461.594 565.829 451.852 571.013 436.98 576.198C419.592 587.509 407.939 600.295 397.499 613.391C345.861 638.525 351.47 643.306 339.594 654.304C359.057 648.91 373.973 648.627 389.603 647.542C424.111 630.551 453.601 629.801 483.229 628.607L527.974 636.722L587.008 634.355L615.584 626.916L626.489 628.607L672.362 641.117L698.682 649.57L723.499 676.282L749.444 709.08L773.132 732.411L799.829 743.569L819.381 754.389L823.141 759.123L788.549 753.713L740.795 749.655L711.467 756.756C681.443 750.353 673.434 741.476 658.073 733.425C643.472 731.625 628.835 729.564 615.208 734.778C603.651 743.308 591.837 752.223 565.575 782.791L531.734 797.669L520.078 813.561L511.054 836.553C523.438 830.094 536.946 820.094 547.527 819.309C559.667 813.656 571.224 809.314 581.368 808.151L618.969 806.122L658.825 794.288L707.707 765.885L740.795 758.108L779.524 759.799L825.397 764.195L839.31 767.576L861.118 780.763L877.287 790.23L893.831 838.244L915.264 837.905L916.768 829.114L927.672 810.517L946.472 809.841C959 798.565 973.276 791.849 995.729 806.46C988.297 797.592 985.894 789.767 966.401 778.396L954.369 784.482L937.072 785.496L926.544 796.992L920.152 808.15L913.008 817.618L909.623 826.071L905.863 807.474L914.888 792.935L924.664 778.057L932.56 769.942L943.84 745.936L960.761 712.461C984.669 691.337 1008.66 670.977 1037.47 696.57L1068.68 705.023L1098.38 705.699L1132.97 701.641C1149.11 700.774 1164.45 700.423 1166.81 708.404L1201.03 728.691C1192.99 706.534 1180.57 701.417 1169.82 689.807C1157.57 682.611 1150.09 674.555 1142.75 666.477C1104.39 663.077 1068.47 661.982 1036.34 646.527L1000.24 653.966L978.433 680.678L949.104 723.281L930.68 753.036L914.136 777.043L900.223 807.812L888.943 792.597L879.543 762.842C876.799 756.083 873.208 749.133 874.279 743.231L862.998 747.627Z" fill="#0F371D"/>
</svg>
