<svg width="1178" height="827" viewBox="0 0 1178 827" fill="none" xmlns="http://www.w3.org/2000/svg">
<rect width="1175" height="823" fill="#CBC5C1"/>
<path d="M766.429 554.73L759.661 508.745C770.863 492.442 779.89 475.921 797.041 460.212C791.188 460.946 787.096 462.032 775.233 461.565C767.664 458.54 771.575 454.747 770.941 450.588C765.88 453.038 760.152 451.886 754.396 450.588L745.684 442.671C741.94 443.165 736.85 443.053 728.866 441.64C741.941 459.603 736.978 455.533 740.237 463.198C734.381 469.729 732.728 471.29 727.324 473.58C718.492 478.26 709.029 474.981 699.499 470.875C690.761 467.768 696.16 461.482 694.987 456.674C692.758 460.756 691.575 465.779 686.715 467.494L670.17 468.847C665.538 473.766 660.662 480.445 657.386 475.609L638.806 474.059L636.33 478.314C644.258 481.885 650.288 485.046 652.912 489.81L649.114 503.335L639.076 510.822C687.595 509.95 691.728 515.508 719.052 520.241L756.652 557.435L765.677 562.845L766.429 554.73Z" fill="#0F371D"/>
<path d="M694.987 456.674C694.209 462.615 692.107 469.256 699.499 470.875C713.827 478.467 720.934 479.146 727.324 473.58C734.295 471.798 738.275 468.133 740.237 463.198C743.26 458.036 735.681 449.929 728.866 441.64C734.597 442.545 740.43 443.912 745.684 442.671C745.837 438.128 748.775 435.151 745.372 428.61C744.532 421.374 738.915 417.002 733.716 412.38L721.683 404.603L718.299 404.265C720.552 398.178 720.431 392.092 718.676 386.006L703.259 381.272L693.107 385.668L675.058 389.725C670.93 393.711 667.933 398.148 668.29 403.927C672.728 410.518 671.327 416.106 684.029 419.637L675.343 419.876C668.857 421.222 666.068 424.941 661.522 427.595C660.675 429.764 659.218 431.384 659.266 434.358L669.042 444.163L673.93 453.631L676.939 463.098C678.711 465.709 681.45 467.575 686.715 467.494C691.487 465.246 694.226 461.627 694.987 456.674V456.674Z" fill="#780B01"/>
<path d="M721.683 404.603L745.372 428.61L745.684 442.671C748.129 445.31 745.667 447.949 754.396 450.588C759.057 452.107 763.531 454.007 770.941 450.588C769.822 454.247 761.542 461.248 775.233 461.565C782.516 461.173 790.378 463.217 797.041 460.213C803.651 458.945 808.014 457.388 812.184 455.807C816.239 452.445 816.233 448.562 815.375 444.57L814.311 437.397C809.744 431.797 802.746 428.655 792.509 428.79C800.531 427.466 808.29 427.798 816.97 422.334L816.172 412.054L809.259 402.729L795.434 400.816L791.977 404.403L787.192 389.101C785.362 383.925 778.984 384.593 773.898 383.602C766.902 381.341 760.72 380.154 761.135 387.666C755.772 389.818 752.643 392.662 755.02 396.991L757.945 408.467C751.043 405.007 749.829 405.444 745.449 403.685L728.167 400.338L721.683 404.603Z" fill="#6C0709"/>
<path d="M792.509 428.79C808.981 432.345 818.487 439.687 812.184 455.807C817.378 454.82 822.856 454.781 829.466 444.57C836.581 442.49 840.451 448.732 846.217 451.503C850.467 450.409 854.932 447.9 857.118 444.331V433.572C861.171 436.978 863.455 435.589 866.157 433.333L870.412 425.682C871.562 426.373 875.382 426.264 880.781 425.682C885.746 424.168 890.218 422.477 891.682 419.704C893.616 415.799 892.73 411.894 891.15 407.989L882.11 405.598L875.995 402.968C871.964 406.857 868.292 410.616 867.753 413.249L855.522 409.185L846.216 399.143L835.05 397.708L833.72 406.555L829.998 409.902L825.744 407.511L816.172 412.054C816.913 421.603 817.265 426.134 816.97 422.334C822.245 420.695 801.527 427.247 792.509 428.79Z" fill="#550303"/>
<path d="M875.995 402.968L867.753 413.249L855.522 409.184L846.216 399.143C852.737 397.375 840.972 401.746 835.05 397.708L839.092 379.497L838.529 375.102C835.399 371.527 834.743 367.489 833.265 363.605L835.333 356.927C836.277 354.02 839.694 350.657 843.323 349.066L852.159 347.122L859.115 346.7C859.064 343.383 862.424 343.169 866.635 342.557L873.404 338.838L880.36 339.514L885.06 344.586L886.94 350.334L890.7 353.208L895.588 358.787C896.057 361.421 897.558 363.333 895.964 367.41L892.956 372.481L887.128 374.003L886.752 377.891L892.58 379.413C895.417 382.281 896.247 384.657 896.34 386.852C897.044 389.364 897.309 391.832 895.776 394.121C895.192 395.876 894.748 397.656 892.956 399.193L890.888 403.42L891.151 407.989C883.478 409.615 880.076 405.865 875.995 402.968V402.968Z" fill="#460905"/>
<path d="M787.861 379.244L787.192 389.101C788.487 394.156 787.991 398.943 791.977 404.402C797.343 403.695 795.433 400.233 809.26 402.729L816.172 412.053L825.744 407.511C829.625 412.054 831.684 409.35 833.72 406.554C835.931 403.87 835.825 400.839 835.05 397.708C832.896 389.902 835.222 382.462 838.529 375.102C837.564 371.506 838.396 368.45 833.265 363.605C825.136 364.642 824.654 368.018 822.642 371.805C822.71 367.522 822.784 364.253 819.446 359.971L808.918 356.589L800.27 358.28L794.629 365.719C793.765 370.559 797.276 373.432 800.27 376.539C796.176 377.137 792.402 375.435 787.861 379.244Z" fill="#80070F"/>
<path d="M757.945 408.467L728.166 400.338C726.747 393.6 723.689 386.296 728.432 381.689C725.528 382.093 722.593 382.397 718.993 380.613L721.121 375.114C721.166 372.992 723.428 372.083 722.051 368.539C723.302 367.266 715.928 367.789 717.531 364.714C715.67 361.436 718.828 358.723 720.722 355.867C723.486 353.316 727.659 352.348 732.42 352.042C726.987 347.785 726.005 342.328 725.508 336.74C724.04 333.951 725.372 331.161 726.305 328.372C728.53 322.692 731.686 321.518 734.392 318.866C742.478 317.905 742.334 320.643 744.917 322.156C746.942 319.569 749.447 317.155 753.957 315.461L759.806 310.679L770.707 312.831L770.441 329.807L774.163 338.414L783.203 337.935L786.394 350.129L793.573 354.433L794.629 365.719C792.778 372.331 793.717 373.832 787.861 379.244L787.191 389.101C782.574 386.34 778.02 384.595 773.898 383.602C768.691 384.957 766.093 384.733 761.135 387.666C756.338 390.261 755.98 393.498 755.02 396.99L757.945 408.467Z" fill="#9B0B09"/>
<path d="M770.707 312.831C768.608 317.973 769.048 323.767 770.441 329.807C770.605 332.191 771.04 334.698 774.164 338.414C777.177 340.761 780.19 339.037 783.203 337.935L786.394 350.129L793.573 354.433L800.269 358.28L808.918 356.589L819.446 359.971C822.692 357.669 824.187 354.021 827.073 351.803C831.826 347.325 833.11 348.008 835.581 346.304C839.73 342.066 840.138 337.348 840.899 332.676L839.835 325.264L831.859 312.831L834.784 301.594C825.28 293.77 824.438 297.611 824.071 295.902L820.692 290.596C818.702 291.407 817.457 291.215 814.577 293.226C811.482 288.076 805.69 286.565 800.751 283.901L797.561 290.118L795.305 300.067C793.321 294.155 787.959 295.092 780.461 295.039C777.856 298.329 774.427 301.47 774.164 305.18C771.332 307.181 768.188 309.08 770.707 312.831Z" fill="#740D04"/>
<path d="M820.692 290.596L824.071 295.902L834.784 301.594L831.859 312.831L839.835 325.264L840.899 332.676L846.519 331.906L851.031 337.485C849.767 340.513 849.439 343.646 852.159 347.122C857.006 349.769 865.769 342.939 873.403 338.838C883.108 341.177 880.989 338.696 878.667 336.133L875.847 326.665L879.607 316.86L881.111 309.083C878.437 296.097 871.693 298.972 866.259 296.741L869.079 291.67L867.387 281.188C861.788 276.081 856.999 269.179 848.023 268.846C844.075 267.937 840.126 269.101 836.178 267.156L830.35 267.325C832.582 265.609 832.367 262.949 831.102 259.886L826.59 254.476L820.574 253.124L818.318 252.785L808.166 248.559L801.585 251.602C801.585 251.602 803.53 260.781 803.906 261.626C804.282 262.471 804.03 274.256 804.03 274.256L800.751 283.901C803.938 287.521 806.559 291.344 814.577 293.226L820.692 290.596Z" fill="#53130F"/>
<path d="M727.7 282.878C732.642 278.553 736.059 281.771 740.108 281.864C744.657 283.893 746.201 285.921 748.38 287.95L755.9 281.526L764.173 282.202L766.993 287.781L766.429 294.036C770.266 293.237 774.63 293.148 780.462 295.039C776.455 300.81 773.428 304.794 770.707 312.831C767.667 312.308 767.794 312.821 759.806 310.679C745.531 329.785 744.679 319.677 734.392 318.866C724.014 326.972 725.892 330.968 725.508 336.74C712.014 334.906 709.226 331.956 704.012 329.708V323.115L713.036 315L716.42 305.533C716.73 307.158 715.403 301.029 716.608 298.601L724.316 293.022L727.7 282.878Z" fill="#7D0C10"/>
<path d="M695.332 362.451C706.049 364.536 707.669 364.043 709.289 371.647C708.359 375.017 707.15 378.346 703.259 381.272C699.024 384.513 688.725 387.257 675.058 389.725C671.591 397 665.462 409.86 668.29 403.927L656.645 407.511C650.546 407.257 648.594 403.275 648.137 397.947C644.769 403.808 641.402 406.111 638.034 405.598L631.121 405.12L628.462 395.078L621.549 385.036L617.827 374.994L621.549 369.256L636.438 363.996L630.057 354.911C628.031 351.563 629.717 348.216 631.121 344.869C635.907 341.663 640.692 342.757 645.478 343.913L651.328 342.956L655.05 332.436C661.302 329.191 663.606 330.678 665.685 332.436L676.32 340.565L684.297 331.48C688.318 326.399 695.027 323.734 704.011 323.115L706.099 342L716.202 344.391C719.061 347.608 722.006 350.787 720.722 355.867C707.594 358.479 709.625 362.932 695.332 362.451Z" fill="#B00811"/>
<path d="M643.85 428.948C634.509 429.257 627.627 428.811 624.297 431.822C619.352 434.725 615.717 438.613 613.769 441.966L606.625 447.883C605.95 452.721 604.896 457.49 606.625 462.76L594.969 461.746L581.432 465.127L576.92 469.185C578.496 473.242 578.97 477.3 584.816 481.357C583.823 486.68 582.974 492.055 584.44 498.263L593.841 501.307L606.249 495.22C606.525 498.793 608.923 501.889 611.137 505.026C618.204 506.534 623.486 506.438 628.057 505.702L639.076 510.822C644.767 509.03 647.933 506.48 649.114 503.335C652.508 499.784 652.373 494.646 652.912 489.81C651.719 483.498 642.481 481.789 636.33 478.314L638.806 474.059L657.386 475.609C654.463 475.716 661.926 480.394 664.906 475.609L667.162 462.084C667.361 457.521 669.086 452.958 664.09 448.395C660.723 445.283 656.76 444.317 652.391 444.809L641.224 448.634L635.582 451.276L643.085 437.397C646.415 433.862 644.179 431.628 643.85 428.948Z" fill="#880606"/>
<path d="M598.684 434.05C602.063 439.155 605.954 444.605 606.625 447.883C608.967 443.342 603.589 453.768 600.811 459.154C593.05 464.865 590.802 459.516 586.187 458.915C581.917 465.296 579.436 467.198 576.92 469.185C571.156 468.317 564.645 469.237 561.727 461.545L561.461 449.351L565.449 439.549L554.016 450.786C552.274 452.478 549.106 452.034 545.242 450.547L542.583 444.331L542.849 429.268L544.179 421.617L550.294 416.357L563.056 413.488L558.536 403.446C557.571 400.799 556.385 398.548 557.473 392.209L562.524 383.124L569.437 379.298L576.084 379.537L583.263 387.427L592.037 387.427L599.481 391.252L600.545 400.338C615.399 395.671 617.694 396.75 623.145 396.512C625.75 399.743 628.294 402.956 626.741 404.941C628.438 409.846 626.796 413.25 625.801 416.944L625.049 427.764L620.725 433.343C617.914 434.117 617.359 435.181 610.009 435.372L598.684 434.05Z" fill="#9C0109"/>
<path d="M546.087 475.947C547.911 471.866 554.198 469.351 560.397 466.805L570.501 471.108C579.682 474.525 581.751 477.941 584.816 481.357C586.172 486.993 586.61 492.628 584.44 498.263L593.841 501.306C599.992 506.367 601.837 510.837 599.481 514.623C597.388 521.567 593.613 523.975 590.176 527.295L585.922 529.925L575.552 529.207L572.628 536.141C568.386 536.671 564.305 537.54 558.004 533.75L551.889 528.968L541.254 528.251C532.462 524.247 530.004 520.875 527.428 517.492L527.96 513.188L538.861 509.363L525.833 506.972L520.25 497.647L514.932 496.452C511.115 492.786 511.752 489.12 511.21 485.454L516.261 477.564L532.48 474.217L546.087 475.947Z" fill="#5F0F03"/>
<path d="M488.182 420.664L508.487 420.833L515.255 424.383L519.015 431.653L526.911 426.581C530.358 426.126 533.805 424.305 537.251 429.286L537.063 436.894L537.439 443.318L540.071 450.081L543.267 459.21C543.414 462.479 544.465 465.747 543.267 469.016L538.003 473.242L532.48 474.217L516.262 477.564L511.21 485.454L500.402 486.429C495.335 485.286 493.126 482.001 491.002 478.652C489.127 475.44 488.805 472.228 490.438 469.016C488.809 466.48 483.206 464.083 485.55 461.408C482.952 458.027 481.694 454.645 481.602 451.264C481.562 447.175 488.976 448.33 493.07 447.545L483.858 436.049L483.294 427.088L488.182 420.664Z" fill="#7D0F01"/>
<path d="M511.741 393.644C515.102 402.865 514.106 407.385 514.134 413.01L508.487 420.833L488.182 420.664C484.859 417.156 481.996 413.648 483.558 410.141C484.294 406.601 485.054 403.107 486.483 400.816L482.761 395.078L481.431 383.363C481.009 379.27 481.518 375.345 484.622 371.886L489.939 361.606L494.194 361.367L500.575 369.974L504.563 372.604L503.233 364.714L503.765 357.302L501.106 352.52L499.777 346.543L503.499 338.653L514.4 332.676H520.25L528.492 343.196L531.682 347.978L529.024 354.911L520.25 360.888L516.527 365.192L527.162 362.084L536.734 360.41L542.849 360.649L545.508 371.886C542.285 373.381 540.703 375.86 533.544 374.995C531.178 379.302 529.321 383.686 531.151 388.623L530.619 400.338L526.365 402.968C522.083 405.249 519.787 403.959 517.591 402.49L511.741 393.644Z" fill="#5E0A04"/>
<path d="M530.619 400.338C529.643 403.791 527.076 407.965 536.123 413.563C547.695 414.115 555.684 407.827 558.536 403.447L557.473 392.209L562.524 383.124L576.084 379.537L583.263 387.427L592.037 387.427L602.489 379.92L605.121 364.366L602.113 352.87L592.337 350.841C587.588 353.855 579.549 354.897 578.8 360.309L579.928 348.136L569.4 344.079L560.752 346.108L556.24 354.223C551.398 354.154 546.7 354.927 542.849 360.649L545.508 371.886L533.544 374.995C530.472 379.128 529.218 383.589 531.151 388.623L530.619 400.338Z" fill="#770801"/>
<path d="M528.492 343.196L551.352 335.964L557.368 335.626C566.592 337.387 568.037 330.153 570.528 324.129C572.403 318.793 572.797 313.013 583.312 310.266C588.224 304.763 586.39 298.393 584.44 292.008L570.152 289.303C575.284 285.693 580.537 284.335 578.424 277.468C577.06 269.985 566.36 272.996 557.368 274.087L546.463 279.159L540.823 289.641L535.183 289.302C530.236 292.082 525.438 293.245 520.143 299.784C517.827 304.969 512.878 310.154 514.127 315.338C513.055 319.555 514.197 322.279 517.135 323.791L526.535 321.424L520.25 332.675L528.492 343.196Z" fill="#8D1A05"/>
<path d="M557.368 335.625C556.548 333.087 556.84 333.99 560.752 346.107L569.4 344.079C581.699 348.819 582.399 349.088 579.928 348.136L578.8 360.309L592.337 350.841C595.814 347.775 600.391 345.5 599.105 339.007L606.625 330.892C610.354 325.42 606.476 321.746 601.361 318.719C606.696 317.233 608.669 313.522 608.129 307.561L605.873 305.871C605.104 303.608 601.652 300.603 591.209 305.194L591.961 298.77C600.091 293.744 582.906 289.284 584.44 292.007L583.312 310.266C574.664 306.33 566.016 324.741 557.368 335.625Z" fill="#A10D15"/>
<path d="M592.337 350.841L602.113 352.87C603.176 356.486 604.385 359.576 605.121 364.366L602.489 379.92L621.549 385.036L617.827 374.994L621.549 369.256L636.438 363.996L630.057 354.911C629.885 356.542 627.882 350.989 631.121 344.869C631.782 344.823 632.949 341.431 645.478 343.913L651.328 342.956L655.05 332.436C651.462 331.804 648.076 330.748 643.474 332.245C641.882 327.761 640.012 323.235 640.466 319.058C640.791 313.964 642.95 309.693 646.106 305.871L650.994 296.404L649.866 290.656H633.698L628.809 299.109L608.129 307.562C608.927 316.316 604.576 316.581 601.361 318.72C604.823 322.528 609.571 325.344 606.625 330.892L599.105 339.007C600.281 344.614 595.427 347.301 592.337 350.841Z" fill="#7D0F19"/>
<path d="M660.77 298.094C653.723 297.634 652.772 299.002 649.866 299.784C647.347 304.286 644.944 307.841 642.722 309.928C639.663 312.892 639.878 317.328 639.714 321.593C639.871 324.947 638.601 328.043 643.474 332.245C647.173 332.667 650.432 334.08 655.05 332.436L662.838 331.906L676.32 340.565C687.175 330.696 693.169 324.584 704.012 323.115L713.036 315C714.203 311.949 716.144 310.989 716.42 305.533C716.386 306.877 716.545 300.923 716.608 298.601L724.316 293.022C723.25 295.624 724.734 292.001 726.948 286.598C720.058 285.632 712.463 285.936 704.575 286.767L700.251 280.004C696.627 278.129 692.741 276.385 681.263 278.483L675.623 283.386C672.296 282.93 668.472 282.028 667.162 283.386C662.858 283.064 661.216 287.227 663.026 286.091L660.206 293.529L660.77 298.094Z" fill="#9C020C"/>
<path d="M591.771 253.537C584.252 255.044 577.139 257.462 571.032 262.144C571.775 268.131 569.973 273.154 557.368 274.087C564.58 274.867 574.354 271.037 578.424 277.468C579.525 282.13 569.514 284.52 584.44 292.007C588.439 292.92 594.001 292.427 591.961 298.77L591.209 305.194C596.849 304.083 602.489 301.942 608.129 307.562C620.963 302.885 635.999 298.697 633.698 290.655C638.692 292.433 644.165 292.057 649.866 290.655L650.264 278.402C652.768 281.639 655.644 284.733 663.026 286.091C665.315 282.173 670.769 283.253 675.622 283.386C678.462 277.074 680.687 273.245 684.828 261.666H663.558L646.542 268.36L630.057 272.664C628.358 268.664 623.149 264.137 625.272 260.71C615.955 264.624 612.784 263.013 606.66 264.057C601.141 258.549 596.652 256.75 591.771 253.537Z" fill="#90140F"/>
<path d="M745.183 269.317C746.074 272.851 750.534 277.098 755.9 281.526L766.187 276.729L771.771 272.903L771.693 289.641L775.265 292.177L782.221 291.332L800.752 283.901C805.133 275.624 807.155 259.634 801.586 251.602L795.758 251.771L797.638 242.473L789.929 237.908C785.724 237.332 782.209 238 778.461 238.246L768.873 233.681L764.549 233.005C760.09 235.369 755.446 237.678 756.841 241.796L759.097 248.728C748.763 247.373 751.06 249.513 747.064 249.911L743.492 257.012C742.636 260.567 742.555 264.42 745.183 269.317Z" fill="#740A0A"/>
<path d="M693.071 227.953C691.656 223.809 690.26 219.665 692.273 215.52C693.677 214.097 696.635 212.907 701.047 211.934C707.679 211.469 709.284 215.525 712.746 217.911L729.762 222.454L735.611 226.04L746.512 221.258C751.269 221.329 755.626 221.997 757.413 226.518C760.814 228.68 763.637 230.842 764.549 233.004C761.45 235.463 756.604 237.748 757.679 240.625L759.097 248.727L747.065 249.91L743.492 257.011L745.183 269.316L743.853 276.249L733.75 279.238L722.317 276.847L714.873 271.348L703.307 275.771C700.249 276.994 697.192 276.687 694.134 273.858C692.483 270.83 691.854 267.801 693.204 264.773L696.926 257.72L684.828 261.665H663.558L666.786 252.277L671.486 245.683L671.674 239.428L676.375 236.216L676.751 231.651L682.579 226.749C689.606 223.976 689.66 227.473 693.071 227.953Z" fill="#6C0202"/>
<path d="M591.771 253.537L606.66 264.057C616.301 265.002 620.829 262.881 625.272 260.71C623.185 263.66 626.604 268.157 630.057 272.664C643.832 272.515 653.088 266.272 663.558 261.666C665.197 256.06 668.291 254.674 671.486 245.685L671.674 239.429L676.375 236.217L682.579 226.75C681.415 223.233 681.994 219.354 674.683 217.113L664.342 216.944L657.574 214.408L653.25 211.872C648.387 212.688 647.14 210.903 637.834 214.915L631.441 222.016C625.286 221.231 620.035 223.306 614.897 225.735C610.639 227.539 612.581 229.342 611.513 231.145L617.717 237.063C611.739 237.612 607.437 236.418 597.789 240.782C595.478 242.497 593.143 244.207 593.277 246.361L591.771 253.537Z" fill="#8B0711"/>
<path d="M756.652 557.435C757.789 575.356 758.495 593.276 763.045 611.197L769.437 623.369L744.62 607.139L722.812 598.686C715.569 598.566 710.059 602.344 706.332 604.12L697.619 616.945L697.995 624.384C698.193 620.736 701.858 618.334 705.515 615.931L712.751 615.814L722.151 619.295L731.661 617.621L742.235 611.634L755.524 618.974L767.181 627.089L793.877 652.786L803.278 666.649L805.534 643.657L806.286 621.002C805.531 614.088 803.135 606.19 800.27 598.01C791.017 581.905 785.462 577.441 778.837 569.608L766.429 554.73L765.677 562.845L756.652 557.435Z" fill="#0F371D"/>
<path d="M804.782 653.462L816.062 672.397L822.83 679.836C823.855 671.021 820.925 665.761 843.026 637.993L862.169 615.28C870.237 604.186 872.735 592.091 875.995 580.133L880.515 560.767L882.642 527.534L885.035 496.93L893.277 484.497C907.513 475.068 926.811 472.011 945.921 468.718C959.802 454.439 965.261 454.226 972.509 451.025L990.589 445.048L1005.74 446.482C1012.97 449.429 1019.91 452.884 1028.08 454.133L1054.65 457.952C1065.48 455.34 1078.43 454.63 1094.28 456.524C1111.53 458.678 1121.81 462.406 1132.3 466.088L1163.68 493.344C1121.17 473.574 1085.05 480.826 1044.48 514.961C1015 517.154 1012.77 516.284 1006.7 515.846C1005.61 516.389 998.772 516.024 968.346 529.709L907.808 548.982C887.418 550.691 889.925 562.694 886.376 571.974L875.847 608.492L867.575 622.693C860.822 628.963 855.297 633.85 851.407 639.261L841.255 659.21C833.609 665.071 834.29 670.932 831.102 676.793L831.854 687.613L842.383 700.462L845.015 716.015L847.271 725.145L849.903 697.418L851.407 683.894L855.543 680.512L866.447 680.851L879.607 690.318L886.376 700.8L878.103 699.447L873.591 695.052L858.551 695.39L854.415 700.462L851.407 721.426L850.279 731.231L838.998 735.627L834.862 725.483L819.822 708.915L808.918 689.98L803.278 666.649L804.782 653.462Z" fill="#0F371D"/>
<path d="M838.998 735.627L849.903 766.396L809.294 747.461L790.493 733.936L749.132 706.21L727.7 685.246L704.763 659.887L686.715 638.923L681.827 634.866L682.955 617.621C677.107 585.486 654.17 580.635 624.297 598.01C648.991 598.403 670.354 603.999 676.186 633.851L610.385 614.916C593.355 606.219 591.832 598.788 584.816 590.909C558.515 578.891 546.376 564.326 529.167 550.673C506.607 547.175 484.116 543.371 459.605 548.644C437.594 553.829 427.852 559.013 412.98 564.198C395.592 575.509 383.939 588.295 373.499 601.391C321.861 626.525 327.47 631.306 315.594 642.304C335.057 636.91 349.973 636.627 365.603 635.542C400.111 618.551 429.601 617.801 459.229 616.607L503.974 624.722L563.008 622.355L591.584 614.916L602.489 616.607L648.362 629.117L674.682 637.57L699.499 664.282L725.444 697.08L749.132 720.411L775.829 731.569L795.381 742.389L799.141 747.123L764.549 741.713L716.795 737.655L687.467 744.756C657.443 738.353 649.434 729.476 634.073 721.425C619.472 719.625 604.835 717.564 591.208 722.778C579.651 731.308 567.837 740.223 541.575 770.791L507.734 785.669L496.078 801.561L487.054 824.553C499.438 818.094 512.946 808.094 523.527 807.309C535.667 801.656 547.224 797.314 557.368 796.151L594.969 794.122L634.825 782.288L683.707 753.885L716.795 746.108L755.524 747.799L801.397 752.195L815.31 755.576L837.118 768.763L853.287 778.23L869.831 826.244L891.264 825.905L892.768 817.114L903.672 798.517L922.472 797.841C935 786.565 949.276 779.849 971.729 794.46C964.297 785.592 961.894 777.767 942.401 766.396L930.369 772.482L913.072 773.496L902.544 784.992L896.152 796.15L889.008 805.618L885.623 814.071L881.863 795.474L890.888 780.935L900.664 766.057L908.56 757.942L919.84 733.936L936.761 700.461C960.669 679.337 984.657 658.977 1013.47 684.57L1044.68 693.023L1074.38 693.699L1108.97 689.641C1125.11 688.774 1140.45 688.423 1142.81 696.404L1177.03 716.691C1168.99 694.534 1156.57 689.417 1145.82 677.807C1133.57 670.611 1126.09 662.555 1118.75 654.477C1080.39 651.077 1044.47 649.982 1012.34 634.527L976.242 641.966L954.433 668.678L925.104 711.281L906.68 741.036L890.136 765.043L876.223 795.812L864.943 780.597L855.543 750.842C852.799 744.083 849.208 737.133 850.279 731.231L838.998 735.627Z" fill="#0F371D"/>
</svg>
