<svg width="1416" height="762" viewBox="0 0 1416 762" fill="none" xmlns="http://www.w3.org/2000/svg">
<path d="M476.955 123.882C472.223 127.864 468.611 129.561 460.888 139.649C449.668 167.061 451.31 175.015 455.532 179.067C458.395 182.037 461.082 184.951 465.27 188.342C470.305 189.828 479.062 189.985 487.666 190.197C493.303 188.216 496.354 185.619 500.325 183.241L509.576 182.777C510.354 187.878 511.403 192.979 514.444 198.081C520.807 202.419 527.185 206.763 534.893 211.529C537.363 213.881 539.773 216.177 542.683 218.949L547.552 224.514L545.629 217.393L545.285 205.916L545.974 195.423L540.465 199.194C539.604 201.857 538.744 203.268 537.883 204.769L536.85 193.292L539.604 181.487L544.769 175.584L548.039 172.469L535.301 166.239L523.768 152.958L522.735 148.531L534.268 148.204L545.629 147.384L547.523 146.728C543.326 144.159 539.405 141.59 537.022 139.022L531.514 130.824L516.022 131.644C514.662 130.441 513.287 129.239 511.03 128.037L504.66 126.233L497.431 128.037H494.849L489.168 123.61L476.955 123.882Z" fill="#F9F6EA"/>
<path d="M555.586 236.339L547.552 224.514L545.629 217.393L545.285 205.916L545.974 195.423L540.465 199.194L537.883 204.769L536.85 193.292L539.605 181.487L548.039 172.469L535.301 166.239L523.768 152.958L522.735 148.531L545.629 147.384L547.523 146.728L537.023 139.022L531.514 130.824L536.354 129.911L530.309 115.74L537.195 122.954L546.834 126.725L552.171 127.053L543.908 117.215L537.883 108.198L536.506 95.9008L540.293 83.276L547.351 89.6704L556.991 96.3926L568.179 96.2288L572.655 93.1137C572.655 93.1137 568.696 86.5553 568.007 86.3913C567.319 86.2275 563.876 77.0459 563.876 77.0459L566.802 66.8805L574.768 54.3151L575.926 65.4049L581.951 72.947L590.557 75.0783L604.328 77.2098L603.296 69.3399L598.82 61.142L598.132 52.4523L599.164 38.352L602.263 27.8587L607.427 17.0376L616.206 6.05249L623.465 1.31162L634.654 0L646.502 0.478213L653.904 4.41317C656.132 7.03648 658.271 9.65978 659.757 12.2831C662.971 16.3462 663.29 18.5706 664.405 21.3007L665.782 27.695C667.132 33.281 666.096 35.0798 665.265 37.2046C663.927 41.0573 664.308 42.4524 664.405 44.2547L660.288 30.109L654.421 21.3007L647.879 14.7425L637.756 15.5941L630.527 18.2174L624.985 23.715L631.354 24.9084L626.534 29.1713L619.132 40.1563L615.345 49.1739L614.14 58.3556L615.517 63.4382L620.854 61.1428C625.202 58.0943 628.178 56.3527 628.772 56.8799L636.379 54.4799C641.631 54.8463 645.423 55.8574 650.634 56.5523L660.632 56.6122L673.184 53.9295L683.856 48.8469L692.119 43.6002L695.929 41.6856L697.025 39.7148L698.85 44.3521L698.242 51.1924L694.668 56.5367C694.668 56.5367 689.302 59.0355 689.832 61.2844C690.48 64.0368 694.793 61.7026 697.749 61.8698C701.236 62.0669 708.217 61.4062 708.217 61.4062L717.141 59.3196L725.386 55.7143L732.689 49.5698L740.019 43.0038L741.818 48.6423L742.305 57.2214C743.744 60.7829 742.072 63.3568 741.452 66.2644L737.923 72.409L730.254 78.5535L726.846 80.8722L729.889 82.0316L738.044 81.3359L744.496 77.3941L751.19 69.6265L752.773 66.3803L756.24 70.7356L757.704 79.9992L755.724 87.8691L754.003 93.1977L753.314 97.9525L755.121 100.822L761.658 100.117L771.517 95.9438L778.577 91.8861L786.854 85.0459L792.94 78.6694L794.455 88.8529L791.701 103.855L787.397 111.069L779.479 121.234L775.899 126.551L780.159 129.101L788.193 129.449H792.453L783.811 135.709L774.56 139.535L766.892 144.752L764.944 149.158L769.448 151.94L781.863 151.361L789.532 148.346L799.635 141.506L802.556 138.608L799.635 150.781L794.644 160.404L789.288 167.592L784.663 172.925L777.238 176.403L774.917 180.833L780.254 182.144L791.442 176.734L797.123 173.783L794.025 182.308L784.385 191.818L772.163 199.196L757.531 205.59L753.228 208.378L754.949 216.247L754.777 223.626L755.121 229.856L752.883 235.594L752.195 228.216L749.613 221.986L744.621 215.428L740.317 215.592L741.866 223.953L740.317 233.299L732.915 243.628L730.85 243.137L732.323 237.216L730.22 226.202L726.016 224.2L720.005 232.971L710.911 237.142L699.735 235.214L711.299 227.204L715.039 221.27L715.525 216.401L707.527 207.523C696.077 203.665 694.324 203.013 689.224 201.171L676.089 201.097L662.213 199.706L645.903 191.822L635.435 182.316L627.158 165.853L620.895 150.107L612.485 161.121L611.821 180.924L613.204 187.691L619.009 206.209L633.509 227.204L616.933 214.777L600.922 195.163L588.152 155.798L582.121 161.679L573.59 180.144L571.487 204.175L574.641 226.202L579.444 239.392C577.678 234.241 573.157 238.467 563.661 226.773C561.385 225.34 556.418 214.327 556.405 208.034C553.079 198.541 552.521 198.922 552.222 190.076C550.899 190.376 551.164 192.846 549.987 202.72L550.961 214.314L555.586 236.339Z" fill="#FC9448"/>
<path d="M552.064 190.141L549.829 202.786L550.803 214.379L555.428 236.405L547.395 224.579L551.312 233.762L551.711 245.919L553.107 258.836L555.899 275.171L557.893 293.027L561.283 315.251L564.873 337.665L566.468 344.883L552.708 358.18L528.976 354.381L523.392 359.889L524.189 374.515L524.788 383.063L519.204 390.851L505.643 392.371L492.879 393.13L492.48 408.516L494.674 423.332L497.865 435.489L501.455 441.568L484.703 452.015L479.119 456.574L484.104 468.161L493.876 480.887L505.044 495.324L516.611 505.391L519.004 507.48L512.623 519.447L507.238 528.945L506.44 537.492L516.611 542.811L532.565 548.889L554.104 554.588L578.235 559.337L582.821 559.716L588.206 547.18L592.992 536.352L608.348 537.112L624.502 537.302L643.886 540.341L662.593 543.95L665.285 550.789L671.168 557.057L675.157 558.197L687.721 554.967L689.293 557.057L691.709 560.476L686.524 568.074L693.504 570.163L712.45 569.784L738.176 569.974L749.543 566.365L762.107 559.716L776.267 550.789L780.056 547.37L780.854 540.341L777.064 528.564L775.868 520.967L777.862 514.128L784.443 509.38L796.409 502.351L803.588 497.033L809.771 491.524L817.349 482.597L822.534 472.719L808.175 454.104L799.799 443.087L808.175 428.651L813.759 414.215V408.136L791.423 397.119L776.267 392.18L769.885 362.168L767.492 357.989L740.37 364.068L736.381 351.911L731.994 345.073L739.173 327.597L746.751 310.502L775.868 298.345L801.794 287.328L822.534 277.071L838.887 276.691L855.24 277.451L867.206 271.752L869.998 271.373L877.576 277.451L886.351 274.412L891.137 273.652L892.733 280.87L893.531 285.809L900.311 286.949L906.693 286.569L912.676 293.027L924.243 277.071L935.012 265.674L946.18 254.657L956.949 253.138L952.162 243.64L940.995 236.042L925.838 231.863L902.305 214.008H888.345L853.246 219.706L818.944 218.187L799.799 210.969H789.429L785.44 216.287L768.289 211.729L753.07 208.443L754.963 229.922L752.725 235.66L749.455 222.052L740.159 215.657V233.365L730.692 243.203L726.909 239.282L706.936 249.295L694.102 266.054L681.707 278.331L656.61 288.088L642.812 290.346L623.248 301.044L612.327 278.331L592.353 264.314L579.286 239.458L563.503 226.839L552.064 190.141Z" fill="#F9F6EA"/>
<path d="M554.261 554.523L578.392 559.271L582.979 559.651L593.15 536.287L624.66 537.237L662.751 543.885L671.326 556.991L687.879 554.902L691.867 560.411L686.682 568.009L693.662 570.098C686.867 587.192 678.022 604.286 669.148 621.379C662.109 637.262 654.105 650.39 646.021 663.286L633.047 675.105L613.869 683.164L592.999 680.478L577.205 670.807L573.82 650.929C569.373 641.468 567.189 633.085 564.795 624.603L561.411 607.948C563.371 601.379 564.986 594.742 566.487 588.069C558.9 577.444 555.481 566.158 554.261 554.523V554.523Z" fill="#FEE3C5"/>
<path d="M460.888 139.649L456.776 149.665L453.674 161.216L451.699 169.812L452.828 176.259L455.366 179.214H431.675H404.882L392.472 180.557L379.781 187.542L371.32 196.944L363.141 202.585L351.295 207.689L336.63 207.151L333.809 204.734C332.273 199.625 329.523 197.965 327.04 195.6L325.912 185.392V176.796L327.322 171.155L332.963 164.976L337.758 157.992L344.809 157.186L357.782 156.918C364.918 156.938 364.934 156.808 369.063 156.112L391.344 153.157L407.984 150.471L431.111 144.292L452.546 140.8L460.888 139.649Z" fill="#FEE3C5"/>
<path d="M919.03 283.98L924.4 277.006L937.08 263.833L946.337 254.592L957.107 253.072L970.078 265.982L981.924 275.652L999.41 287.472L1020.56 298.486L1031.56 302.515L1044.82 311.649L1050.46 315.41L1051.87 326.423L1051.59 346.034L1048.2 349.526H1045.1L1039.18 354.63L1032.69 354.361L1027.05 359.465L1017.74 355.704H1006.18L996.872 349.795L995.18 340.124L982.206 338.512L977.412 331.259L975.719 311.918L963.31 302.516L941.875 293.382L919.03 283.98Z" fill="#FEE3C5"/>
<path d="M664.917 630.781C665.646 636.154 667.223 641.526 671.686 646.899L678.737 651.734L685.224 649.585C687.969 646.804 689.96 645.813 694.813 636.96L701.582 623.26L708.069 608.216L714.837 591.561L721.324 570.071L693.662 570.098L683.814 592.098L677.327 606.335L668.584 623.796L664.917 630.781Z" fill="#915548"/>
<path d="M656.768 646.268L662.751 670.202L668.335 693.756L672.722 711.611L675.913 725.668L675.115 739.724C673.471 745.618 671.89 751.532 667.138 756.439C663.268 759.815 659.708 761.42 656.369 761.758C652.564 762.456 648.337 761.55 644.004 760.238C639.289 756.85 636.764 753.114 635.229 749.221C631.928 744.19 632.981 740.817 632.039 736.685C630.451 730.86 630.953 725.034 630.842 719.209L629.646 704.013L626.056 688.057L625.258 680.08L633.047 675.105L646.021 663.286L656.768 646.268Z" fill="#915548"/>
<path d="M578.846 235.211L592.511 264.248L612.485 278.266L623.406 300.978L642.97 290.281C655.935 288.118 668.9 285.345 681.865 278.266C697.041 264.858 699.982 258.193 707.094 249.229L727.067 239.216L732.323 237.214L730.221 226.2L726.016 224.198C722.501 228.753 721.683 233.737 710.912 237.14L699.736 235.211L711.299 227.201C716.362 221.528 715.38 215.854 715.504 210.18L689.224 201.169C678.634 200.273 671.992 203.137 656.791 197.849C644.905 191.459 635.307 184.758 632.458 177.139L620.894 150.105L612.485 161.118C612.612 169.25 610.523 177.125 613.204 187.689L622.997 214.185L633.509 227.201C622.37 218.362 610.841 212.124 600.921 195.161L588.152 155.796C579.309 162.557 575.746 175.649 573.589 180.142L571.487 204.172L574.641 226.2L578.846 235.211Z" fill="#FEE3C5"/>
<path d="M1083.17 207.152L1068.51 213.061L1048.2 224.881L1035.23 232.403L1026.2 240.999L1016.61 252.281L1016.05 254.968C1010.97 255.505 1014.71 254.713 1004.61 255.25L997.435 255.505L992.359 263.564L981.923 275.653C991.316 282.529 1000.97 289.459 1020.56 298.486L1050.46 315.41L1051.87 326.424L1051.59 346.034L1047.48 349.649L1060.41 353.366L1061.61 340.069L1061.74 330.722L1059.48 323.469L1074.43 324.006L1091.35 323.2L1105.74 320.783L1116.74 319.708L1127.45 324.006L1137.89 333.14L1147.48 348.72L1146.35 351.675L1182.73 364.301L1188.37 354.899L1194.3 342.542L1202.47 322.932L1210.37 305.739L1218.83 285.861L1224.19 269.474L1228.7 256.311L1229.27 244.76C1231.88 243.263 1235.67 242.299 1239.85 238.804L1247.88 233.209L1255.21 218.972L1262.96 221.265L1274.11 223.001L1289.34 224.344L1302.6 226.762L1312.19 229.986L1325.16 231.597L1337.29 230.254L1340.11 223.001L1341.8 211.45L1338.98 205.809L1307.76 195.994L1289.43 189.043C1283.12 185.723 1276.14 185.181 1271.85 183.781C1268.95 183.672 1267.9 181.209 1260.22 182.406C1256.5 182.639 1254.85 184.188 1252.61 185.36L1251.83 185.931L1250.42 194.258L1248.73 184.856L1245.34 177.066L1241.4 176.797L1238.29 179.752L1238.01 190.229L1231.52 199.094L1234.06 187.543L1228.14 190.766L1225.88 200.168L1221.93 205.541L1219.11 217.898L1215.45 230.792L1206.44 244.728L1196.27 257.655L1184.71 265.983L1167.92 273.583L1158.48 283.712L1146.76 270.738L1135.4 260.101L1129.41 252.123C1123.37 246.623 1124.89 247.374 1121.83 244.715L1113.06 236.547L1104.48 225.53L1099.1 215.842L1090.52 214.133L1086.74 211.473L1085.14 208.244L1083.17 207.152Z" fill="#F9F6EA"/>
<path d="M946.105 293.65L963.31 302.515L975.719 311.918C975.087 308.672 968.683 283.268 982.206 338.512L995.18 340.124L1006.18 355.704L977.129 349.526L949.49 340.929C944.124 338.195 935.57 330.987 933.132 329.647C930.112 326.098 927.331 321.866 925.799 314.066L930.311 303.321L939.901 296.874L946.105 293.65Z" fill="#F9F6EA"/>
<path d="M1027.05 359.465L1032.69 354.361L1039.18 354.63L1044.88 349.526H1048.2L1060.41 353.365L1073.02 357.584L1086.56 358.122L1097.28 362.42L1111.1 366.181L1123.5 368.061L1119.51 363.381L1107.99 358.659L1096.71 348.451L1104.61 347.377L1128.3 356.511L1137.04 351.675L1140.91 349.526L1146.35 351.675L1182.73 364.301L1193.17 378.538L1200.5 403.252L1202.76 425.817L1199.37 439.786L1189.78 455.903L1183.01 487.602L1168.35 530.045C1159.32 551.36 1150.3 567.999 1141.27 577.861L1131.12 592.905L1127.74 611.172C1120.39 618.388 1113.29 624.471 1107.43 624.603C1108.32 632.21 1108.2 639.182 1104.61 643.944L1095.58 656.301L1085.99 665.435L1084.3 684.239L1083.17 691.761L1074.15 700.357L1063.43 705.192L1058.92 704.655C1051.49 700.761 1048.52 694.742 1047.07 688L1046.51 671.345L1053.28 661.137L1060.61 651.466L1064.56 642.333L1065.69 628.364L1067.38 623.528C1061.96 619.964 1056.76 617.618 1049.89 605.799L1044.25 586.995L1040.87 567.653C1036.87 561.564 1034.37 555.475 1031.84 549.387C1031.26 542.939 1032.75 536.492 1033.54 530.045L1036.36 526.284C1027.47 509.38 1025.39 502.197 1022.25 493.511C1020.69 489.618 1019.7 490.311 1013.79 468.797L1009.84 449.993L1010.97 431.726L1013.23 424.205L997.999 436.025L994.614 435.487L991.794 414.534C997.762 401.912 999.233 397.856 1002.51 390.357C1005.3 385.178 1008.59 379.762 1014.36 373.165C1031.34 354.834 1028.63 357.757 1027.05 359.465Z" fill="#F9F6EA"/>
<path d="M1029.78 514.251L1036.36 526.284L1033.54 530.045L1031.84 549.386L1040.87 567.653L1044.25 586.995L1049.89 605.799L1057.69 616.794L1067.38 623.528L1065.69 628.364L1064.56 642.332L1060.61 651.466L1049.32 646.797C1040.98 640.721 1036.01 634.644 1032.97 628.567C1027.46 623.942 1024.99 616.417 1022.6 608.818L1019.41 592.488C1017.54 586.375 1019.95 581.284 1022.21 576.157L1026.19 568.181C1025.66 563.371 1024.73 558.56 1024.2 553.749L1021.81 537.798C1021.71 532.843 1023.39 527.044 1025.4 521.088L1029.78 514.251Z" fill="#91534C"/>
<path d="M1047.07 688C1048.41 695.046 1051.5 701.084 1058.92 704.655C1081.27 700.67 1077.34 696.108 1083.17 691.761L1074.15 700.357L1070.07 723.379L1065.94 738.646C1060.87 745.197 1056.32 752.044 1045.34 755.221L1040.76 752.168L1033.89 736.465L1035.26 721.198C1036.4 715.964 1041.74 710.293 1043.96 705.059L1047.07 688Z" fill="#91534C"/>
<path d="M1338.98 205.809L1340.11 223.001L1337.29 230.254L1350.14 244.585L1367.59 251.359L1382.46 255.669H1387.63L1386.99 250.127L1379.23 240.89L1368.88 237.195L1380.52 234.116H1399.27L1412.2 237.195L1415.44 236.579L1414.14 232.884L1385.69 221.8L1355.31 212.563L1338.98 205.809Z" fill="#FEE3C5"/>
<path d="M1099.1 215.842C1101.64 221.926 1106.38 228.861 1113.06 236.547L1129.41 252.123L1146.76 270.738L1158.48 283.712L1167.91 273.583L1184.71 265.982L1196.27 257.655L1206.44 244.728L1215.45 230.792L1221.93 205.541L1225.88 200.168L1228.14 190.766L1228.52 173.778L1226.23 156.766L1221.19 172.469L1215.7 182.501L1212.49 172.469L1211.57 160.692L1209.28 155.894L1203.79 175.086L1199.67 179.448L1198.29 165.926L1191.88 170.724L1184.56 179.884L1175.85 171.16L1166.69 167.671L1154.79 173.778L1146.09 182.938L1138.76 185.991L1133.26 171.16L1125.02 182.065L1109.91 189.481L1101.66 185.119L1098.46 190.353L1100.75 198.64L1099.1 215.842Z" fill="#FFEAD1"/>
<path d="M1076.48 185.119L1079.23 175.523C1088.1 183.089 1094.02 189.715 1100.75 198.641C1100.76 193.513 1094.5 193.903 1101.67 185.119L1109.91 189.481L1125.02 182.065L1133.26 171.161L1138.76 185.991C1143.15 185.965 1148.47 182.021 1154.79 173.778L1166.7 167.671L1184.56 179.885L1198.29 165.926L1199.67 179.448C1204.44 179.617 1206.34 165.096 1209.29 155.894C1211.04 165.019 1212.24 174.515 1215.7 182.502C1220.93 175.806 1223.47 166.166 1226.23 156.766L1228.14 190.766L1234.06 187.543L1231.52 199.094L1238.01 190.229L1238.29 179.752L1245.34 177.066L1250.42 194.258L1252.61 185.361L1251.42 168.98L1257.83 162.437L1264.7 167.235L1256.45 152.841L1251.88 145.425L1255.08 139.319L1259.2 135.393L1248.67 119.254L1256.91 114.02L1251.88 110.094L1243.17 108.785L1225.31 96.5719L1201.96 88.2842L1178.6 74.7623L1148.84 73.4537L1136.93 75.6347L1133.26 73.4537L1125.02 78.2518L1122.27 85.2309L1106.25 86.9757L1091.13 97.0081L1070.98 111.839L1064.57 119.69L1062.74 124.052L1068.23 127.541L1070.52 132.34L1058.62 139.319L1054.5 147.606L1061.82 145.425L1065.49 149.787L1059.08 164.618L1065.49 165.054L1070.98 171.597L1076.48 185.119Z" fill="#F0F0E8"/>
<path d="M1100.75 198.641L1088.38 182.065L1079.23 175.523L1076.48 185.119L1083.17 207.152C1085.42 209.397 1084.17 210.214 1090.52 214.133L1099.1 215.842L1100.75 198.641Z" fill="#FFEAD1"/>
<path d="M1059.48 323.469L1061.74 330.722L1061.61 340.069L1060.41 353.366L1073.02 357.585L1086.56 358.122L1097.28 362.42L1111.1 366.181L1123.5 368.061C1123.26 365.375 1117.96 361.346 1107.99 358.659L1096.71 348.451L1104.61 347.377L1114.2 351.675L1128.3 357.048L1131.12 355.436C1132 354.835 1131.74 353.616 1137.04 352.212C1141.17 349.512 1138.64 348.913 1146.35 351.675C1152.06 353.165 1142.41 340.85 1137.89 333.14C1130.81 325.127 1123.76 321.002 1116.74 319.708L1091.35 323.201L1074.43 324.006L1059.48 323.469Z" fill="#FEE3C5"/>
<path d="M160.673 147.648L165.804 176.153L176.92 212.802L189.318 230.72L188.463 224.204L184.188 205.472L185.898 203.844L197.869 214.024C203.594 221.277 208.946 229.447 206.847 230.312L208.557 235.606L211.122 222.168L210.267 211.173C217.672 219.09 226.653 228.592 227.368 234.385L232.926 246.194L220.955 257.189L207.702 265.74L191.456 266.147L180.583 261.445L171.71 255.635L165.376 251.487L152.123 242.121L144.855 231.127C140.816 221.589 140.916 212.731 140.579 203.843L138.869 196.106C134.879 190.27 129.786 186.471 126.826 180.634L124.761 176.967L127.753 166.38L132.884 154.163L136.304 150.906L148.275 150.499L160.673 147.648Z" fill="#F9DFC1"/>
<path d="M160.674 147.648L165.804 176.153L176.92 212.802L189.318 230.72L184.188 205.472L185.898 203.843L197.869 214.024L208.557 235.606L211.122 222.168L210.267 211.173L224.139 226.184L232.927 246.194L237.912 268.378L245.73 249.585L250.197 231.148L252.431 213.065L253.547 210.937L263.226 225.12L264.715 243.203L269.182 234.339L278.117 238.239L270.299 230.793L266.949 226.184L265.088 219.092H273.277L281.467 221.574L267.321 210.937L265.088 193.563L264.715 184.699L270.672 180.799L277 181.508L280.723 189.663L288.168 162.716L294.869 144.987L295.613 140.733L283.701 154.915L281.095 127.613L279.978 100.666L281.839 93.9292C281.839 93.9292 274.766 99.2478 274.394 100.666C271.476 102.084 267.882 115.203 270.299 115.203L254.664 103.857L236.423 84.7105L228.234 68.7549L228.234 80.8102L230.839 88.2562L215.204 83.6468L198.453 65.2091L191.38 51.0263L188.774 48.8989L187.657 70.1731L191.752 85.065L192.496 86.8379L177.978 87.547L154.526 84.3559L140.38 77.2645L128.84 66.2728L122.883 52.7992L120.65 82.2285L124.745 95.7021L133.307 108.112L115.438 105.63L107.248 108.467L120.277 112.367L125.117 117.331L108.365 124.777L87.8907 123.713L72.6279 119.458L69.2775 118.04L83.0512 133.996L99.0585 143.924H107.621L103.526 153.497L93.1023 163.07L88.6352 163.425C98.5518 165.313 101.939 165.127 106.132 165.198L96.825 176.898L93.1023 185.763L92.3578 196.4L93.1023 198.527L97.5695 183.99L104.27 173.707L112.46 165.198L113.205 185.763L113.949 207.391L118.044 221.929L124 231.502L121.394 217.319L126.234 206.682C130.804 203.214 137.583 200.096 138.869 196.106L127.347 177.994L133.307 155.81L137.264 150.498H148.275L160.674 147.648Z" fill="#1C2F35"/>
<path d="M172.107 255.969L182.686 262.296L191.456 266.147L207.702 265.74L220.956 257.188L232.926 246.194L237.912 268.378L245.73 249.585L250.197 231.148L252.431 213.065L253.547 210.937L263.226 225.12L264.715 243.203L269.182 234.339L278.117 238.239L284.047 238.394L295.61 233.707L306.927 235.347L322.18 241.909L334.481 251.985L342.108 256.437L347.858 258.233L358.644 257.405L370.647 266.021L382.477 271.82L394.828 271.158H405.44L412.572 273.809L421.081 279.636L429.2 286.431H444.699L455.524 287.134L466.595 292.524L472.499 297.679L478.404 306.115L483.816 309.864L486.031 315.02L485.047 322.518L478.404 328.376L467.333 333.766L456.262 337.281L441.009 343.373L428.462 348.997L418.375 356.027H405.335L400.415 355.324H393.772L390.328 357.199L383.932 360.245L378.519 361.182L372.861 360.011L373.353 358.605L376.305 355.09L376.797 345.951L373.353 337.749L368.432 331.891L364.496 328.376H360.806L360.314 327.205L369.17 325.33L376.551 324.393L371.138 321.815L370.154 315.957L371.877 313.379L372.615 310.567L352.441 311.505L340.386 316.426L336.941 317.597L332.021 315.254L328.331 312.911L321.442 315.722L315.292 316.66L306.927 317.363L301.022 322.049L295.856 328.611L293.15 333.532L298.626 334.785L306.28 333.459L311.151 336.442L317.066 337.436L320.546 338.762L311.151 341.081L302.801 343.732L295.147 346.715L292.711 352.68C292.711 352.68 290.972 353.011 292.711 352.68C294.451 352.348 305.237 353.012 305.237 353.012H316.718L324.721 354.006L337.942 355L349.423 354.668L349.771 370.575L354.642 385.819L360.557 405.04L371.343 431.551L378.301 456.737L381.085 475.626L383.52 488.55L379.693 494.184L373.083 488.882V475.958L369.951 480.597L368.907 505.12L367.864 522.352L361.601 532.957L350.467 543.561L335.506 551.183L319.502 555.16L324.721 564.108L326.808 574.049L332.723 583.991L332.027 595.259L341.073 601.886L343.161 611.165L341.073 617.793L335.158 628.066L329.592 632.043L326.112 644.967L316.37 652.921L305.237 653.583L288.536 645.961L283.317 636.02L282.621 625.746L275.315 614.81L257.571 603.212L240.522 581.009L226.953 571.73L217.211 567.753L220.342 576.038L221.734 581.671L219.995 584.985L227.649 589.293L232.868 594.927L234.26 606.526L231.824 618.124L227.649 629.392L220.69 640.99L212.34 649.938L206.773 649.275L202.946 642.979L199.467 642.316L191.117 650.27L177.895 654.909L168.849 661.537L151.105 676.118L140.319 687.385L119.444 690.037L87.7821 695.339L76.9964 693.682L62.7314 684.403L56.4687 667.17L55.7728 649.275L59.2521 633.369L72.8213 607.851L86.0425 587.636L104.135 565.433L121.531 545.55L138.232 530.306L135.448 494.515L136.492 475.958L143.103 464.69L156.672 454.749L167.11 445.801L175.808 439.173L190.769 429.231L186.594 421.278L186.941 413.325L189.377 407.359L194.596 404.708L190.421 392.778L184.854 379.523L180.331 368.587L177.895 365.604L158.064 389.133L141.711 413.656L130.925 431.22L101.003 462.039L80.8236 482.585L69.6899 490.539L55.077 486.231L45.335 478.94L46.7267 462.702L52.6415 456.405L55.4249 454.417L52.6415 446.464L62.3835 438.179L68.2982 430.888L74.5609 419.29L78.0402 413.987L80.8236 399.406L88.1301 388.139L97.8721 380.848L106.222 354.337L112.833 342.738L120.487 337.105L127.794 314.57L133.361 302.308L136.492 294.024L137.188 289.384L139.971 286.733L137.188 276.128L146.582 273.809L160.499 265.193L172.107 255.969Z" fill="#F9F6EA"/>
<path d="M45.335 478.94L55.077 486.23L69.6899 490.538L62.2207 509.019L53.7587 521.378C49.6575 522.427 44.6666 528.561 41.9119 521.915L48.6815 507.945L49.2456 503.646L38.5271 500.96L30.0651 504.184C28.1846 507.581 26.3042 512.998 24.4238 513.855C26.5494 520.074 -2.44129 518.124 0.16606 513.855L13.1411 506.333L21.6031 495.586L23.8596 489.676L45.335 478.94Z" fill="#F9DFC1"/>
<path d="M227.649 589.293L238.512 586.796L244.577 586.528L252.616 597.274L257.571 603.212L260.796 605.066L255.577 610.439L256.282 620.917L264.603 631.932L271.091 643.618L272.783 656.648C273.421 662.284 274.244 668.133 273.065 671.693C274.344 678.32 273.264 684.947 272.783 691.574L268.693 697.754C263.465 696.753 262.595 693.907 260.513 691.574C257.807 686.828 256.525 682.082 254.872 677.335C251.276 672.582 249.091 667.917 246.551 662.828L235.127 650.335C233.987 647.34 230.24 644.723 229.768 636.633L223.281 635.962L227.649 629.392L231.824 618.124L234.26 606.526L232.868 594.927L227.649 589.293Z" fill="#8F5348"/>
<path d="M295.245 649.076L293.528 658.892L295 676.42L296.227 693.949L303.588 705.869L312.912 715.451L320.274 716.386L325.917 714.282L333.033 703.531L340.395 688.807L342.603 678.524L340.885 665.202L338.432 644.168L339.904 626.172L339.144 621.412L338.884 621.329L335.158 628.066L329.592 632.043L326.112 644.967L316.37 652.92L305.237 653.583L295.245 649.076Z" fill="#8F5348"/>
<path d="M264.715 184.699L270.671 180.799L277 181.508L280.722 189.663C280.511 194.183 280.05 198.466 278.637 201.841C276.618 206.727 274.599 210.113 272.58 213.091L271.672 214.1L267.321 210.937L265.087 193.563L264.715 184.699Z" fill="#F5DFBD"/>
<path d="M280.723 189.663L288.328 191.025L298.17 190.16L288.328 196.073L278.031 203.861L280.151 196.65L280.723 189.663Z" fill="#1C2F35"/>
<path d="M293.15 333.532L295.404 329.05L301.022 322.05C306.314 315.293 310.691 317.011 315.291 316.66L328.331 312.911L336.941 317.597L350.509 322.04L360.806 327.994C366.943 329.568 370.993 332.797 373.353 337.367C378.058 344.082 377.164 349.772 376.305 355.09L372.861 360.011L349.423 354.668L338.723 355.09L325.675 354.668L316.718 353.011C325.539 353.28 291.102 352.926 292.711 352.68C292.494 346.453 297.461 344.923 302.801 343.732L311.062 341.198L320.545 338.761C314.903 337.538 308.87 336.556 306.28 333.459L298.536 334.86L293.15 333.532Z" fill="#F9DFC1"/>
</svg>
