<svg width="1416" height="819" viewBox="0 0 1416 819" fill="none" xmlns="http://www.w3.org/2000/svg">
<path d="M476.955 180.882C472.223 184.864 468.611 186.561 460.888 196.649C449.668 224.061 451.31 232.015 455.532 236.067C458.395 239.037 461.082 241.951 465.27 245.342C470.305 246.828 479.062 246.985 487.666 247.197C493.303 245.216 496.354 242.619 500.325 240.241L509.576 239.777C510.354 244.878 511.403 249.979 514.444 255.081C520.807 259.419 527.185 263.763 534.893 268.529C537.363 270.881 539.773 273.177 542.683 275.949L547.552 281.514L545.629 274.393L545.285 262.916L545.974 252.423L540.465 256.194C539.604 258.857 538.744 260.268 537.883 261.769L536.85 250.292L539.604 238.487L544.769 232.584L548.039 229.469L535.301 223.239L523.768 209.958L522.735 205.531L534.268 205.204L545.629 204.384L547.523 203.728C543.326 201.159 539.405 198.59 537.022 196.022L531.514 187.824L516.022 188.644C514.662 187.441 513.287 186.239 511.03 185.037L504.66 183.233L497.431 185.037H494.849L489.168 180.61L476.955 180.882Z" fill="#F9F6EA"/>
<path d="M555.586 293.339L547.552 281.514L545.629 274.393L545.285 262.916L545.974 252.423L540.465 256.194L537.883 261.769L536.85 250.292L539.605 238.487L548.039 229.469L535.301 223.239L523.768 209.958L522.735 205.531L545.629 204.384L547.523 203.728L537.023 196.022L531.514 187.824L536.354 186.911L530.309 172.74L537.195 179.954L546.834 183.725L552.171 184.053L543.908 174.215L537.883 165.198L536.506 152.901L540.293 140.276L547.351 146.67L556.991 153.393L568.179 153.229L572.655 150.114C572.655 150.114 568.696 143.555 568.007 143.391C567.319 143.227 563.876 134.046 563.876 134.046L566.802 123.88L574.768 111.315L575.926 122.405L581.951 129.947L590.557 132.078L604.328 134.21L603.296 126.34L598.82 118.142L598.132 109.452L599.164 95.352L602.263 84.8587L607.427 74.0376L616.206 63.0525L623.465 58.3116L634.654 57L646.502 57.4782L653.904 61.4132C656.132 64.0365 658.271 66.6598 659.757 69.2831C662.971 73.3462 663.29 75.5706 664.405 78.3007L665.782 84.695C667.132 90.281 666.096 92.0798 665.265 94.2046C663.927 98.0573 664.308 99.4524 664.405 101.255L660.288 87.109L654.421 78.3007L647.879 71.7425L637.756 72.5941L630.527 75.2174L624.985 80.715L631.354 81.9084L626.534 86.1713L619.132 97.1563L615.345 106.174L614.14 115.356L615.517 120.438L620.854 118.143C625.202 115.094 628.178 113.353 628.772 113.88L636.379 111.48C641.631 111.846 645.423 112.857 650.634 113.552L660.632 113.612L673.184 110.93L683.856 105.847L692.119 100.6L695.929 98.6856L697.025 96.7148L698.85 101.352L698.242 108.192L694.668 113.537C694.668 113.537 689.302 116.036 689.832 118.284C690.48 121.037 694.793 118.703 697.749 118.87C701.236 119.067 708.217 118.406 708.217 118.406L717.141 116.32L725.386 112.714L732.689 106.57L740.019 100.004L741.818 105.642L742.305 114.221C743.744 117.783 742.072 120.357 741.452 123.264L737.923 129.409L730.254 135.554L726.846 137.872L729.889 139.032L738.044 138.336L744.496 134.394L751.19 126.626L752.773 123.38L756.24 127.736L757.704 136.999L755.724 144.869L754.003 150.198L753.314 154.952L755.121 157.822L761.658 157.117L771.517 152.944L778.577 148.886L786.854 142.046L792.94 135.669L794.455 145.853L791.701 160.855L787.397 168.069L779.479 178.234L775.899 183.551L780.159 186.101L788.193 186.449H792.453L783.811 192.709L774.56 196.535L766.892 201.752L764.944 206.158L769.448 208.94L781.863 208.361L789.532 205.346L799.635 198.506L802.556 195.608L799.635 207.781L794.644 217.404L789.288 224.592L784.663 229.925L777.238 233.403L774.917 237.833L780.254 239.144L791.442 233.734L797.123 230.783L794.025 239.308L784.385 248.818L772.163 256.196L757.531 262.59L753.228 265.378L754.949 273.247L754.777 280.626L755.121 286.856L752.883 292.594L752.195 285.216L749.613 278.986L744.621 272.428L740.317 272.592L741.866 280.953L740.317 290.299L732.915 300.628L730.85 300.137L732.323 294.216L730.22 283.202L726.016 281.2L720.005 289.971L710.911 294.142L699.735 292.214L711.299 284.204L715.039 278.27L715.525 273.401L707.527 264.523C696.077 260.665 694.324 260.013 689.224 258.171L676.089 258.097L662.213 256.706L645.903 248.822L635.435 239.316L627.158 222.853L620.895 207.107L612.485 218.121L611.821 237.924L613.204 244.691L619.009 263.209L633.509 284.204L616.933 271.777L600.922 252.163L588.152 212.798L582.121 218.679L573.59 237.144L571.487 261.175L574.641 283.202L579.444 296.392C577.678 291.241 573.157 295.467 563.661 283.773C561.385 282.34 556.418 271.327 556.405 265.034C553.079 255.541 552.521 255.922 552.222 247.076C550.899 247.376 551.164 249.846 549.987 259.72L550.961 271.314L555.586 293.339Z" fill="#FC9448"/>
<path d="M552.064 247.141L549.829 259.786L550.803 271.379L555.428 293.405L547.395 281.579L551.312 290.762L551.711 302.919L553.107 315.836L555.899 332.171L557.893 350.027L561.283 372.251L564.873 394.665L566.468 401.883L552.708 415.18L528.976 411.381L523.392 416.889L524.189 431.515L524.788 440.063L519.204 447.851L505.643 449.371L492.879 450.13L492.48 465.516L494.674 480.332L497.865 492.489L501.455 498.568L484.703 509.015L479.119 513.574L484.104 525.161L493.876 537.887L505.044 552.324L516.611 562.391L519.004 564.48L512.623 576.447L507.238 585.945L506.44 594.492L516.611 599.811L532.565 605.889L554.104 611.588L578.235 616.337L582.821 616.716L588.206 604.18L592.992 593.352L608.348 594.112L624.502 594.302L643.886 597.341L662.593 600.95L665.285 607.789L671.168 614.057L675.157 615.197L687.721 611.967L689.293 614.057L691.709 617.476L686.524 625.074L693.504 627.163L712.45 626.784L738.176 626.974L749.543 623.365L762.107 616.716L776.267 607.789L780.056 604.37L780.854 597.341L777.064 585.564L775.868 577.967L777.862 571.128L784.443 566.38L796.409 559.351L803.588 554.033L809.771 548.524L817.349 539.597L822.534 529.719L808.175 511.104L799.799 500.087L808.175 485.651L813.759 471.215V465.136L791.423 454.119L776.267 449.18L769.885 419.168L767.492 414.989L740.37 421.068L736.381 408.911L731.994 402.073L739.173 384.597L746.751 367.502L775.868 355.345L801.793 344.328L822.534 334.071L838.887 333.691L855.24 334.451L867.206 328.752L869.998 328.373L877.576 334.451L886.351 331.412L891.137 330.652L892.733 337.87L893.531 342.809L900.311 343.949L906.693 343.569L912.676 350.027L924.243 334.071L935.012 322.674L946.18 311.657L956.949 310.138L952.162 300.64L940.995 293.042L925.838 288.863L902.305 271.008H888.345L853.246 276.706L818.944 275.187L799.799 267.969H789.429L785.44 273.287L768.289 268.729L753.07 265.443L754.963 286.922L752.725 292.66L749.454 279.052L740.159 272.657V290.365L730.692 300.203L726.909 296.282L706.936 306.295L694.102 323.054L681.707 335.331L656.61 345.088L642.812 347.346L623.248 358.044L612.327 335.331L592.353 321.314L579.286 296.458L563.503 283.839L552.064 247.141Z" fill="#F9F6EA"/>
<path d="M554.261 611.523L578.392 616.271L582.979 616.651L593.15 593.287L624.66 594.237L662.751 600.885L671.326 613.991L687.879 611.902L691.867 617.411L686.682 625.009L693.662 627.098C686.867 644.192 678.022 661.286 669.148 678.379C662.109 694.262 654.105 707.39 646.021 720.286L633.047 732.105L613.869 740.164L592.999 737.478L577.205 727.807L573.82 707.929C569.373 698.468 567.189 690.085 564.795 681.603L561.411 664.948C563.371 658.379 564.986 651.742 566.487 645.069C558.9 634.444 555.481 623.158 554.261 611.523Z" fill="#FEE3C5"/>
<path d="M460.888 196.649L456.776 206.665L453.674 218.216L451.699 226.812L452.828 233.259L455.366 236.214H431.675H404.882L392.472 237.557L379.781 244.542L371.32 253.944L363.141 259.585L351.295 264.689L336.63 264.151L333.809 261.734C332.273 256.625 329.523 254.965 327.04 252.6L325.912 242.392V233.796L327.322 228.155L332.963 221.976L337.758 214.992L344.809 214.186L357.782 213.918C364.918 213.938 364.934 213.808 369.063 213.112L391.344 210.157L407.984 207.471L431.111 201.292L452.546 197.8L460.888 196.649Z" fill="#FEE3C5"/>
<path d="M919.03 340.98L924.4 334.006L937.08 320.833L946.337 311.592L957.107 310.072L970.078 322.982L981.924 332.652L999.41 344.472L1020.56 355.486L1031.56 359.515L1044.82 368.649L1050.46 372.41L1051.87 383.423L1051.59 403.034L1048.2 406.526H1045.1L1039.18 411.63L1032.69 411.361L1027.05 416.465L1017.74 412.704H1006.18L996.872 406.795L995.18 397.124L982.206 395.512L977.412 388.259L975.719 368.918L963.31 359.516L941.875 350.382L919.03 340.98Z" fill="#FEE3C5"/>
<path d="M664.917 687.781C665.646 693.154 667.223 698.526 671.686 703.899L678.737 708.734L685.224 706.585C687.969 703.804 689.96 702.813 694.813 693.96L701.582 680.26L708.069 665.216L714.837 648.561L721.324 627.071L693.662 627.098L683.814 649.098L677.327 663.335L668.584 680.796L664.917 687.781Z" fill="#915548"/>
<path d="M656.768 703.268L662.751 727.202L668.335 750.756L672.722 768.611L675.913 782.668L675.115 796.724C673.471 802.618 671.89 808.532 667.138 813.439C663.268 816.815 659.708 818.42 656.369 818.758C652.564 819.456 648.337 818.55 644.004 817.238C639.289 813.85 636.764 810.114 635.229 806.221C631.928 801.19 632.981 797.817 632.039 793.685C630.451 787.86 630.953 782.034 630.842 776.209L629.646 761.013L626.056 745.057L625.258 737.08L633.047 732.105L646.021 720.286L656.768 703.268Z" fill="#915548"/>
<path d="M578.846 292.211L592.511 321.248L612.485 335.266L623.406 357.978L642.97 347.281C655.935 345.118 668.9 342.345 681.865 335.266C697.041 321.858 699.982 315.193 707.094 306.229L727.067 296.216L732.323 294.214L730.221 283.2L726.016 281.198C722.501 285.753 721.683 290.737 710.912 294.14L699.736 292.211L711.299 284.201C716.362 278.528 715.38 272.854 715.504 267.18L689.224 258.169C678.634 257.273 671.992 260.137 656.791 254.849C644.905 248.459 635.307 241.758 632.458 234.139L620.894 207.105L612.485 218.118C612.612 226.25 610.523 234.125 613.204 244.689L622.997 271.185L633.509 284.201C622.37 275.362 610.841 269.124 600.921 252.161L588.152 212.796C579.309 219.557 575.746 232.649 573.589 237.142L571.487 261.172L574.641 283.2L578.846 292.211Z" fill="#FEE3C5"/>
<path d="M1083.17 264.152L1068.51 270.061L1048.2 281.881L1035.23 289.403L1026.2 297.999L1016.61 309.282L1016.05 311.968C1010.97 312.505 1014.71 311.713 1004.61 312.25L997.435 312.505L992.359 320.564L981.923 332.653C991.316 339.529 1000.97 346.459 1020.56 355.486L1050.46 372.41L1051.87 383.424L1051.59 403.034L1047.48 406.649L1060.41 410.366L1061.61 397.069L1061.74 387.722L1059.48 380.469L1074.43 381.006L1091.35 380.2L1105.74 377.783L1116.74 376.708L1127.45 381.006L1137.89 390.14L1147.48 405.72L1146.35 408.675L1182.73 421.301L1188.37 411.899L1194.3 399.542L1202.47 379.932L1210.37 362.739L1218.83 342.861L1224.19 326.474L1228.7 313.311L1229.27 301.76C1231.88 300.263 1235.67 299.299 1239.85 295.804L1247.88 290.209L1255.21 275.972L1262.96 278.265L1274.11 280.001L1289.34 281.344L1302.6 283.762L1312.19 286.986L1325.16 288.597L1337.29 287.254L1340.11 280.001L1341.8 268.45L1338.98 262.809L1307.76 252.994L1289.43 246.043C1283.12 242.723 1276.14 242.181 1271.85 240.781C1268.95 240.672 1267.9 238.209 1260.22 239.406C1256.5 239.639 1254.85 241.188 1252.61 242.36L1251.83 242.931L1250.42 251.258L1248.73 241.856L1245.34 234.066L1241.4 233.797L1238.29 236.752L1238.01 247.229L1231.52 256.094L1234.06 244.543L1228.14 247.766L1225.88 257.168L1221.93 262.541L1219.11 274.898L1215.45 287.792L1206.44 301.728L1196.27 314.655L1184.71 322.983L1167.92 330.583L1158.48 340.712L1146.76 327.738L1135.4 317.101L1129.41 309.123C1123.37 303.623 1124.89 304.374 1121.83 301.715L1113.06 293.547L1104.48 282.53L1099.1 272.842L1090.52 271.133L1086.74 268.473L1085.14 265.244L1083.17 264.152Z" fill="#F9F6EA"/>
<path d="M946.105 350.65L963.31 359.515L975.719 368.918C975.087 365.672 968.683 340.268 982.206 395.512L995.18 397.124L1006.18 412.704L977.129 406.526L949.49 397.929C944.124 395.195 935.57 387.987 933.132 386.647C930.112 383.098 927.331 378.866 925.799 371.066L930.311 360.321L939.901 353.874L946.105 350.65Z" fill="#F9F6EA"/>
<path d="M1027.05 416.465L1032.69 411.361L1039.18 411.63L1044.88 406.526H1048.2L1060.41 410.365L1073.02 414.584L1086.56 415.122L1097.28 419.42L1111.1 423.181L1123.5 425.061L1119.51 420.381L1107.99 415.659L1096.71 405.451L1104.61 404.377L1128.3 413.511L1137.04 408.675L1140.91 406.526L1146.35 408.675L1182.73 421.301L1193.17 435.538L1200.5 460.252L1202.76 482.817L1199.37 496.785L1189.78 512.903L1183.01 544.602L1168.35 587.045C1159.32 608.36 1150.3 624.999 1141.27 634.861L1131.12 649.905L1127.74 668.172C1120.39 675.388 1113.29 681.471 1107.43 681.603C1108.32 689.21 1108.2 696.182 1104.61 700.944L1095.58 713.301L1085.99 722.435L1084.3 741.239L1083.17 748.761L1074.15 757.357L1063.43 762.192L1058.92 761.655C1051.49 757.761 1048.52 751.742 1047.07 745L1046.51 728.345L1053.28 718.137L1060.61 708.466L1064.56 699.333L1065.69 685.364L1067.38 680.528C1061.96 676.964 1056.76 674.618 1049.89 662.799L1044.25 643.995L1040.87 624.653C1036.87 618.564 1034.37 612.475 1031.84 606.387C1031.26 599.939 1032.75 593.492 1033.54 587.045L1036.36 583.284C1027.47 566.38 1025.39 559.197 1022.25 550.511C1020.69 546.618 1019.7 547.311 1013.79 525.797L1009.84 506.993L1010.97 488.726L1013.23 481.205L997.999 493.025L994.614 492.487L991.794 471.534C997.762 458.912 999.233 454.856 1002.51 447.357C1005.3 442.178 1008.59 436.762 1014.36 430.165C1031.34 411.834 1028.63 414.757 1027.05 416.465Z" fill="#F9F6EA"/>
<path d="M1029.78 571.251L1036.36 583.284L1033.54 587.045L1031.84 606.386L1040.87 624.653L1044.25 643.995L1049.89 662.799L1057.69 673.794L1067.38 680.528L1065.69 685.364L1064.56 699.332L1060.61 708.466L1049.32 703.797C1040.98 697.721 1036.01 691.644 1032.97 685.567C1027.46 680.942 1024.99 673.417 1022.6 665.818L1019.41 649.488C1017.54 643.375 1019.95 638.284 1022.21 633.157L1026.19 625.181C1025.66 620.371 1024.73 615.56 1024.2 610.749L1021.81 594.798C1021.71 589.843 1023.39 584.044 1025.4 578.088L1029.78 571.251Z" fill="#91534C"/>
<path d="M1047.07 745C1048.41 752.046 1051.5 758.084 1058.92 761.655C1081.27 757.67 1077.34 753.108 1083.17 748.761L1074.15 757.357L1070.07 780.379L1065.94 795.646C1060.87 802.197 1056.32 809.044 1045.34 812.221L1040.76 809.168L1033.89 793.465L1035.26 778.198C1036.4 772.964 1041.74 767.293 1043.96 762.059L1047.07 745Z" fill="#91534C"/>
<path d="M1338.98 262.809L1340.11 280.001L1337.29 287.254L1350.14 301.585L1367.59 308.359L1382.46 312.669H1387.63L1386.99 307.127L1379.23 297.89L1368.88 294.195L1380.52 291.116H1399.27L1412.2 294.195L1415.44 293.579L1414.14 289.884L1385.69 278.8L1355.31 269.563L1338.98 262.809Z" fill="#FEE3C5"/>
<path d="M1099.1 272.842C1101.64 278.926 1106.38 285.861 1113.06 293.547L1129.41 309.123L1146.76 327.738L1158.48 340.712L1167.91 330.583L1184.71 322.982L1196.27 314.655L1206.44 301.728L1215.45 287.792L1221.93 262.541L1225.88 257.168L1228.14 247.766L1228.52 230.778L1226.23 213.766L1221.19 229.469L1215.7 239.501L1212.49 229.469L1211.57 217.692L1209.28 212.894L1203.79 232.086L1199.67 236.448L1198.29 222.926L1191.88 227.724L1184.56 236.884L1175.85 228.16L1166.69 224.671L1154.79 230.778L1146.09 239.938L1138.76 242.991L1133.26 228.16L1125.02 239.065L1109.91 246.481L1101.66 242.119L1098.46 247.353L1100.75 255.64L1099.1 272.842Z" fill="#FFEAD1"/>
<path d="M1076.48 242.119L1079.23 232.523C1088.1 240.089 1094.02 246.715 1100.75 255.641C1100.76 250.513 1094.5 250.903 1101.67 242.119L1109.91 246.481L1125.02 239.065L1133.26 228.161L1138.76 242.991C1143.15 242.965 1148.47 239.021 1154.79 230.778L1166.7 224.671L1184.56 236.885L1198.29 222.926L1199.67 236.448C1204.44 236.617 1206.34 222.096 1209.29 212.894C1211.04 222.019 1212.24 231.515 1215.7 239.502C1220.93 232.806 1223.47 223.166 1226.23 213.766L1228.14 247.766L1234.06 244.543L1231.52 256.094L1238.01 247.229L1238.29 236.752L1245.34 234.066L1250.42 251.258L1252.61 242.361L1251.42 225.98L1257.83 219.437L1264.7 224.235L1256.45 209.841L1251.88 202.425L1255.08 196.319L1259.2 192.393L1248.67 176.254L1256.91 171.02L1251.88 167.094L1243.17 165.785L1225.31 153.572L1201.96 145.284L1178.6 131.762L1148.84 130.454L1136.93 132.635L1133.26 130.454L1125.02 135.252L1122.27 142.231L1106.25 143.976L1091.13 154.008L1070.98 168.839L1064.57 176.69L1062.74 181.052L1068.23 184.541L1070.52 189.34L1058.62 196.319L1054.5 204.606L1061.82 202.425L1065.49 206.787L1059.08 221.618L1065.49 222.054L1070.98 228.597L1076.48 242.119Z" fill="#F0F0E8"/>
<path d="M1100.75 255.641L1088.38 239.065L1079.23 232.523L1076.48 242.119L1083.17 264.152C1085.42 266.397 1084.17 267.214 1090.52 271.133L1099.1 272.842L1100.75 255.641Z" fill="#FFEAD1"/>
<path d="M1059.48 380.469L1061.74 387.722L1061.61 397.069L1060.41 410.366L1073.02 414.585L1086.56 415.122L1097.28 419.42L1111.1 423.181L1123.5 425.061C1123.26 422.375 1117.96 418.346 1107.99 415.659L1096.71 405.451L1104.61 404.377L1114.2 408.675L1128.3 414.048L1131.12 412.436C1132 411.835 1131.74 410.616 1137.04 409.212C1141.17 406.512 1138.64 405.913 1146.35 408.675C1152.06 410.165 1142.41 397.85 1137.89 390.14C1130.81 382.127 1123.76 378.002 1116.74 376.708L1091.35 380.201L1074.43 381.006L1059.48 380.469Z" fill="#FEE3C5"/>
<path d="M160.673 204.648L165.804 233.153L176.92 269.802L189.318 287.72L188.463 281.204L184.188 262.472L185.898 260.844L197.869 271.024C203.594 278.277 208.946 286.447 206.847 287.312L208.557 292.606L211.122 279.168L210.267 268.173C217.672 276.09 226.653 285.592 227.368 291.385L232.926 303.194L220.955 314.189L207.702 322.74L191.456 323.147L180.583 318.445L171.71 312.635L165.376 308.487L152.123 299.121L144.855 288.127C140.816 278.589 140.916 269.731 140.579 260.843L138.869 253.106C134.879 247.27 129.786 243.471 126.826 237.634L124.761 233.967L127.753 223.38L132.884 211.163L136.304 207.906L148.275 207.499L160.673 204.648Z" fill="#F9DFC1"/>
<path d="M160.674 204.648L165.804 233.153L176.92 269.802L189.318 287.72L184.188 262.472L185.898 260.843L197.869 271.024L208.557 292.606L211.122 279.168L210.267 268.173L224.139 283.184L232.927 303.194L237.912 325.378L245.73 306.585L250.197 288.148L252.431 270.065L253.547 267.937L263.226 282.12L264.715 300.203L269.182 291.339L278.117 295.239L270.299 287.793L266.949 283.184L265.088 276.092H273.277L281.467 278.574L267.321 267.937L265.088 250.563L264.715 241.699L270.672 237.799L277 238.508L280.723 246.663L288.168 219.716L294.869 201.987L295.613 197.733L283.701 211.915L281.095 184.613L279.978 157.666L281.839 150.929C281.839 150.929 274.766 156.248 274.394 157.666C271.476 159.084 267.882 172.203 270.299 172.203L254.664 160.857L236.423 141.711L228.234 125.755L228.234 137.81L230.839 145.256L215.204 140.647L198.453 122.209L191.38 108.026L188.774 105.899L187.657 127.173L191.752 142.065L192.496 143.838L177.978 144.547L154.526 141.356L140.38 134.264L128.84 123.273L122.883 109.799L120.65 139.229L124.745 152.702L133.307 165.112L115.438 162.63L107.248 165.467L120.277 169.367L125.117 174.331L108.365 181.777L87.8906 180.713L72.6279 176.458L69.2775 175.04L83.0512 190.996L99.0585 200.924H107.621L103.526 210.497L93.1023 220.07L88.6352 220.425C98.5518 222.313 101.939 222.127 106.132 222.198L96.825 233.898L93.1023 242.763L92.3578 253.4L93.1023 255.527L97.5695 240.99L104.27 230.707L112.46 222.198L113.205 242.763L113.949 264.391L118.044 278.929L124 288.502L121.394 274.319L126.234 263.682C130.804 260.214 137.583 257.096 138.869 253.106L127.347 234.994L133.307 212.81L137.264 207.498H148.275L160.674 204.648Z" fill="#1C2F35"/>
<path d="M172.107 312.969L182.686 319.296L191.456 323.147L207.702 322.74L220.956 314.188L232.926 303.194L237.912 325.378L245.73 306.585L250.197 288.148L252.431 270.065L253.547 267.937L263.226 282.12L264.715 300.203L269.182 291.339L278.117 295.239L284.047 295.394L295.61 290.707L306.927 292.347L322.18 298.909L334.481 308.985L342.108 313.437L347.858 315.233L358.644 314.405L370.647 323.021L382.477 328.82L394.828 328.158H405.44L412.572 330.809L421.081 336.636L429.2 343.431H444.699L455.524 344.134L466.595 349.524L472.499 354.679L478.404 363.115L483.816 366.864L486.031 372.02L485.047 379.518L478.404 385.376L467.333 390.766L456.262 394.281L441.009 400.373L428.462 405.997L418.375 413.027H405.335L400.415 412.324H393.772L390.328 414.199L383.932 417.245L378.519 418.182L372.861 417.011L373.353 415.605L376.305 412.09L376.797 402.951L373.353 394.749L368.432 388.891L364.496 385.376H360.806L360.314 384.205L369.17 382.33L376.551 381.393L371.138 378.815L370.154 372.957L371.877 370.379L372.615 367.567L352.441 368.505L340.386 373.426L336.941 374.597L332.021 372.254L328.331 369.911L321.442 372.722L315.292 373.66L306.927 374.363L301.022 379.049L295.856 385.611L293.15 390.532L298.626 391.785L306.28 390.459L311.151 393.442L317.066 394.436L320.546 395.762L311.151 398.081L302.801 400.732L295.147 403.715L292.711 409.68C292.711 409.68 290.972 410.011 292.711 409.68C294.451 409.348 305.237 410.012 305.237 410.012H316.718L324.721 411.006L337.942 412L349.423 411.668L349.771 427.575L354.642 442.819L360.557 462.04L371.343 488.551L378.301 513.737L381.085 532.626L383.52 545.55L379.693 551.184L373.083 545.882V532.958L369.951 537.597L368.907 562.12L367.864 579.352L361.601 589.957L350.467 600.561L335.506 608.183L319.502 612.16L324.721 621.108L326.808 631.049L332.723 640.991L332.027 652.259L341.073 658.886L343.161 668.165L341.073 674.793L335.158 685.066L329.592 689.043L326.112 701.967L316.37 709.921L305.237 710.583L288.536 702.961L283.317 693.02L282.621 682.746L275.315 671.81L257.571 660.212L240.522 638.009L226.953 628.73L217.211 624.753L220.342 633.038L221.734 638.671L219.995 641.985L227.649 646.293L232.868 651.927L234.26 663.526L231.824 675.124L227.649 686.392L220.69 697.99L212.34 706.938L206.773 706.275L202.946 699.979L199.467 699.316L191.117 707.27L177.895 711.909L168.849 718.537L151.105 733.118L140.319 744.385L119.444 747.037L87.7821 752.339L76.9964 750.682L62.7314 741.403L56.4687 724.17L55.7728 706.275L59.2521 690.369L72.8213 664.851L86.0425 644.636L104.135 622.433L121.531 602.55L138.232 587.306L135.448 551.516L136.492 532.958L143.103 521.69L156.672 511.749L167.11 502.801L175.808 496.173L190.769 486.231L186.594 478.278L186.941 470.325L189.377 464.359L194.596 461.708L190.421 449.778L184.854 436.523L180.331 425.587L177.895 422.604L158.063 446.133L141.711 470.656L130.925 488.22L101.003 519.039L80.8236 539.585L69.6899 547.539L55.077 543.231L45.335 535.94L46.7267 519.702L52.6415 513.405L55.4249 511.417L52.6415 503.464L62.3835 495.179L68.2982 487.888L74.5609 476.29L78.0402 470.987L80.8236 456.406L88.1301 445.139L97.8721 437.848L106.222 411.337L112.833 399.738L120.487 394.105L127.794 371.57L133.361 359.308L136.492 351.024L137.188 346.384L139.971 343.733L137.188 333.128L146.582 330.809L160.499 322.193L172.107 312.969Z" fill="#F9F6EA"/>
<path d="M45.335 535.94L55.077 543.23L69.6899 547.538L62.2207 566.019L53.7587 578.378C49.6575 579.427 44.6666 585.561 41.9119 578.915L48.6815 564.945L49.2456 560.646L38.5271 557.96L30.0651 561.184C28.1846 564.581 26.3042 569.998 24.4238 570.855C26.5494 577.074 -2.44129 575.124 0.16606 570.855L13.1411 563.333L21.6031 552.586L23.8596 546.676L45.335 535.94Z" fill="#F9DFC1"/>
<path d="M227.649 646.293L238.512 643.796L244.577 643.528L252.616 654.274L257.571 660.212L260.796 662.066L255.577 667.439L256.282 677.917L264.603 688.932L271.091 700.618L272.783 713.648C273.421 719.284 274.244 725.133 273.065 728.693C274.344 735.32 273.264 741.947 272.783 748.574L268.693 754.754C263.465 753.753 262.595 750.907 260.513 748.574C257.807 743.828 256.525 739.082 254.872 734.335C251.276 729.582 249.091 724.917 246.551 719.828L235.127 707.335C233.987 704.34 230.24 701.723 229.768 693.633L223.281 692.962L227.649 686.392L231.824 675.124L234.26 663.526L232.868 651.927L227.649 646.293Z" fill="#8F5348"/>
<path d="M295.245 706.076L293.528 715.892L295 733.42L296.227 750.949L303.588 762.869L312.912 772.451L320.274 773.386L325.917 771.282L333.033 760.531L340.395 745.807L342.603 735.524L340.885 722.202L338.432 701.168L339.904 683.172L339.144 678.412L338.884 678.329L335.158 685.066L329.592 689.043L326.112 701.967L316.37 709.92L305.237 710.583L295.245 706.076Z" fill="#8F5348"/>
<path d="M264.715 241.699L270.671 237.799L277 238.508L280.722 246.663C280.511 251.183 280.05 255.466 278.637 258.841C276.618 263.727 274.599 267.113 272.58 270.091L271.672 271.1L267.321 267.937L265.087 250.563L264.715 241.699Z" fill="#F5DFBD"/>
<path d="M280.723 246.663L288.328 248.025L298.17 247.16L288.328 253.073L278.031 260.861L280.151 253.65L280.723 246.663Z" fill="#1C2F35"/>
<path d="M293.15 390.532L295.404 386.05L301.022 379.05C306.314 372.293 310.691 374.011 315.291 373.66L328.331 369.911L336.941 374.597L350.509 379.04L360.806 384.994C366.943 386.568 370.993 389.797 373.353 394.367C378.058 401.082 377.164 406.772 376.305 412.09L372.861 417.011L349.423 411.668L338.723 412.09L325.675 411.668L316.718 410.011C325.539 410.28 291.102 409.926 292.711 409.68C292.494 403.453 297.461 401.923 302.801 400.732L311.062 398.198L320.545 395.761C314.903 394.538 308.87 393.556 306.28 390.459L298.536 391.86L293.15 390.532Z" fill="#F9DFC1"/>
</svg>
