<?xml version="1.0" encoding="UTF-8" standalone="no"?>
<!-- Created with Inkscape (http://www.inkscape.org/) -->

<svg
   xmlns:dc="http://purl.org/dc/elements/1.1/"
   xmlns:cc="http://creativecommons.org/ns#"
   xmlns:rdf="http://www.w3.org/1999/02/22-rdf-syntax-ns#"
   xmlns:svg="http://www.w3.org/2000/svg"
   xmlns="http://www.w3.org/2000/svg"
   xmlns:sodipodi="http://sodipodi.sourceforge.net/DTD/sodipodi-0.dtd"
   xmlns:inkscape="http://www.inkscape.org/namespaces/inkscape"
   width="210mm"
   height="297mm"
   viewBox="0 0 210 297"
   version="1.1"
   id="svg8"
   inkscape:version="0.92.4 (5da689c313, 2019-01-14)"
   sodipodi:docname="bg-watchpage.svg">
  <defs
     id="defs2" />
  <sodipodi:namedview
     id="base"
     pagecolor="#ffffff"
     bordercolor="#666666"
     borderopacity="1.0"
     inkscape:pageopacity="0.0"
     inkscape:pageshadow="2"
     inkscape:zoom="0.940625"
     inkscape:cx="490.54826"
     inkscape:cy="593.56329"
     inkscape:document-units="mm"
     inkscape:current-layer="layer1"
     showgrid="false"
     showguides="false"
     inkscape:window-width="1600"
     inkscape:window-height="837"
     inkscape:window-x="-4"
     inkscape:window-y="-4"
     inkscape:window-maximized="1" />
  <metadata
     id="metadata5">
    <rdf:RDF>
      <cc:Work
         rdf:about="">
        <dc:format>image/svg+xml</dc:format>
        <dc:type
           rdf:resource="http://purl.org/dc/dcmitype/StillImage" />
        <dc:title></dc:title>
      </cc:Work>
    </rdf:RDF>
  </metadata>
  <g
     inkscape:label="Layer 1"
     inkscape:groupmode="layer"
     id="layer1">
    <g
       id="g1074">
      <path
         sodipodi:nodetypes="ccccccccccccccccccccccccccccccccccccccccccc"
         inkscape:connector-curvature="0"
         id="path867"
         d="m 100.18293,110.66146 -1.009058,3.01864 -6.329581,4.44005 c -1.575899,10.14763 -3.158681,20.3287 -4.235119,30.6012 -0.215313,0.76955 -0.607381,1.61629 -1.06908,2.58568 0.690355,1.32849 1.339983,2.61624 1.96412,3.87851 -0.149684,0.0655 -0.505701,0.90951 -0.71466,1.66945 -0.186704,0.80445 -0.153639,1.47132 -0.652765,2.20908 1.529629,0.73461 3.202533,1.2543 4.99732,1.59117 0.460276,-0.43729 0.735701,-2.50579 1.019353,-4.00282 0.344339,-0.26451 0.646998,-0.72459 1.690635,-1.26798 0.388891,-1.90457 0.236544,-4.23066 -0.02486,-6.26529 l 1.069077,-1.86468 c 0.335986,-2.08857 0.571314,-3.72199 0.571833,-7.63272 l 0.522109,-2.7597 0.845316,3.23209 -1.143666,1.04422 1.367426,1.51659 c -0.409872,0.49725 -0.938337,0.89504 -1.218252,1.39229 l -1.069076,8.75152 -0.895043,5.6686 2.287331,-7.06088 0.248623,4.52493 c 5.979387,3.31503 11.920587,5.08144 17.503047,5.22108 1.80336,-0.45284 0.55265,-3.36141 1e-5,-5.6686 l 1.93925,4.27631 c 1.16777,-0.11979 2.45636,-0.0141 4.15201,-0.39779 l 2.75971,-2.93375 0.49724,2.68513 2.08843,-1.04422 -1.09393,-3.33155 c 0.15064,-0.63279 0.56337,-1.78975 0.84531,-2.68512 l -1.19339,-3.53045 c -0.19909,-2.51392 -1.16108,-5.28213 -2.13815,-8.05538 l -1.19339,-2.68513 c 0.0409,-0.97791 -0.0128,-1.3094 -0.0994,-2.28732 0.72969,1.33777 -2.39862,-11.90312 -4.22659,-18.59699 -0.3476,-1.66574 -7.30951,-3.43099 -7.30951,-3.43099 -0.88123,-2.8288 -1.82052,-4.148 -2.8343,-3.53045 -0.0511,1.07737 -0.25461,2.15473 -0.0995,3.2321 -0.50934,0.004 -0.88228,0.14536 -1.19339,0.34807 -0.18572,-0.52361 -0.4694,-0.85129 -0.74587,-1.19339 z"
         style="fill:#e8ebf4;fill-opacity:1;stroke:#000000;stroke-width:0;stroke-linecap:butt;stroke-linejoin:miter;stroke-miterlimit:4;stroke-dasharray:none;stroke-opacity:1" />
      <path
         sodipodi:nodetypes="ccccccccccccccccccccccccccc"
         inkscape:connector-curvature="0"
         id="path869"
         d="m 98.156285,151.40648 c -0.824643,2.30387 -1.579796,4.66333 -2.287331,7.06088 l -1.307401,9.94492 c 0.284496,0.2694 0.688179,0.30727 1.158229,0.29834 l -0.125559,0.69615 0.821705,0.14917 c -0.0962,0.19743 -0.273708,0.38131 -0.105482,0.62281 1.29005,0.69576 2.854597,1.38783 4.329054,1.94529 l 0.0527,-1.02664 c 1.11796,0.63487 2.44154,0.93999 3.78459,1.39479 0.50314,-0.0922 1.00247,0.0141 1.63539,-0.25112 l 0.17554,-0.23079 c 2.35503,0.25228 4.80402,0.1771 6.78589,0.92693 l 0.0146,-0.63685 6.44966,-0.65599 v -0.64642 c 1.91939,-1.12699 3.68649,-1.80239 5.73841,-2.26673 l -0.0698,-0.71674 2.22856,-0.96235 -2.17884,-7.93834 -0.49724,-2.68513 -2.73488,2.6354 c 0.98067,-0.17656 -2.29087,0.51155 -4.17684,0.69614 -0.15849,-1.26279 -1.25132,-2.83703 -1.93927,-4.27631 0,2.0191 10e-6,4.03781 10e-6,5.6686 0.14872,0.0386 -12.18755,-3.13953 -17.50306,-5.22108 0.01092,-1.47079 -0.154975,-3.01231 -0.248635,-4.52493 z"
         style="fill:#e1e2e8;fill-opacity:1;stroke:#000000;stroke-width:0;stroke-linecap:butt;stroke-linejoin:miter;stroke-miterlimit:4;stroke-dasharray:none;stroke-opacity:1" />
      <path
         sodipodi:nodetypes="ccccccccc"
         inkscape:connector-curvature="0"
         id="path887"
         d="m 101.33278,109.62929 0.31644,1.47674 4.41328,1.21694 c 0.30995,0.3978 0.5761,0.79559 0.74587,1.19339 l 1.19339,-0.34807 0.0995,-3.2321 -0.12306,-0.33403 c -0.63053,0.32165 -1.2692,0.62973 -1.96907,0.83582 -1.96463,0.20393 -3.24115,-0.39494 -4.67635,-0.80869 z"
         style="fill:#e7c9ac;fill-opacity:1;stroke:#000000;stroke-width:0;stroke-linecap:butt;stroke-linejoin:miter;stroke-miterlimit:4;stroke-dasharray:none;stroke-opacity:1" />
      <path
         sodipodi:nodetypes="cccccccccccccccccccccccccccccccc"
         inkscape:connector-curvature="0"
         id="path897"
         d="m 96.656423,105.41002 c 1.215496,1.33286 1.739329,2.51751 4.676357,4.21927 0.98816,0.49664 2.00474,0.93645 3.26993,0.87902 0.47212,-0.0102 0.9759,0.1063 1.40642,-0.0703 1.21785,0.002 1.4437,-0.49172 1.96907,-0.83582 0.81409,-0.46738 1.57469,-0.84306 3.02374,-2.39895 0.81328,-0.77863 0.90447,-1.124 1.30094,-1.65255 l 0.33704,-1.15177 c 0.10548,0.0164 0.26069,-0.18947 0.36617,-0.25465 0.16164,-0.12017 0.31198,-0.30811 0.45709,-0.52741 0.18427,-0.338 0.16285,-0.72172 0.21096,-1.08998 -0.013,-0.37371 -0.0175,-0.66278 -0.0785,-0.98857 0.0105,-0.0513 -0.0924,-0.23648 -0.1076,-0.33918 -0.69931,0.23961 -0.88617,0.61482 -1.22032,0.97615 l 0.45708,-4.500557 -0.70321,1.406425 c -0.14874,-1.132075 0.58776,-1.954318 -0.73837,-3.49848 l -0.91417,-0.175802 0.75595,0.914175 c -0.86126,-0.408005 -1.78155,-0.768777 -2.97107,-0.914175 -0.89534,0.09245 -1.08256,0.387213 -1.56465,0.597731 l 0.36919,-0.439508 c -5.36843,0.298347 -5.22597,-1.172755 -6.68051,-2.074473 1.42736,1.771731 2.1668,3.579669 4.7291,5.291666 -1.99667,-0.393585 -3.45607,-1.324451 -5.010965,-2.159813 -1.617332,-0.181069 -2.276982,1.792647 -3.406132,2.709988 0.04862,0.888503 0.374107,1.684723 1.019354,2.374353 0,0 -1.74036,-1.11881 -1.715497,-1.01936 -0.574239,0.0832 1.201717,3.93116 2.933748,3.97797 -0.935385,-0.0868 -1.811629,0.063 -2.933748,-0.77073 l 1.665772,1.74036 z"
         style="fill:#f5d6b8;fill-opacity:1;stroke:#000000;stroke-width:0;stroke-linecap:butt;stroke-linejoin:miter;stroke-miterlimit:4;stroke-dasharray:none;stroke-opacity:1" />
      <path
         sodipodi:nodetypes="cccccccc"
         inkscape:connector-curvature="0"
         id="path899"
         d="m 93.158968,104.61566 c 0.143833,0.62451 -0.442618,0.51873 0.895043,2.33706 0.952719,0.54817 1.888088,0.9715 2.759712,1.06908 0.894699,0.0318 1.234932,-0.2533 1.690635,-0.47239 -0.61469,-0.7136 -0.883132,-1.55311 -1.847935,-2.13939 l -2.925622,-1.76399 c 0.473778,0.84532 0.744474,1.69064 1.839809,2.53596 -1.161159,-0.57315 -1.672281,-1.05344 -2.411642,-1.56633 z"
         style="fill:#f5d6b8;fill-opacity:1;stroke:#000000;stroke-width:0;stroke-linecap:butt;stroke-linejoin:miter;stroke-miterlimit:4;stroke-dasharray:none;stroke-opacity:1" />
      <path
         sodipodi:nodetypes="cccccccccccccccccccc"
         inkscape:connector-curvature="0"
         id="path901"
         d="m 98.69147,171.28211 c 1.246673,3.34908 1.30986,7.45354 1.305207,11.83278 l -1.195459,8.08693 c 0.23966,4.81918 1.01609,8.63308 1.863512,12.86878 l 0.56257,-0.24613 0.70321,0.42193 0.31644,-0.87902 1.68771,-0.24612 1.70404,0.72381 0.12431,-4.45083 0.38677,-4.57088 0.10548,-3.55121 c -0.082,-1.85179 -0.0398,-5.48961 -0.12182,-5.72941 l 0.77354,-4.40287 1.20576,-9.0036 -1.82502,-0.12599 c -2.24057,0.64123 -2.10944,0.50988 -1.81093,0.48191 -2.47796,-0.84244 -3.19482,-1.13834 -3.78459,-1.39479 l -0.0527,1.02664 z"
         style="fill:#fedec2;fill-opacity:1;stroke:#000000;stroke-width:0;stroke-linecap:butt;stroke-linejoin:miter;stroke-miterlimit:4;stroke-dasharray:none;stroke-opacity:1" />
      <path
         sodipodi:nodetypes="cccccccccccccccccc"
         inkscape:connector-curvature="0"
         id="path903"
         d="m 114.81402,172.14162 3.27578,11.65614 c -0.0934,2.77534 -0.0255,4.17347 0.006,5.69773 0.0989,0.89722 -0.0633,0.78584 0.64038,2.94228 l 3.67109,10.10866 0.90961,0.42442 1.54146,-0.69615 2.73485,-0.0497 0.24862,-0.49725 -0.99449,-4.42548 c -0.47474,-3.30134 -0.47886,-5.73988 -1.98898,-10.93941 l 0.19895,-3.28182 c 0.13539,-0.61686 -0.27372,-3.21614 -0.69615,-5.32052 l -0.99449,-8.45318 c -1.00219,0.0937 -2.36607,0.80748 -3.82877,1.69063 l -1e-5,0.6464 c -0.5552,-0.018 -3.33648,0.20701 -4.72393,0.49725 z"
         style="fill:#fedec2;fill-opacity:1;stroke:#000000;stroke-width:0;stroke-linecap:butt;stroke-linejoin:miter;stroke-miterlimit:4;stroke-dasharray:none;stroke-opacity:1" />
      <path
         sodipodi:nodetypes="ccccsccccccccsccccc"
         inkscape:connector-curvature="0"
         id="path921"
         d="m 89.290752,159.50555 c -1.729704,0.72929 -3.238374,1.47617 -4.644984,2.20546 -6.338538,0.0854 -7.648148,1.03723 -7.566664,1.49526 0.05129,0.13039 0.887946,0.0336 3.179097,-0.23125 -1.362238,0.40096 -1.875462,0.64452 -1.997476,0.76781 -0.467893,0.47276 -0.246814,0.63287 -0.289854,0.66317 0.533849,0.31169 3.024991,-0.78591 3.895843,-1.07136 -1.367226,0.51573 -1.930081,0.99037 -1.432966,1.41288 l 3.746925,-1.26345 c 3.394232,0.32727 2.958891,0.001 3.632908,0.0437 l 1.740361,-0.38625 c 0.745835,0.21769 0.683941,0.38314 0.745868,0.64642 -1.257372,1.88248 -0.930553,3.19158 -0.895043,3.18238 0.695271,-0.14289 1.193904,-0.86318 1.533296,-1.67821 0.104727,-0.25149 0.547548,-0.78224 0.841053,-1.18095 0.160923,-0.58495 0.440096,-1.52403 0.509676,-2.20032 0.110502,-0.35719 0.392748,-0.91769 0.845315,-1.25559 -1.663534,-0.37663 -2.527703,-0.62115 -3.843355,-1.14969 z"
         style="fill:#fedec2;fill-opacity:1;stroke:#000000;stroke-width:0;stroke-linecap:butt;stroke-linejoin:miter;stroke-miterlimit:4;stroke-dasharray:none;stroke-opacity:1" />
      <path
         sodipodi:nodetypes="cccccccccccc"
         inkscape:connector-curvature="0"
         id="path923"
         d="m 125.25618,159.11379 1.23399,4.39908 2.03931,2.12722 c 0.57156,0.27201 0.90416,0.24532 1.30094,0.29886 0.16903,0.0178 0.16458,-0.13574 0.10549,-0.66805 -0.23401,-0.43243 -0.85551,-0.98097 -1.54707,-1.45916 0.14132,-0.63968 0.35456,-1.28964 1.14272,-2.02173 1.47904,0.0421 2.93656,0.16849 4.6412,-0.61532 0.087,-0.0312 0.27964,-0.26852 0.28128,-0.80869 -1.69783,-0.0115 -2.99469,0.0162 -4.43024,-0.0879 -1.24875,-0.12939 -2.51691,-0.87488 -3.53363,-1.79319 z"
         style="fill:#fedec2;fill-opacity:1;stroke:#000000;stroke-width:0;stroke-linecap:butt;stroke-linejoin:miter;stroke-miterlimit:4;stroke-dasharray:none;stroke-opacity:1" />
      <path
         sodipodi:nodetypes="ccccccccccccccccccccccccccccccccccccccccccccccccccccccccccccccccccccccccccc"
         inkscape:connector-curvature="0"
         id="path925"
         d="m 96.898281,93.527513 c 1.830251,2.016516 3.665879,4.437548 8.108779,5.254769 -1.84391,-1.374327 -2.78089,-2.872786 -4.7291,-5.291667 1.48131,1.615925 3.28698,3.572727 7.90083,2.512945 1.18357,0.111508 2.09201,-0.123404 2.94621,0.31748 l -0.75595,-0.914175 0.91417,0.175802 c 1.26104,1.569146 -0.28309,3.072776 0.73837,3.498481 l 0.70321,-1.406426 -0.45708,4.500558 c 0.34909,-0.38306 0.56528,-0.89904 1.22032,-0.97615 0.37078,1.5266 0.0947,1.82342 -0.0249,2.41773 l 2.00415,-0.21099 c -1.07529,-0.33541 -1.2201,-0.90345 -1.25005,-1.5002 1.87117,0.57224 2.68972,-0.38659 3.90338,-0.77073 -2.31494,0.0264 -3.28736,-0.77223 -2.68513,-2.33705 1.46383,0.09374 2.89061,0.01705 4.02769,-1.392288 -1.51564,0.226041 -3.0268,0.447751 -2.53595,-1.267976 l 0.9199,-0.248624 -0.44752,-0.174035 c 1.05753,-0.838333 1.68689,-1.847936 2.4365,-2.809438 -0.9647,0.320015 -1.57282,1.30862 -3.00833,0.745868 0.75868,-0.858231 1.0614,-1.846737 1.36742,-2.834299 -1.07972,0.945822 -2.11915,1.44845 -3.13264,1.665772 l -0.0497,-1.466874 -0.27348,0.34807 -0.87018,-0.745868 c 1.41609,-0.69028 3.08292,-0.147808 3.7542,-4.500073 -0.4369,1.077127 -2.54462,2.836703 -6.14098,0.895043 1.15296,-0.721685 1.91328,-1.764623 2.33705,-3.082922 -1.20488,0.655987 -1.81126,1.871863 -4.94759,0.721005 1.21545,-0.917999 1.38763,-2.076756 1.79008,-3.182371 -1.40407,3.31691 -4.2247,2.266629 -7.40896,2.06357 l 1.66577,-2.70999 c -1.25174,1.161053 -1.8819,2.59676 -5.842632,2.560815 -1.640437,0.644683 -1.787418,1.621245 -2.660264,2.436503 -1.370233,-1.489138 -2.707687,-2.984422 -2.61054,-4.748694 -0.183075,-1.241004 -0.534672,-2.257295 0.54697,-4.201726 0.706356,-1.613975 1.761314,-2.251865 2.933751,-2.560815 1.401361,-0.07764 2.748285,-0.08724 3.779065,0.298347 1.64988,0.936479 1.48707,1.872959 1.93926,2.809438 0.0839,0.630011 0.1213,1.25228 -0.34807,1.790084 l 0.74587,-1.218253 v -2.361917 c -0.44741,-2.222773 -1.84711,-2.45439 -3.30669,-2.560815 -3.256318,0.602128 -3.747942,1.324459 -4.997317,2.013845 -0.793129,1.500752 -2.269539,3.086915 -2.361917,4.500073 -0.313274,1.040572 -0.640181,2.08387 -0.497245,3.033199 0.701178,1.660739 1.992586,2.731248 3.629893,3.455858 -1.196463,0.09667 -1.943179,-0.633879 -4.574659,3.182371 -1.259875,0.360851 -2.519751,-0.01801 -3.779626,-0.577186 0.600749,1.157945 1.615524,1.591345 2.742525,1.82835 -1.382982,0.801238 -2.765965,0.804753 -4.148947,0.281284 1.0157,1.63575 2.550374,1.88757 4.35991,1.406424 -0.692393,1.279484 -1.213008,2.627679 -2.531562,3.656698 -1.784635,0.186678 -2.324255,-0.318318 -2.953488,-0.77353 1.00618,1.436602 1.240787,3.258989 5.520211,3.058969 -0.618714,1.33638 -1.745772,1.401903 -2.883167,1.441582 l 1.336103,0.597736 c -0.743718,1.15296 -2.13546,1.2 -4.18411,1.01965 1.708532,0.96266 3.410319,2.23754 6.258584,1.93383 -0.449831,1.24067 -1.279602,1.34152 -1.968993,1.86351 l 3.02381,-0.80869 1.073419,0.43626 c 0.68754,0.60521 1.281995,1.27691 2.41164,1.56633 -0.929795,-0.66445 -1.356889,-1.61615 -1.839806,-2.53596 l 2.925619,1.76399 0.903171,0.22503 -1.665771,-1.74036 c 1.065246,0.99259 1.997267,0.87527 2.933747,0.77073 -2.181223,-0.99313 -2.401821,-2.54812 -2.933734,-3.97797 l 1.715482,1.01936 c -0.512694,-0.60765 -0.879216,-1.15899 -1.019353,-2.374354 -0.450019,-1.869946 -0.368655,-3.802408 0.308332,-5.804943 z"
         style="fill:#c26526;fill-opacity:1;stroke:#000000;stroke-width:0;stroke-linecap:butt;stroke-linejoin:miter;stroke-miterlimit:4;stroke-dasharray:none;stroke-opacity:1" />
      <path
         sodipodi:nodetypes="cccccc"
         inkscape:connector-curvature="0"
         id="path927"
         d="m 96.898279,93.527511 c -0.910255,2.165691 -0.693546,4.009393 -0.308316,5.804945 l 1.984692,-1.55685 v 0 l 1.42144,-1.153137 z"
         style="fill:#f5d6b8;fill-opacity:1;stroke:#000000;stroke-width:0;stroke-linecap:butt;stroke-linejoin:miter;stroke-miterlimit:4;stroke-dasharray:none;stroke-opacity:1" />
      <path
         sodipodi:nodetypes="cccccc"
         inkscape:connector-curvature="0"
         id="path951"
         d="m 92.085495,104.1794 c 0.04512,1.80067 -0.167328,3.30262 -2.971017,3.85008 2.207647,0.074 5.117063,0.88472 5.977298,-0.56257 0.376114,0.24447 -0.695358,-0.36151 -0.967444,-0.53177 -0.732473,-1.04408 -0.728962,-1.38246 -0.965364,-2.31948 z"
         style="fill:#c26526;fill-opacity:1;stroke:#000000;stroke-width:0;stroke-linecap:butt;stroke-linejoin:miter;stroke-miterlimit:4;stroke-dasharray:none;stroke-opacity:1" />
      <path
         sodipodi:nodetypes="cccc"
         inkscape:connector-curvature="0"
         id="path953"
         d="m 95.091776,107.46691 c -0.319316,0.9183 -0.525068,1.32557 -0.755952,1.84593 0.59969,-0.43819 1.253358,-0.78642 1.722868,-1.44158 z"
         style="fill:#c26526;fill-opacity:1;stroke:#000000;stroke-width:0;stroke-linecap:butt;stroke-linejoin:miter;stroke-miterlimit:4;stroke-dasharray:none;stroke-opacity:1" />
      <path
         sodipodi:nodetypes="cccccccccc"
         inkscape:connector-curvature="0"
         id="path955"
         d="m 97.553017,107.924 c -0.06839,0.89304 -0.471835,1.75562 -1.054817,2.60188 0.810564,-0.43058 1.709646,-0.38315 2.303018,-1.98657 0.345745,0.41607 0.69149,0.79992 1.037235,0.9845 l 0.334027,0.10548 c 0.19338,0.39263 0.15154,0.56917 0.45709,1.12514 l 1.01965,0.3516 -0.31644,-1.47674 -2.828422,-2.07988 z"
         style="fill:#c26526;fill-opacity:1;stroke:#000000;stroke-width:0;stroke-linecap:butt;stroke-linejoin:miter;stroke-miterlimit:4;stroke-dasharray:none;stroke-opacity:1" />
      <path
         sodipodi:nodetypes="ccccccc"
         inkscape:connector-curvature="0"
         id="path957"
         d="m 108.10126,109.93619 c 0.24447,-0.11816 0.49958,-0.22213 1.01959,0.0271 v -0.24612 c 0.45102,0.2416 0.87031,0.50858 1.7756,0.38677 -0.597,-0.29769 -1.22825,-0.54057 -1.37126,-1.56465 l -1.54699,1.06285 z"
         style="fill:#c26526;fill-opacity:1;stroke:#000000;stroke-width:0;stroke-linecap:butt;stroke-linejoin:miter;stroke-miterlimit:4;stroke-dasharray:none;stroke-opacity:1" />
      <path
         sodipodi:nodetypes="cccccccccccccc"
         inkscape:connector-curvature="0"
         id="path959"
         d="m 99.504427,205.30122 c 2.392643,7.04643 2.134323,10.52074 2.355763,14.31035 l -1.30094,4.67636 c 1.3518,0.44326 1.84705,1.08639 5.83665,0.91417 1.84725,0.008 3.74439,0.18972 5.41473,-0.42193 0.49628,-0.96734 -1.39217,-4.74024 -2.3206,-7.38372 -1.09292,-2.69658 -1.36901,-5.90412 -2.03931,-8.86046 l -0.42193,-5.27409 c -0.50948,-0.0362 -0.97437,0.15057 -1.39009,0.58317 l -1.70404,-0.72381 -1.68771,0.24612 -0.31644,0.87902 c -0.94558,-0.79781 -0.93727,-0.24907 -1.26578,-0.1758 -0.46758,0.28898 -1.045067,0.41312 -1.160303,1.23062 z"
         style="fill:#856340;fill-opacity:1;stroke:#000000;stroke-width:0;stroke-linecap:butt;stroke-linejoin:miter;stroke-miterlimit:4;stroke-dasharray:none;stroke-opacity:1" />
      <path
         sodipodi:nodetypes="cccccccccccccccccccccc"
         inkscape:connector-curvature="0"
         id="path961"
         d="m 121.77545,203.51782 3.61179,10.38037 0.12611,3.5656 0.45605,3.84939 c -0.13273,0.81964 -0.2897,1.68776 0.0327,1.59722 0.2397,0.32926 0.35492,0.62741 0.94477,1.04421 2.03871,1.01051 4.07741,0.86474 6.11612,0.99449 1.66427,0.049 3.43913,0.0316 5.56915,-0.19889 0.47098,-0.20207 0.4811,-0.66749 0.29835,-1.24312 -0.36038,-1.00483 -2.77368,-2.35181 -4.17686,-3.53044 l -0.69615,-0.74587 -2.93375,-6.76254 -1.29284,-5.81777 v -1.93926 l -0.64642,-1.34256 -0.42638,-1.79446 -0.91622,0.15356 -0.24862,0.49725 -2.73485,0.0497 -1.54146,0.69615 -0.90961,-0.42442 c -0.87977,0.38463 -0.75945,0.67834 -0.63184,0.97139 z"
         style="fill:#856340;fill-opacity:1;stroke:#000000;stroke-width:0;stroke-linecap:butt;stroke-linejoin:miter;stroke-miterlimit:4;stroke-dasharray:none;stroke-opacity:1" />
    </g>
    <g
       id="g978" />
    <g
       id="g1098">
      <g
         id="g1085">
        <g
           id="g983">
          <path
             style="fill:#201f24;stroke:#000000;stroke-width:0;stroke-linecap:butt;stroke-linejoin:miter;stroke-miterlimit:4;stroke-dasharray:none;stroke-opacity:1;fill-opacity:1"
             d="m 34.036462,85.894365 c 0.833391,1.715804 1.083179,2.417939 2.23092,3.984297 1.321175,1.803048 0.919691,1.130005 3.263645,4.36943 -0.97125,-2.496284 -2.393281,-4.918796 -2.893708,-7.297374 1.945172,3.328914 4.508723,6.039449 7.032115,8.790144 0.314666,2.078095 0.288145,3.951478 0.281286,5.836658 l 1.11234,-4.951611 c 1.239482,2.148464 1.414955,4.144931 2.122432,6.217391 l 1.517938,-5.849454 c 0.743632,1.417154 1.558779,2.864956 1.857479,4.091424 -0.451157,-1.86162 -0.654402,-3.439844 -0.509831,-5.537791 0.08306,-0.81654 -0.131911,-1.881495 0.01758,-5.010381 0.410465,0.32787 1.097622,0.580621 1.195459,1.26578 l 0.140642,1.617387 c 0.754454,-2.720284 2.652121,-4.525998 4.289592,-6.539868 l -3.797344,2.707366 c 0.814847,-2.40264 1.837517,-4.80528 2.883169,-7.20792 l -2.918329,3.516059 c -0.177448,-0.971495 -0.0909,-1.772429 -0.351604,-3.305096 -0.288286,-0.712571 -0.575857,-1.275354 -1.14272,-2.127214 -1.301362,-1.302204 -3.78536,-2.873566 -6.221234,-4.500554 -1.84756,-1.234035 -2.879905,-3.000369 -3.834689,-4.500553 l 1.810769,4.025885 c -3.623531,0.01883 -4.634633,-1.941405 -6.241003,-3.850082 0.256061,1.602939 1.077846,3.240272 2.461239,4.430234 -4.231073,1.210084 -8.647016,2.986705 -11.479926,-0.0879 1.031872,1.241719 1.031301,2.584165 3.797342,3.656697 -2.714379,2.046777 -4.609024,2.331126 -6.399225,2.390921 1.397662,0.398334 2.89242,0.278818 4.430233,-0.07032 -1.528603,4.082038 -1.48439,9.040921 -6.258583,10.407531 1.961496,0.200669 3.933189,0.44723 5.766334,0.07032 0.25459,1.488075 -0.642489,2.008747 -2.039313,2.109634 0.853148,0.02591 0.999176,0.362962 3.375416,-0.281284 0.765405,1.268843 0.698676,2.371259 0.843854,3.516056 l 0.351605,-3.375414 2.320597,1.617387 c -0.922548,-1.515557 -2.018694,-2.952206 -2.250276,-4.781838 0.263653,-3.285711 0.575179,-6.507591 1.619751,-8.752077 z"
             id="path963"
             inkscape:connector-curvature="0"
             sodipodi:nodetypes="csccccccccccccccccccscccccccccccccccccc" />
          <path
             sodipodi:nodetypes="ccccc"
             inkscape:connector-curvature="0"
             id="path973"
             d="m 49.98076,90.537098 c 0.09918,1.762694 0.100279,3.885651 0.0846,5.573533 0.419178,-0.647352 0.920226,-1.565885 1.339404,-2.690366 L 51.293906,91.870362 C 50.934027,90.89877 50.338623,90.807889 49.98076,90.537098 Z"
             style="fill:#e9c5aa;fill-opacity:1;stroke:#000000;stroke-width:0;stroke-linecap:butt;stroke-linejoin:miter;stroke-miterlimit:4;stroke-dasharray:none;stroke-opacity:1" />
        </g>
        <path
           style="fill:#e9c5aa;fill-opacity:1;stroke:#000000;stroke-width:0;stroke-linecap:butt;stroke-linejoin:miter;stroke-miterlimit:4;stroke-dasharray:none;stroke-opacity:1"
           d="m 32.420414,82.488235 c -0.952808,2.166649 -1.393348,5.264693 -1.619753,8.752075 0.326511,1.040937 -0.282436,0.860582 2.250276,4.781838 l -2.320597,-1.617387 0.386768,1.441582 c 0.254549,0.669699 0.770203,1.208846 1.195462,1.79319 0.258326,0.291193 0.615602,0.64955 1.3361,0.808694 0.175803,0.513785 0.386768,0.575698 0.562571,0.843854 0.591402,0.652808 1.242025,1.009509 1.898671,1.336099 l 2.390918,0.9845 1.441585,0.80869 c 0.273927,0.11546 0.561535,0.22544 1.160298,0.21096 0.827725,-0.15881 1.323214,-0.45052 1.828351,-0.73837 l 1.019656,-0.31644 c 0.116069,-1.52589 0.06588,-3.384298 -0.281286,-5.836658 -3.164103,-2.945248 -4.89217,-5.618131 -7.032115,-8.790146 0.628472,2.566897 1.822738,4.907477 2.893709,7.297375 -2.329506,-3.273196 -5.32317,-6.992216 -7.110614,-11.759856 z"
           id="path975"
           inkscape:connector-curvature="0"
           sodipodi:nodetypes="cccccccccccccccccc" />
        <path
           style="fill:#e9c5aa;stroke:#000000;stroke-width:0;stroke-linecap:butt;stroke-linejoin:miter;stroke-miterlimit:4;stroke-dasharray:none;stroke-opacity:1;fill-opacity:1"
           d="m 45.06306,96.625909 c -0.27595,2.076747 -0.710721,3.439681 -1.11234,4.951611 l 2.390918,-1.687709 C 46.170753,98.903967 45.701937,97.79895 45.06306,96.625909 Z"
           id="path985"
           inkscape:connector-curvature="0"
           sodipodi:nodetypes="cccc" />
        <path
           style="fill:#c89a82;fill-opacity:1;stroke:#000000;stroke-width:0;stroke-linecap:butt;stroke-linejoin:miter;stroke-miterlimit:4;stroke-dasharray:none;stroke-opacity:1"
           d="m 38.50083,101.61268 c 0.215076,1.17993 0.339209,2.38898 0.006,3.29479 -1.026425,0.32705 -0.695129,-0.4028 -1.113589,-0.58742 l 0.966915,4.3599 c 0.49821,-1.71972 1.667276,-2.63078 2.637044,-4.71151 l 5.871816,-2.07448 -0.52741,-2.004151 -2.390918,1.687711 -1.019656,0.31644 c 0.39765,-0.21301 -1.101087,0.61461 -1.828351,0.73837 -1.259794,0.0358 -1.698925,-0.62085 -2.601883,-1.01965 z"
           id="path987"
           inkscape:connector-curvature="0"
           sodipodi:nodetypes="cccccccccccc" />
        <path
           style="fill:#e1e2e8;fill-opacity:1;stroke:#000000;stroke-width:0;stroke-linecap:butt;stroke-linejoin:miter;stroke-miterlimit:4;stroke-dasharray:none;stroke-opacity:1"
           d="m 40.9972,103.96844 5.871816,-2.07448 0.316476,0.94934 1.054817,2.19753 c 4.736991,3.71758 5.203367,2.10045 8.262736,4.83458 1.272493,7.31761 2.687311,14.84871 3.199612,21.02603 -0.417097,5.69601 -0.964941,11.39203 -2.039313,17.08804 l -0.56257,4.21927 c -0.279144,0.4403 -0.558287,1.0329 -0.837431,0.71433 -0.595166,1.45847 -1.238756,3.80684 -1.765223,4.00282 -0.856613,-1.03508 -1.540412,-2.13928 -3.023036,-2.92396 l -1.406425,-0.0352 c -0.875098,0.60939 -1.750679,1.22168 -2.496402,1.05481 l 1.652548,2.74253 c 0.09898,1.95727 0.144593,3.91454 -0.03516,5.87181 l -2.53156,1.969 c -0.205428,0.26016 -0.274962,0.5339 -0.246125,0.81748 0.343532,0.10932 0.688291,0.20513 1.054815,0.0615 l 0.755952,-0.42193 c 1.212174,-0.16495 2.007764,-0.74648 3.00623,-1.12514 l 0.08679,17.94525 c 0.458402,4.91463 0.774261,10.21616 0.58126,16.89888 -0.364062,4.37407 -1.513716,8.43396 -1.511905,12.23589 -0.255868,0.94901 0.844804,2.22834 1.65165,3.33537 l -1.715497,3.8288 c -0.976302,-2.06389 -2.436949,-3.67802 -4.723834,-4.52494 l -3.159276,3.83181 -0.02487,-3.33155 c 0.134179,-0.74844 0.10689,-1.54173 1.045983,-2.06658 l -1.243113,-2.43651 -0.09945,-2.2376 2.06357,-4.64925 c -1.185102,-5.90771 -2.370204,-12.13279 -3.555306,-18.19919 l 0.286281,-2.86343 c -1.143292,-5.89291 -2.467815,-11.06091 -3.269755,-18.31923 -0.355155,5.34107 0.164501,15.82166 -1.143667,15.56378 0.388893,0.16712 0.771295,0.30503 1.342565,1.29284 0.350418,0.89504 -0.231581,1.79009 -0.348073,2.68513 1.99259,0.51001 1.695674,5.69784 2.138157,9.39794 l 1.591185,9.44767 0.895043,5.71832 0.146307,2.19051 c -0.534928,0.30362 -0.628805,0.90128 -0.914175,1.37127 l 1.089977,3.26993 0.03516,2.00415 -0.597728,-0.63289 -2.496402,0.59773 c -4.35364,-2.66593 -6.460968,-3.08555 -7.172759,-2.10963 l 1.687708,-3.55122 c -0.829194,-0.70395 -2.414222,-1.21894 -1.79319,-2.28544 0.892225,-1.62911 1.243619,-3.08241 0.421928,-4.71152 -1.256993,-3.62333 -1.83889,-5.83535 -1.998683,-9.49217 -0.857533,-2.75911 -0.7528,-3.93991 -0.909606,-5.76201 0.03433,-2.40476 -1.805218,-1.76309 -2.266733,-7.69024 l -1.839809,-10.44216 -0.895042,-9.24877 -0.397797,-4.57466 -0.298347,-4.47521 -1.292839,-0.79559 c 0.06996,-1.37377 0.350724,-3.59078 0.795593,-6.4642 l 1.491737,-9.64656 0.149174,-1.44201 c -2.532719,0.2656 -4.715464,-0.72142 -6.986302,-1.76523 -0.09684,-0.6175 -2.088297,-1.7961 -3.406132,-3.05806 -2.008922,-1.28829 -3.00091,-2.69065 -3.791131,-3.71831 l 0.08488,-1.33903 -1.0175865,-2.15272 0.7955935,-1.88953 c 0.398234,0.81217 0.374885,1.62433 1.491737,2.4365 1.038464,-0.0324 1.68664,-0.39008 2.337054,-0.74587 l 0.646419,-1.83981 -0.04972,-0.79559 0.149173,-1.69064 c -0.09625,1.04986 1.375239,1.17333 2.685127,1.39229 v 2.13816 l 2.386779,1.19339 0.198898,0.89504 2.088432,0.99449 c -0.663613,-1.02763 -1.983032,-2.04187 0.447521,-3.13265 l 1.143665,-2.2376 0.372934,-0.42266 0.969629,-5.44484 1.093941,-2.93375 1.392288,-2.38678 c 0.735917,-0.613 2.514023,-0.84702 4.25261,-1.09541 1.187976,-0.46306 2.345044,-0.93127 3.255799,-1.44054 l 1.044215,-2.13816 1.918661,-0.93924 c 0.19637,0.85532 0.251873,1.73914 -0.05883,2.42444 -0.842544,0.34805 -0.823565,-0.29796 -1.113592,-0.58742 l 0.966917,4.3599 c 0.653721,-1.68951 1.796012,-2.90871 2.637055,-4.71147 z"
           id="path999"
           inkscape:connector-curvature="0"
           sodipodi:nodetypes="ccccccccccccccccccccccccccccccccccccccccccccccccccccccccccccccccccccccccccccccccccccccccccccc" />
        <path
           style="fill:#e9c5aa;stroke:#000000;stroke-width:0;stroke-linecap:butt;stroke-linejoin:miter;stroke-miterlimit:4;stroke-dasharray:none;stroke-opacity:1;fill-opacity:1"
           d="m 11.427187,106.46484 c -0.658925,0.79697 -0.967359,1.59395 -1.160299,2.39092 l -1.2306201,2.07447 0.4219268,1.30094 0.492248,2.1448 0.5274083,0.56257 -0.421926,1.93383 c -0.1351835,0.45599 0.318874,0.83205 0.386766,1.19546 l 0.03516,0.91417 0.26264,1.69466 c 0.258698,1.01096 0.673084,1.89217 1.491737,2.4365 0.694766,-0.0801 1.369825,-0.12082 2.337054,-0.74587 0.281932,-0.61327 0.453439,-1.22654 0.646419,-1.83981 l 0.09945,-2.48623 1.210317,-2.46982 0.03516,-0.9845 -1.336102,-2.10963 -0.351605,-3.69186 c -0.08716,-0.22269 -0.283092,-0.44537 -1.019657,-0.66806 l -0.351606,0.42193 0.246124,4.18411 c -0.404328,0.52895 -0.779713,1.19539 -1.547062,0 l -0.07032,-1.40642 0.879015,-1.19546 c 0.05459,-0.42267 -0.414064,-0.63604 -0.808693,-0.87902 l -0.879015,0.63289 0.808693,-2.28543 c 0.147742,-1.13934 -0.308529,-1.07065 -0.703213,-1.12514 z"
           id="path1009"
           inkscape:connector-curvature="0"
           sodipodi:nodetypes="cccccccccccccccccccccccccccc" />
        <path
           style="fill:#e9c5aa;fill-opacity:1;stroke:#000000;stroke-width:0;stroke-linecap:butt;stroke-linejoin:miter;stroke-miterlimit:4;stroke-dasharray:none;stroke-opacity:1"
           d="m 47.572257,155.02155 c 0.5163,-0.0668 0.694178,0.20585 2.496402,-1.05481 0.366194,-0.0256 0.559096,-0.11418 1.406425,0.0352 1.149347,0.57798 2.105622,1.69657 3.023036,2.92396 -0.46031,1.27647 -0.7718,3.56653 -0.421155,6.53423 -1.050071,0.64102 -2.394324,0.89727 -2.84801,1.4767 -1.000267,0.3764 -1.64963,1.01598 -3.006227,1.12514 l -0.755955,0.42193 c -0.288004,0.19074 -1.274894,-0.1006 -1.054813,-0.0615 -0.06372,-0.29899 0.05299,-0.56519 0.246125,-0.81748 l 2.53156,-1.969 c 0.173052,-1.86763 0.08827,-3.86634 0.03516,-5.87181 z"
           id="path1011"
           inkscape:connector-curvature="0"
           sodipodi:nodetypes="ccccccccccccc" />
      </g>
      <path
         sodipodi:nodetypes="ccsccccccccccccccc"
         inkscape:connector-curvature="0"
         id="path1013"
         d="m 32.207075,215.18127 c -0.564088,1.05408 -1.186457,2.07901 -3.586366,2.21518 -2.858942,-0.0319 -4.44635,1.01479 -5.253277,1.64641 -1.384669,1.08386 -1.715906,1.78906 -2.411729,2.50254 0.243584,0.93382 4.698261,1.10198 11.110741,0.91418 1.617979,-0.94058 3.066984,-1.03629 4.500554,-1.05482 l 0.281284,1.19546 c 1.570776,-0.0971 2.894332,-0.15897 3.164454,-0.0703 l 1.476743,-1.61739 c -1.705912,3.3852 -1.024219,3.83181 -0.351605,4.28959 5.463325,1.62713 8.583893,0.50946 11.085878,-0.7572 -0.752952,-1.18924 -0.449556,-0.47659 -1.266513,-2.63455 l -0.635985,-2.62936 c -1.308586,-2.92712 -3.029817,-3.65346 -4.723833,-4.52494 l -3.159276,3.83181 c 0.03515,-0.64916 0.340197,-1.36011 -0.561909,-1.79469 l -2.496402,0.59773 c -2.562116,-1.21681 -5.479263,-3.4987 -7.172759,-2.10965 z"
         style="fill:#805d3f;fill-opacity:1;stroke:#000000;stroke-width:0;stroke-linecap:butt;stroke-linejoin:miter;stroke-miterlimit:4;stroke-dasharray:none;stroke-opacity:1" />
    </g>
    <path
       style="fill:none;stroke:#000000;stroke-width:0.26458332px;stroke-linecap:butt;stroke-linejoin:miter;stroke-opacity:1"
       d="M 222.49612,128.22923 Z"
       id="path1055"
       inkscape:connector-curvature="0" />
  </g>
</svg>
