<svg width="210" height="43" viewBox="0 0 210 43" fill="none" xmlns="http://www.w3.org/2000/svg">
<rect x="0.179932" y="0.010437" width="208.961" height="42.9896" rx="5" fill="#3B5998"/>
<g clip-path="url(#clip0)">
<path d="M40.1285 22.0708C40.1285 13.636 33.0201 6.79822 24.2515 6.79822C15.4829 6.79822 8.37451 13.636 8.37451 22.0708C8.37451 29.6937 14.1805 36.0122 21.7707 37.1579V26.4856H17.7394V22.0708H21.7707V18.7061C21.7707 14.8784 24.1411 12.7641 27.7677 12.7641C29.5042 12.7641 31.3217 13.0624 31.3217 13.0624V16.8209H29.3197C27.3475 16.8209 26.7323 17.9982 26.7323 19.2072V22.0708H31.1356L30.4317 26.4856H26.7323V37.1579C34.3225 36.0122 40.1285 29.6937 40.1285 22.0708Z" fill="#3B5998"/>
<path d="M30.4318 26.4856L31.1357 22.0709H26.7323V19.2072C26.7323 17.9994 27.3476 16.8209 29.3198 16.8209H31.3218V13.0624C31.3218 13.0624 29.5049 12.7641 27.7677 12.7641C24.1411 12.7641 21.7708 14.8784 21.7708 18.7061V22.0709H17.7395V26.4856H21.7708V37.1579C23.4146 37.4053 25.0885 37.4053 26.7323 37.1579V26.4856H30.4318Z" fill="white"/>
</g>
<path d="M13.3745 7.04822H35.1285V6.54822H13.3745V7.04822ZM39.8785 11.7982V32.3435H40.3785V11.7982H39.8785ZM35.1285 37.0935H13.3745V37.5935H35.1285V37.0935ZM8.62451 32.3435V11.7982H8.12451V32.3435H8.62451ZM13.3745 37.0935C10.7512 37.0935 8.62451 34.9668 8.62451 32.3435H8.12451C8.12451 35.243 10.475 37.5935 13.3745 37.5935V37.0935ZM39.8785 32.3435C39.8785 34.9668 37.7518 37.0935 35.1285 37.0935V37.5935C38.028 37.5935 40.3785 35.243 40.3785 32.3435H39.8785ZM35.1285 7.04822C37.7518 7.04822 39.8785 9.17487 39.8785 11.7982H40.3785C40.3785 8.89872 38.028 6.54822 35.1285 6.54822V7.04822ZM13.3745 6.54822C10.475 6.54822 8.12451 8.89873 8.12451 11.7982H8.62451C8.62451 9.17487 10.7512 7.04822 13.3745 7.04822V6.54822Z" fill="black"/>
<defs>
<clipPath id="clip0">
<path d="M8.37451 11.7982C8.37451 9.0368 10.6131 6.79822 13.3745 6.79822H35.1285C37.8899 6.79822 40.1285 9.03679 40.1285 11.7982V32.3435C40.1285 35.1049 37.8899 37.3435 35.1285 37.3435H13.3745C10.6131 37.3435 8.37451 35.1049 8.37451 32.3435V11.7982Z" fill="white"/>
</clipPath>
</defs>
</svg>
