<svg width="318" height="791" viewBox="0 0 318 791" fill="none" xmlns="http://www.w3.org/2000/svg">
<path d="M118.585 195.432L113.407 211.123L80.9238 234.204C72.8364 286.953 64.7136 339.876 59.1894 393.275C58.0845 397.275 56.0724 401.677 53.703 406.716C57.2459 413.622 60.5797 420.316 63.7827 426.877C63.0146 427.218 61.1875 431.605 60.1151 435.555C59.157 439.737 59.3267 443.203 56.7652 447.038C64.6151 450.857 73.2004 453.559 82.4111 455.31C84.7732 453.037 86.1866 442.284 87.6423 434.502C89.4094 433.127 90.9627 430.736 96.3185 427.911C98.3143 418.011 97.5325 405.919 96.191 395.343L101.677 385.65C103.402 374.793 104.609 366.302 104.612 345.973L107.291 331.628L111.63 348.429L105.76 353.857L112.778 361.74C110.674 364.325 107.962 366.393 106.526 368.978L101.039 414.47L96.4461 443.937L108.185 407.233L109.46 430.754C140.146 447.986 170.636 457.169 199.285 457.894C208.54 455.541 202.121 440.421 199.285 428.428L209.237 450.657C215.23 450.034 221.843 450.584 230.545 448.589L244.707 433.339L247.259 447.297L257.977 441.869L252.363 424.551C253.136 421.261 255.254 415.247 256.701 410.593L250.577 392.241C249.555 379.173 244.618 364.783 239.604 350.367L233.479 336.41C233.689 331.326 233.414 329.603 232.969 324.52C236.714 331.474 220.66 262.645 211.279 227.849C209.495 219.19 173.767 210.014 173.767 210.014C169.244 195.309 164.424 188.451 159.221 191.662C158.959 197.262 157.915 202.862 158.711 208.463C156.097 208.484 154.183 209.218 152.586 210.272C151.633 207.55 150.178 205.847 148.759 204.069L118.585 195.432Z" fill="#E8EBF4"/>
<path d="M108.185 407.233C103.953 419.209 100.077 431.474 96.4462 443.937L89.7367 495.632C91.1967 497.033 93.2684 497.229 95.6806 497.183L95.0363 500.802L99.2532 501.577C98.7595 502.603 97.8486 503.559 98.7119 504.815C105.332 508.431 113.361 512.029 120.928 514.927L121.199 509.59C126.936 512.89 133.729 514.476 140.621 516.84C143.203 516.361 145.766 516.914 149.014 515.535L149.915 514.335C162 515.647 174.568 515.256 184.739 519.154L184.814 515.843L217.913 512.433V509.073C227.764 503.215 236.832 499.704 247.363 497.29L247.004 493.564L258.441 488.562L247.259 447.297L244.708 433.339L230.672 447.038C235.705 446.12 218.916 449.697 209.237 450.657C208.424 444.093 202.815 435.91 199.285 428.428C199.285 438.924 199.285 449.417 199.285 457.894C200.048 458.095 136.739 441.574 109.461 430.754C109.517 423.109 108.665 415.096 108.185 407.233Z" fill="#E1E2E8"/>
<path d="M124.486 190.066L126.11 197.743L148.759 204.069C150.349 206.136 151.715 208.204 152.586 210.272L158.711 208.463L159.221 191.662L158.59 189.925C155.354 191.597 152.077 193.199 148.485 194.27C138.403 195.33 131.851 192.217 124.486 190.066Z" fill="#E7C9AC"/>
<path d="M100.487 168.134C106.725 175.062 109.413 181.22 124.486 190.066C129.557 192.648 134.774 194.934 141.267 194.636C143.69 194.583 146.275 195.188 148.485 194.27C154.735 194.281 155.894 191.714 158.59 189.925C162.768 187.496 166.671 185.543 174.108 177.455C178.281 173.408 178.749 171.612 180.784 168.865L182.514 162.878C183.055 162.963 183.851 161.893 184.393 161.554C185.222 160.929 185.994 159.952 186.738 158.812C187.684 157.055 187.574 155.061 187.821 153.146C187.754 151.204 187.731 149.701 187.418 148.008C187.472 147.741 186.944 146.778 186.866 146.245C183.277 147.49 182.318 149.441 180.603 151.319L182.949 127.924L179.34 135.235C178.577 129.35 182.357 125.076 175.551 117.049L170.86 116.135L174.739 120.887C170.319 118.766 165.596 116.891 159.492 116.135C154.897 116.616 153.936 118.148 151.462 119.242L153.357 116.958C125.806 118.509 126.537 110.861 119.073 106.174C126.398 115.384 130.193 124.782 143.342 133.681C133.095 131.635 125.606 126.797 117.626 122.454C109.326 121.513 105.941 131.773 100.146 136.541C100.396 141.16 102.066 145.299 105.378 148.884C105.378 148.884 96.4462 143.068 96.5737 143.585C93.6268 144.017 102.741 164.02 111.63 164.263C106.829 163.812 102.332 164.591 96.5737 160.257L105.122 169.303L100.487 168.134Z" fill="#F5D6B8"/>
<path d="M82.5387 164.004C83.2768 167.251 80.2672 166.701 87.132 176.153C92.0213 179.002 96.8215 181.203 101.295 181.71C105.886 181.876 107.632 180.394 109.971 179.255C106.816 175.545 105.439 171.181 100.487 168.134L85.4733 158.964C87.9047 163.358 89.2939 167.752 94.9151 172.147C88.9561 169.167 86.333 166.671 82.5387 164.004Z" fill="#F5D6B8"/>
<path d="M110.931 510.55C117.329 527.959 117.653 549.295 117.629 572.059L111.494 614.097C112.724 639.148 116.709 658.973 121.058 680.991L123.945 679.712L127.554 681.905L129.178 677.336L137.839 676.057L146.584 679.819L147.222 656.683L149.207 632.922L149.748 614.463C149.327 604.837 149.544 585.926 149.123 584.68L153.092 561.793L159.28 514.99L149.914 514.335C138.416 517.669 139.089 516.986 140.621 516.84C127.904 512.461 124.225 510.923 121.199 509.59L120.928 514.927L110.931 510.55Z" fill="#FEDEC2"/>
<path d="M193.671 515.018L210.482 575.609C210.003 590.036 210.351 597.304 210.513 605.227C211.02 609.891 210.188 609.312 213.799 620.522L232.639 673.068L237.307 675.275L245.218 671.656L259.253 671.398L260.529 668.813L255.425 645.808C252.989 628.647 252.967 615.971 245.218 588.943L246.239 571.883C246.933 568.677 244.834 555.165 242.666 544.226L237.562 500.285C232.419 500.772 225.42 504.482 217.913 509.073L217.913 512.433C215.064 512.34 200.791 513.509 193.67 515.018H193.671Z" fill="#FEDEC2"/>
<path d="M62.6872 449.333C53.8105 453.124 46.0681 457.007 38.8495 460.798C6.32059 461.242 -0.400243 466.189 0.0179269 468.57C0.281144 469.248 4.57482 468.745 16.3328 467.368C9.34193 469.453 6.70811 470.719 6.08194 471.36C3.68075 473.817 4.8153 474.649 4.59442 474.807C7.3341 476.427 20.1185 470.722 24.5876 469.238C17.5711 471.919 14.6826 474.386 17.2337 476.582L36.4627 470.014C53.8816 471.716 51.6475 470.02 55.1065 470.242L64.0379 468.234C67.8655 469.365 67.5479 470.225 67.8657 471.594C61.4129 481.379 63.0901 488.185 63.2724 488.137C66.8405 487.394 69.3994 483.65 71.1411 479.413C71.6786 478.106 73.9511 475.347 75.4573 473.274C76.2832 470.233 77.7159 465.352 78.073 461.836C78.6401 459.98 80.0885 457.066 82.4111 455.31C73.8739 453.352 69.4391 452.081 62.6872 449.333Z" fill="#FEDEC2"/>
<path d="M247.259 447.297L253.592 470.164L264.058 481.222C266.991 482.636 268.698 482.497 270.734 482.775C271.601 482.868 271.579 482.07 271.275 479.303C270.074 477.055 266.885 474.203 263.336 471.718C264.061 468.392 265.155 465.014 269.2 461.208C276.79 461.427 284.27 462.084 293.018 458.01C293.465 457.848 294.454 456.614 294.462 453.806C285.749 453.746 279.093 453.89 271.726 453.349C265.318 452.677 258.81 448.801 253.592 444.028L247.259 447.297Z" fill="#FEDEC2"/>
<path d="M101.729 106.366C111.121 116.848 120.542 129.433 143.342 133.681C133.879 126.537 129.071 118.748 119.073 106.174C126.675 114.574 135.941 124.746 159.619 119.237C165.693 119.817 170.355 118.596 174.739 120.887L170.86 116.135L175.551 117.049C182.023 125.206 174.098 133.022 179.34 135.235L182.949 127.924L180.603 151.319C182.395 149.328 183.504 146.645 186.866 146.245C188.769 154.18 187.352 155.723 186.738 158.813L197.023 157.716C191.505 155.972 190.762 153.019 190.608 149.917C200.211 152.892 204.412 147.908 210.64 145.911C198.76 146.048 193.77 141.897 196.86 133.763C204.372 134.25 211.695 133.851 217.53 126.525C209.752 127.7 201.997 128.853 204.516 119.934L209.237 118.642L206.94 117.737C212.367 113.379 215.597 108.131 219.444 103.133C214.493 104.796 211.372 109.935 204.005 107.01C207.899 102.549 209.452 97.4103 211.023 92.2768C205.482 97.1934 200.148 99.8061 194.946 100.936L194.691 93.3107L193.288 95.12L188.822 91.2428C196.089 87.6546 204.643 90.4745 208.088 67.8506C205.846 73.4497 195.03 82.5963 176.573 72.5032C182.49 68.7517 186.392 63.3303 188.567 56.4775C182.384 59.8875 179.272 66.2078 163.176 60.2255C169.414 55.4535 170.297 49.43 172.363 43.6828C165.157 60.9248 150.682 55.4652 134.341 54.4097L142.889 40.3226C136.465 46.358 133.231 53.8211 112.905 53.6343C104.487 56.9855 103.732 62.0618 99.2528 66.2997C92.2209 58.5588 85.3572 50.7861 85.8558 41.615C84.9162 35.164 83.1119 29.8811 88.6628 19.7736C92.2877 11.3838 97.7017 8.06793 103.719 6.46194C110.91 6.05835 117.823 6.00845 123.112 8.01281C131.58 12.8808 130.744 17.7488 133.065 22.6169C133.495 25.8918 133.687 29.1265 131.278 31.9221L135.106 25.5893V13.3116C132.81 1.7572 125.627 0.553219 118.136 0C101.425 3.12998 98.9022 6.88478 92.4905 10.4683C88.4202 18.2696 80.8434 26.5148 80.3693 33.8607C78.7616 39.2698 77.084 44.693 77.8175 49.6278C81.4159 58.2607 88.0433 63.8254 96.4459 67.5921C90.3057 68.0946 86.4736 64.297 72.969 84.1347C66.5034 86.0105 60.0378 84.0411 53.5722 81.1343C56.6552 87.1536 61.863 89.4065 67.6467 90.6385C60.5493 94.8035 53.452 94.8218 46.3546 92.1007C51.5671 100.604 59.4429 101.913 68.7294 99.4115C65.176 106.063 62.5043 113.071 55.7375 118.42C46.5789 119.39 43.8096 116.765 40.5804 114.399C45.7441 121.867 46.9481 131.34 68.9098 130.3C65.7346 137.247 59.9506 137.587 54.1136 137.794L60.9704 140.901C57.1537 146.894 50.0113 147.139 39.4978 146.201C48.2659 151.205 56.9993 157.832 71.6164 156.254C69.3079 162.703 65.0496 163.227 61.5117 165.94L77.0297 161.737L82.5384 164.005C86.0668 167.15 89.1175 170.642 94.9148 172.147C90.1431 168.693 87.9513 163.745 85.473 158.964L100.487 168.134L105.122 169.303L96.5735 160.257C102.04 165.416 106.823 164.807 111.629 164.263C100.435 159.101 99.3033 151.017 96.5735 143.585L105.377 148.884C102.746 145.725 100.865 142.859 100.146 136.541C97.8366 126.821 98.2541 116.776 101.728 106.366H101.729Z" fill="#C26526"/>
<path d="M101.729 106.366C97.0572 117.624 98.1694 127.208 100.146 136.541L110.332 128.449L117.626 122.454L101.729 106.366Z" fill="#F5D6B8"/>
<path d="M77.0297 161.737C77.2612 171.097 76.171 178.904 61.7827 181.75C73.1121 182.135 88.043 186.349 92.4577 178.826C94.3879 180.097 88.8892 176.947 87.4928 176.062C83.7338 170.634 83.7519 168.875 82.5387 164.004L77.0297 161.737Z" fill="#C26526"/>
<path d="M92.4576 178.826C90.8189 183.599 89.763 185.717 88.5781 188.421C91.6557 186.144 95.0103 184.333 97.4198 180.928L92.4576 178.826Z" fill="#C26526"/>
<path d="M105.089 181.202C104.738 185.844 102.667 190.328 99.6754 194.727C103.835 192.489 108.449 192.735 111.494 184.4C113.269 186.563 115.043 188.559 116.817 189.518L118.532 190.066C119.524 192.107 119.309 193.025 120.877 195.915L126.11 197.743L124.486 190.066L109.971 179.255L105.089 181.202Z" fill="#C26526"/>
<path d="M159.221 191.662C160.476 191.047 161.785 190.507 164.454 191.802V190.523C166.769 191.779 168.92 193.167 173.566 192.534C170.502 190.986 167.263 189.724 166.529 184.4L158.59 189.925L159.221 191.662Z" fill="#C26526"/>
<path d="M115.103 687.388C127.382 724.017 126.056 742.077 127.193 761.776L120.516 786.085C127.454 788.389 129.995 791.732 150.47 790.837C159.95 790.879 169.686 791.823 178.258 788.644C180.805 783.615 171.113 764.003 166.349 750.262C160.74 736.244 159.323 719.571 155.883 704.203L153.718 676.788C151.103 676.599 148.717 677.57 146.584 679.819L137.839 676.057L129.178 677.336L127.554 681.905C122.701 677.758 122.744 680.611 121.058 680.991C118.658 682.494 115.695 683.139 115.103 687.388Z" fill="#856340"/>
<path d="M229.397 678.118L247.932 732.077L248.579 750.612L250.92 770.622C250.238 774.883 249.433 779.395 251.087 778.925C252.318 780.636 252.909 782.186 255.936 784.353C266.398 789.605 276.861 788.848 287.323 789.522C295.864 789.777 304.973 789.686 315.904 788.488C318.321 787.438 318.373 785.019 317.435 782.026C315.586 776.803 303.201 769.801 296 763.674L292.427 759.797L277.371 724.644L270.736 694.402V684.321L267.419 677.343L265.231 668.015L260.529 668.813L259.253 671.398L245.218 671.656L237.307 675.275L232.639 673.069C228.124 675.068 228.742 676.595 229.397 678.118H229.397Z" fill="#856340"/>
</svg>
