<svg width="292" height="821" viewBox="0 0 292 821" fill="none" xmlns="http://www.w3.org/2000/svg">
<path d="M144.081 76.6645C148.884 85.7791 150.323 89.509 156.938 97.8298C164.552 107.408 162.238 103.833 175.747 121.041C170.15 107.78 161.954 94.9114 159.07 82.2761C170.28 99.9598 185.055 114.359 199.598 128.971C201.411 140.01 201.258 149.962 201.219 159.976L207.629 133.672C214.773 145.085 215.784 155.691 219.861 166.7L228.609 135.627C232.895 143.155 237.593 150.846 239.314 157.361C236.714 147.472 235.543 139.088 236.376 127.943C236.855 123.606 235.616 117.949 236.477 101.327C238.843 103.069 242.803 104.412 243.367 108.052L244.178 116.643C248.526 102.193 259.462 92.6005 268.899 81.9025L247.015 96.2844C251.711 83.5212 257.605 70.758 263.631 57.9948L246.812 76.6727C245.789 71.5119 246.288 67.2572 244.786 59.1155C243.124 55.3302 241.467 52.3406 238.2 47.8154C230.7 40.8978 216.384 32.5505 202.346 23.9077C191.698 17.3523 185.748 7.96922 180.246 0L190.681 21.3862C169.798 21.4862 163.971 11.0731 154.713 0.9339C156.189 9.44898 160.925 18.1467 168.898 24.468C144.514 30.8962 119.064 40.3339 102.737 24.0011C108.684 30.5973 108.681 37.7286 124.622 43.4261C108.978 54.2989 98.0591 55.8094 87.7418 56.127C95.7968 58.243 104.411 57.6081 113.274 55.7534C104.464 77.4379 104.719 103.78 77.2047 111.04C88.5092 112.106 99.8724 113.416 110.437 111.414C111.904 119.318 106.734 122.084 98.6842 122.62C103.601 122.758 104.443 124.548 118.137 121.126C122.549 127.866 122.164 133.723 123.001 139.804L125.027 121.873L138.401 130.465C133.084 122.414 126.767 114.782 125.432 105.063C126.952 87.6088 128.747 70.4937 134.767 58.5706L144.081 76.6645Z" fill="#201F24"/>
<path d="M235.971 101.328C236.543 110.691 236.549 121.969 236.459 130.935C238.874 127.496 241.762 122.617 244.178 116.643L243.539 108.41C241.465 103.249 238.033 102.766 235.971 101.328Z" fill="#E9C5AA"/>
<path d="M134.767 58.5706C129.276 70.0802 126.737 86.5375 125.432 105.063C127.314 110.593 123.805 109.635 138.401 130.465L125.027 121.873L127.256 129.531C128.723 133.089 131.695 135.953 134.146 139.057C135.635 140.604 137.694 142.507 141.846 143.353C142.859 146.082 144.075 146.411 145.088 147.835C148.497 151.303 152.246 153.198 156.031 154.933L169.81 160.163L178.118 164.459C179.697 165.072 181.354 165.656 184.805 165.579C189.575 164.736 192.431 163.186 195.342 161.657L201.219 159.976C201.888 151.87 201.598 141.998 199.598 128.971C181.362 113.325 171.403 99.1263 159.07 82.276C162.692 95.9118 169.575 108.345 175.747 121.041C162.322 103.653 145.069 83.8971 134.767 58.5706Z" fill="#E9C5AA"/>
<path d="M207.629 133.672C206.039 144.704 203.533 151.944 201.218 159.976L214.998 151.011C214.013 145.774 211.311 139.904 207.629 133.672Z" fill="#E9C5AA"/>
<path d="M169.81 160.163C171.049 166.431 171.765 172.853 169.845 177.665C163.929 179.403 165.838 175.526 163.427 174.545L168.999 197.705C171.87 188.57 178.608 183.73 184.197 172.677L218.037 161.657L214.998 151.011L201.218 159.976L195.342 161.657C197.634 160.525 188.996 164.922 184.805 165.579C177.544 165.77 175.014 162.281 169.81 160.163H169.81Z" fill="#C89A82"/>
<path d="M184.197 172.677L218.037 161.657L219.861 166.7L225.94 178.374C253.24 198.122 255.928 189.532 273.56 204.056C280.894 242.928 289.047 282.935 292 315.75C289.596 346.008 286.439 376.266 280.247 406.524L277.005 428.937C275.396 431.276 273.787 434.424 272.179 432.732C268.749 440.48 265.039 452.955 262.005 453.996C257.068 448.497 253.128 442.632 244.583 438.463L236.477 438.276C231.434 441.513 226.388 444.766 222.09 443.88L231.614 458.448C232.185 468.846 232.447 479.243 231.411 489.64L216.822 500.1C215.638 501.482 215.237 502.936 215.403 504.443C217.383 505.023 219.37 505.532 221.482 504.769L225.839 502.528C232.825 501.652 237.41 498.562 243.164 496.551L243.665 591.879C246.306 617.986 248.127 646.149 247.015 681.649C244.916 704.885 238.291 726.451 238.301 746.648C236.827 751.689 243.17 758.485 247.82 764.366L237.933 784.705C232.307 773.741 223.889 765.167 210.709 760.668L192.501 781.023L192.358 763.325C193.131 759.349 192.974 755.135 198.386 752.347L191.222 739.404L190.649 727.518L202.541 702.82C195.712 671.437 188.882 638.369 182.052 606.143L183.701 590.932C177.112 559.628 169.479 532.175 164.857 493.617C162.81 521.99 165.805 577.664 158.266 576.295C160.507 577.182 162.711 577.915 166.004 583.162C168.023 587.917 164.669 592.672 163.998 597.426C175.481 600.135 173.77 627.694 176.32 647.35L185.49 697.537L190.649 727.914L191.492 739.55C188.409 741.163 187.868 744.338 186.223 746.835L192.505 764.205L192.708 774.851L189.263 771.489L174.876 774.664C149.785 760.503 137.64 758.274 133.538 763.458L143.264 744.593C138.486 740.854 129.351 738.118 132.93 732.452C138.072 723.798 140.097 716.078 135.361 707.424C128.117 688.176 124.764 676.426 123.843 657C118.901 642.343 119.504 636.071 118.6 626.391C118.798 613.617 108.197 617.026 105.537 585.54L94.9337 530.069L89.7754 480.938L87.4828 456.637L85.7633 432.864L78.3125 428.637C78.7157 421.34 80.3338 409.563 82.8976 394.299L91.4948 343.054L92.3545 335.394C77.758 336.805 65.1784 331.562 52.0911 326.017C51.533 322.737 40.0559 316.476 32.4609 309.772C20.8831 302.929 15.1661 295.479 10.6119 290.02L11.1011 282.907L5.23657 271.471L9.82173 261.434C12.1168 265.748 11.9823 270.062 18.4189 274.377C24.4038 274.205 28.1393 272.305 31.8878 270.415L35.6132 260.641L35.3267 256.415L36.1864 247.434C35.6317 253.011 44.1121 253.667 51.6613 254.83V266.188L65.4167 272.528L66.563 277.282L78.5991 282.565C74.7745 277.106 67.1705 271.719 81.1782 265.924L87.7693 254.038L89.9186 251.792L95.5068 222.868L101.811 207.284L109.835 194.605C114.077 191.349 124.324 190.105 134.344 188.786C141.191 186.326 147.859 183.839 153.108 181.134L159.126 169.775L170.183 164.786C171.315 169.33 171.635 174.025 169.844 177.665C164.989 179.514 165.098 176.082 163.427 174.544L168.999 197.705C172.767 188.73 179.35 182.253 184.197 172.677L184.197 172.677Z" fill="#E1E2E8"/>
<path d="M13.7793 185.938C9.98181 190.172 8.20424 194.406 7.09229 198.639L0 209.659L2.43164 216.57L5.26856 227.963L8.30812 230.952L5.87648 241.225C5.09739 243.647 7.71421 245.645 8.10548 247.575L8.30812 252.431L9.82176 261.434C11.3127 266.804 13.7009 271.485 18.4189 274.377C22.423 273.951 26.3135 273.735 31.8878 270.415C33.5126 267.157 34.5011 263.899 35.6132 260.641L36.1864 247.434L43.1617 234.314L43.3643 229.084L35.6641 217.877L33.6377 198.266C33.1354 197.083 32.0062 195.9 27.7613 194.717L25.7349 196.958L27.1533 219.185C24.8231 221.995 22.6597 225.535 18.2373 219.185L17.8321 211.714L22.898 205.363C23.2126 203.118 20.5117 201.985 18.2373 200.694L13.1714 204.056L17.8321 191.915C18.6835 185.863 16.054 186.228 13.7793 185.938Z" fill="#E9C5AA"/>
<path d="M222.09 443.88C225.066 443.525 226.091 444.973 236.478 438.276C238.588 438.14 239.7 437.67 244.583 438.463C251.207 441.534 256.718 447.476 262.005 453.996C259.353 460.777 257.557 472.942 259.578 488.707C253.526 492.112 245.779 493.473 243.165 496.551C237.4 498.551 233.657 501.948 225.839 502.528L221.482 504.77C219.823 505.783 214.135 504.235 215.403 504.443C215.036 502.854 215.709 501.44 216.822 500.1L231.412 489.641C232.409 479.719 231.92 469.102 231.614 458.449L222.09 443.88Z" fill="#E9C5AA"/>
<path d="M133.538 763.458C130.287 769.057 126.7 774.502 112.869 775.225C96.3922 775.056 87.2437 780.616 82.5932 783.971C74.6131 789.729 72.7041 793.475 68.694 797.265C70.0978 802.226 95.7709 803.119 132.727 802.121C142.052 797.125 150.403 796.617 158.665 796.518L160.286 802.869C169.339 802.353 176.966 802.024 178.523 802.495L187.034 793.903C177.203 811.886 181.131 814.259 185.008 816.69C216.494 825.334 234.478 819.397 248.898 812.668C244.558 806.35 246.307 810.136 241.598 798.673L237.933 784.705C230.392 769.156 220.472 765.297 210.709 760.668L192.501 781.023C192.704 777.575 194.462 773.798 189.263 771.489L174.876 774.665C160.11 768.201 143.298 756.079 133.538 763.458Z" fill="#805D3F"/>
</svg>
