<svg width="1821" height="831" viewBox="0 0 1821 831" fill="none" xmlns="http://www.w3.org/2000/svg">
<path d="M118.585 220.432L113.407 236.123L80.9238 259.204C72.8364 311.953 64.7136 364.876 59.1894 418.275C58.0845 422.275 56.0724 426.677 53.703 431.716C57.2459 438.622 60.5797 445.316 63.7827 451.877C63.0146 452.218 61.1875 456.605 60.1151 460.555C59.157 464.737 59.3267 468.203 56.7652 472.038C64.6151 475.857 73.2004 478.559 82.4111 480.31C84.7732 478.037 86.1866 467.284 87.6423 459.502C89.4094 458.127 90.9627 455.736 96.3185 452.911C98.3143 443.011 97.5325 430.919 96.191 420.343L101.677 410.65C103.402 399.793 104.609 391.302 104.612 370.973L107.291 356.628L111.63 373.429L105.76 378.857L112.778 386.74C110.674 389.325 107.962 391.393 106.526 393.978L101.039 439.47L96.4461 468.937L108.185 432.233L109.46 455.754C140.146 472.986 170.636 482.169 199.285 482.894C208.54 480.541 202.121 465.421 199.285 453.428L209.237 475.657C215.23 475.034 221.843 475.584 230.545 473.589L244.707 458.339L247.259 472.297L257.977 466.869L252.363 449.551C253.136 446.261 255.254 440.247 256.701 435.593L250.577 417.241C249.555 404.173 244.618 389.783 239.604 375.367L233.479 361.41C233.689 356.326 233.414 354.603 232.969 349.52C236.714 356.474 220.66 287.645 211.279 252.849C209.495 244.19 173.767 235.014 173.767 235.014C169.244 220.309 164.424 213.451 159.221 216.662C158.959 222.262 157.915 227.862 158.711 233.463C156.097 233.484 154.183 234.218 152.586 235.272C151.633 232.55 150.178 230.847 148.759 229.069L118.585 220.432Z" fill="#E8EBF4"/>
<path d="M108.185 432.233C103.953 444.209 100.077 456.474 96.4462 468.937L89.7367 520.632C91.1967 522.033 93.2684 522.229 95.6806 522.183L95.0363 525.802L99.2532 526.577C98.7595 527.603 97.8486 528.559 98.7119 529.815C105.332 533.431 113.361 537.029 120.928 539.927L121.199 534.59C126.936 537.89 133.729 539.476 140.621 541.84C143.203 541.361 145.766 541.914 149.014 540.535L149.915 539.335C162 540.647 174.568 540.256 184.739 544.154L184.814 540.843L217.913 537.433V534.073C227.764 528.215 236.832 524.704 247.363 522.29L247.004 518.564L258.441 513.562L247.259 472.297L244.708 458.339L230.672 472.038C235.705 471.12 218.916 474.697 209.237 475.657C208.424 469.093 202.815 460.91 199.285 453.428C199.285 463.924 199.285 474.417 199.285 482.894C200.048 483.095 136.739 466.574 109.461 455.754C109.517 448.109 108.665 440.096 108.185 432.233Z" fill="#E1E2E8"/>
<path d="M124.486 215.066L126.11 222.743L148.759 229.069C150.349 231.136 151.715 233.204 152.586 235.272L158.711 233.463L159.221 216.662L158.59 214.925C155.354 216.597 152.077 218.199 148.485 219.27C138.403 220.33 131.851 217.217 124.486 215.066Z" fill="#E7C9AC"/>
<path d="M100.487 193.134C106.725 200.062 109.413 206.22 124.486 215.066C129.557 217.648 134.774 219.934 141.267 219.636C143.69 219.583 146.275 220.188 148.485 219.27C154.735 219.281 155.894 216.714 158.59 214.925C162.768 212.496 166.671 210.543 174.108 202.455C178.281 198.408 178.749 196.612 180.784 193.865L182.514 187.878C183.055 187.963 183.851 186.893 184.393 186.554C185.222 185.929 185.994 184.952 186.738 183.812C187.684 182.055 187.574 180.061 187.821 178.146C187.754 176.204 187.731 174.701 187.418 173.008C187.472 172.741 186.944 171.778 186.866 171.245C183.277 172.49 182.318 174.441 180.603 176.319L182.949 152.924L179.34 160.235C178.577 154.35 182.357 150.076 175.551 142.049L170.86 141.135L174.739 145.887C170.319 143.766 165.596 141.891 159.492 141.135C154.897 141.616 153.936 143.148 151.462 144.242L153.357 141.958C125.806 143.509 126.537 135.861 119.073 131.174C126.398 140.384 130.193 149.782 143.342 158.681C133.095 156.635 125.606 151.797 117.626 147.454C109.326 146.513 105.941 156.773 100.146 161.541C100.396 166.16 102.066 170.299 105.378 173.884C105.378 173.884 96.4462 168.068 96.5737 168.585C93.6268 169.017 102.741 189.02 111.63 189.263C106.829 188.812 102.332 189.591 96.5737 185.257L105.122 194.303L100.487 193.134Z" fill="#F5D6B8"/>
<path d="M82.5387 189.004C83.2768 192.251 80.2672 191.701 87.132 201.153C92.0213 204.002 96.8215 206.203 101.295 206.71C105.886 206.876 107.632 205.394 109.971 204.255C106.816 200.545 105.439 196.181 100.487 193.134L85.4733 183.964C87.9047 188.358 89.2939 192.752 94.9151 197.147C88.9561 194.167 86.333 191.671 82.5387 189.004Z" fill="#F5D6B8"/>
<path d="M110.931 535.55C117.329 552.959 117.653 574.295 117.629 597.059L111.494 639.097C112.724 664.148 116.709 683.973 121.058 705.991L123.945 704.712L127.554 706.905L129.178 702.336L137.839 701.057L146.584 704.819L147.222 681.683L149.207 657.922L149.748 639.463C149.327 629.837 149.544 610.926 149.123 609.68L153.092 586.793L159.28 539.99L149.914 539.335C138.416 542.669 139.089 541.986 140.621 541.84C127.904 537.461 124.225 535.923 121.199 534.59L120.928 539.927L110.931 535.55Z" fill="#FEDEC2"/>
<path d="M193.671 540.018L210.482 600.609C210.003 615.036 210.351 622.304 210.513 630.227C211.02 634.891 210.188 634.312 213.799 645.522L232.639 698.068L237.307 700.275L245.218 696.656L259.253 696.398L260.529 693.813L255.425 670.808C252.989 653.647 252.967 640.971 245.218 613.943L246.239 596.883C246.933 593.677 244.834 580.165 242.666 569.226L237.562 525.285C232.419 525.772 225.42 529.482 217.913 534.073L217.913 537.433C215.064 537.34 200.791 538.509 193.67 540.018H193.671Z" fill="#FEDEC2"/>
<path d="M62.6872 474.333C53.8105 478.124 46.0681 482.007 38.8495 485.798C6.32059 486.242 -0.400243 491.189 0.0179269 493.57C0.281144 494.248 4.57482 493.745 16.3328 492.368C9.34193 494.453 6.70811 495.719 6.08194 496.36C3.68075 498.817 4.8153 499.649 4.59442 499.807C7.3341 501.427 20.1185 495.722 24.5876 494.238C17.5711 496.919 14.6826 499.386 17.2337 501.582L36.4627 495.014C53.8816 496.716 51.6475 495.02 55.1065 495.242L64.0379 493.234C67.8655 494.365 67.5479 495.225 67.8657 496.594C61.4129 506.379 63.0901 513.185 63.2724 513.137C66.8405 512.394 69.3994 508.65 71.1411 504.413C71.6786 503.106 73.9511 500.347 75.4573 498.274C76.2832 495.233 77.7159 490.352 78.073 486.836C78.6401 484.98 80.0885 482.066 82.4111 480.31C73.8739 478.352 69.4391 477.081 62.6872 474.333Z" fill="#FEDEC2"/>
<path d="M247.259 472.297L253.592 495.164L264.058 506.222C266.991 507.636 268.698 507.497 270.734 507.775C271.601 507.868 271.579 507.07 271.275 504.303C270.074 502.055 266.885 499.203 263.336 496.718C264.061 493.392 265.155 490.014 269.2 486.208C276.79 486.427 284.27 487.084 293.018 483.01C293.465 482.848 294.454 481.614 294.462 478.806C285.749 478.746 279.093 478.89 271.726 478.349C265.318 477.677 258.81 473.801 253.592 469.028L247.259 472.297Z" fill="#FEDEC2"/>
<path d="M101.729 131.366C111.121 141.848 120.542 154.433 143.342 158.681C133.879 151.537 129.071 143.748 119.073 131.174C126.675 139.574 135.941 149.746 159.619 144.237C165.693 144.817 170.355 143.596 174.739 145.887L170.86 141.135L175.551 142.049C182.023 150.206 174.098 158.022 179.34 160.235L182.949 152.924L180.603 176.319C182.395 174.328 183.504 171.645 186.866 171.245C188.769 179.18 187.352 180.723 186.738 183.813L197.023 182.716C191.505 180.972 190.762 178.019 190.608 174.917C200.211 177.892 204.412 172.908 210.64 170.911C198.76 171.048 193.77 166.897 196.86 158.763C204.372 159.25 211.695 158.851 217.53 151.525C209.752 152.7 201.997 153.853 204.516 144.934L209.237 143.642L206.94 142.737C212.367 138.379 215.597 133.131 219.444 128.133C214.493 129.796 211.372 134.935 204.005 132.01C207.899 127.549 209.452 122.41 211.023 117.277C205.482 122.193 200.148 124.806 194.946 125.936L194.691 118.311L193.288 120.12L188.822 116.243C196.089 112.655 204.643 115.475 208.088 92.8506C205.846 98.4497 195.03 107.596 176.573 97.5032C182.49 93.7517 186.392 88.3303 188.567 81.4775C182.384 84.8875 179.272 91.2078 163.176 85.2255C169.414 80.4535 170.297 74.43 172.363 68.6828C165.157 85.9248 150.682 80.4652 134.341 79.4097L142.889 65.3226C136.465 71.358 133.231 78.8211 112.905 78.6343C104.487 81.9855 103.732 87.0618 99.2528 91.2997C92.2209 83.5588 85.3572 75.7861 85.8558 66.615C84.9162 60.164 83.1119 54.8811 88.6628 44.7736C92.2877 36.3838 97.7017 33.0679 103.719 31.4619C110.91 31.0584 117.823 31.0085 123.112 33.0128C131.58 37.8808 130.744 42.7488 133.065 47.6169C133.495 50.8918 133.687 54.1265 131.278 56.9221L135.106 50.5893V38.3116C132.81 26.7572 125.627 25.5532 118.136 25C101.425 28.13 98.9022 31.8848 92.4905 35.4683C88.4202 43.2696 80.8434 51.5148 80.3693 58.8607C78.7616 64.2698 77.084 69.693 77.8175 74.6278C81.4159 83.2607 88.0433 88.8254 96.4459 92.5921C90.3057 93.0946 86.4736 89.297 72.969 109.135C66.5034 111.01 60.0378 109.041 53.5722 106.134C56.6552 112.154 61.863 114.407 67.6467 115.639C60.5493 119.803 53.452 119.822 46.3546 117.101C51.5671 125.604 59.4429 126.913 68.7294 124.412C65.176 131.063 62.5043 138.071 55.7375 143.42C46.5789 144.39 43.8096 141.765 40.5804 139.399C45.7441 146.867 46.9481 156.34 68.9098 155.3C65.7346 162.247 59.9506 162.587 54.1136 162.794L60.9704 165.901C57.1537 171.894 50.0113 172.139 39.4978 171.201C48.2659 176.205 56.9993 182.832 71.6164 181.254C69.3079 187.703 65.0496 188.227 61.5117 190.94L77.0297 186.737L82.5384 189.005C86.0668 192.15 89.1175 195.642 94.9148 197.147C90.1431 193.693 87.9513 188.745 85.473 183.964L100.487 193.134L105.122 194.303L96.5735 185.257C102.04 190.416 106.823 189.807 111.629 189.263C100.435 184.101 99.3033 176.017 96.5735 168.585L105.377 173.884C102.746 170.725 100.865 167.859 100.146 161.541C97.8366 151.821 98.2541 141.776 101.728 131.366H101.729Z" fill="#C26526"/>
<path d="M101.729 131.366C97.0572 142.624 98.1694 152.208 100.146 161.541L110.332 153.449L117.626 147.454L101.729 131.366Z" fill="#F5D6B8"/>
<path d="M77.0297 186.737C77.2612 196.097 76.171 203.904 61.7827 206.75C73.1121 207.135 88.043 211.349 92.4577 203.826C94.3879 205.097 88.8892 201.947 87.4928 201.062C83.7338 195.634 83.7519 193.875 82.5387 189.004L77.0297 186.737Z" fill="#C26526"/>
<path d="M92.4576 203.826C90.8189 208.599 89.763 210.717 88.5781 213.421C91.6557 211.144 95.0103 209.333 97.4198 205.928L92.4576 203.826Z" fill="#C26526"/>
<path d="M105.089 206.202C104.738 210.844 102.667 215.328 99.6754 219.727C103.835 217.489 108.449 217.735 111.494 209.4C113.269 211.563 115.043 213.559 116.817 214.518L118.532 215.066C119.524 217.107 119.309 218.025 120.877 220.915L126.11 222.743L124.486 215.066L109.971 204.255L105.089 206.202Z" fill="#C26526"/>
<path d="M159.221 216.662C160.476 216.047 161.785 215.507 164.454 216.802V215.523C166.769 216.779 168.92 218.167 173.566 217.534C170.502 215.986 167.263 214.724 166.529 209.4L158.59 214.925L159.221 216.662Z" fill="#C26526"/>
<path d="M115.103 712.388C127.382 749.017 126.056 767.077 127.193 786.776L120.516 811.085C127.454 813.389 129.995 816.732 150.47 815.837C159.95 815.879 169.686 816.823 178.258 813.644C180.805 808.615 171.113 789.003 166.349 775.262C160.74 761.244 159.323 744.571 155.883 729.203L153.718 701.788C151.103 701.599 148.717 702.57 146.584 704.819L137.839 701.057L129.178 702.336L127.554 706.905C122.701 702.758 122.744 705.611 121.058 705.991C118.658 707.494 115.695 708.139 115.103 712.388Z" fill="#856340"/>
<path d="M229.397 703.118L247.932 757.077L248.579 775.612L250.92 795.622C250.238 799.883 249.433 804.395 251.087 803.925C252.318 805.636 252.909 807.186 255.936 809.353C266.398 814.605 276.861 813.848 287.323 814.522C295.864 814.777 304.973 814.686 315.904 813.488C318.321 812.438 318.373 810.019 317.435 807.026C315.586 801.803 303.201 794.801 296 788.674L292.427 784.797L277.371 749.644L270.736 719.402V709.321L267.419 702.343L265.231 693.015L260.529 693.813L259.253 696.398L245.218 696.656L237.307 700.275L232.639 698.069C228.124 700.068 228.742 701.595 229.397 703.118H229.397Z" fill="#856340"/>
<path d="M1673.08 86.6645C1677.88 95.7791 1679.32 99.509 1685.94 107.83C1693.55 117.408 1691.24 113.833 1704.75 131.041C1699.15 117.78 1690.95 104.911 1688.07 92.2761C1699.28 109.96 1714.05 124.359 1728.6 138.971C1730.41 150.01 1730.26 159.962 1730.22 169.976L1736.63 143.672C1743.77 155.085 1744.78 165.691 1748.86 176.7L1757.61 145.627C1761.9 153.155 1766.59 160.846 1768.31 167.361C1765.71 157.472 1764.54 149.088 1765.38 137.943C1765.85 133.606 1764.62 127.949 1765.48 111.327C1767.84 113.069 1771.8 114.412 1772.37 118.052L1773.18 126.643C1777.53 112.193 1788.46 102.6 1797.9 91.9025L1776.01 106.284C1780.71 93.5212 1786.6 80.758 1792.63 67.9948L1775.81 86.6727C1774.79 81.5119 1775.29 77.2572 1773.79 69.1155C1772.12 65.3302 1770.47 62.3406 1767.2 57.8154C1759.7 50.8978 1745.38 42.5505 1731.35 33.9077C1720.7 27.3523 1714.75 17.9692 1709.25 10L1719.68 31.3862C1698.8 31.4862 1692.97 21.0731 1683.71 10.9339C1685.19 19.449 1689.93 28.1467 1697.9 34.468C1673.51 40.8962 1648.06 50.3339 1631.74 34.0011C1637.68 40.5973 1637.68 47.7286 1653.62 53.4261C1637.98 64.2989 1627.06 65.8094 1616.74 66.127C1624.8 68.243 1633.41 67.6081 1642.27 65.7534C1633.46 87.4379 1633.72 113.78 1606.2 121.04C1617.51 122.106 1628.87 123.416 1639.44 121.414C1640.9 129.318 1635.73 132.084 1627.68 132.62C1632.6 132.758 1633.44 134.548 1647.14 131.126C1651.55 137.866 1651.16 143.723 1652 149.804L1654.03 131.873L1667.4 140.465C1662.08 132.414 1655.77 124.782 1654.43 115.063C1655.95 97.6088 1657.75 80.4937 1663.77 68.5706L1673.08 86.6645Z" fill="#201F24"/>
<path d="M1764.97 111.328C1765.54 120.691 1765.55 131.969 1765.46 140.935C1767.87 137.496 1770.76 132.617 1773.18 126.643L1772.54 118.41C1770.46 113.249 1767.03 112.766 1764.97 111.328Z" fill="#E9C5AA"/>
<path d="M1663.77 68.5706C1658.28 80.0802 1655.74 96.5375 1654.43 115.063C1656.31 120.593 1652.8 119.635 1667.4 140.465L1654.03 131.873L1656.26 139.531C1657.72 143.089 1660.69 145.953 1663.15 149.057C1664.63 150.604 1666.69 152.507 1670.85 153.353C1671.86 156.082 1673.08 156.411 1674.09 157.835C1677.5 161.303 1681.25 163.198 1685.03 164.933L1698.81 170.163L1707.12 174.459C1708.7 175.072 1710.35 175.656 1713.81 175.579C1718.58 174.736 1721.43 173.186 1724.34 171.657L1730.22 169.976C1730.89 161.87 1730.6 151.998 1728.6 138.971C1710.36 123.325 1700.4 109.126 1688.07 92.276C1691.69 105.912 1698.57 118.345 1704.75 131.041C1691.32 113.653 1674.07 93.8971 1663.77 68.5706Z" fill="#E9C5AA"/>
<path d="M1736.63 143.672C1735.04 154.704 1732.53 161.944 1730.22 169.976L1744 161.011C1743.01 155.774 1740.31 149.904 1736.63 143.672Z" fill="#E9C5AA"/>
<path d="M1698.81 170.163C1700.05 176.431 1700.76 182.853 1698.84 187.665C1692.93 189.403 1694.84 185.526 1692.43 184.545L1698 207.705C1700.87 198.57 1707.61 193.73 1713.2 182.677L1747.04 171.657L1744 161.011L1730.22 169.976L1724.34 171.657C1726.63 170.525 1718 174.922 1713.8 175.579C1706.54 175.77 1704.01 172.281 1698.81 170.163H1698.81Z" fill="#C89A82"/>
<path d="M1713.2 182.677L1747.04 171.657L1748.86 176.7L1754.94 188.374C1782.24 208.122 1784.93 199.532 1802.56 214.056C1809.89 252.928 1818.05 292.935 1821 325.75C1818.6 356.008 1815.44 386.266 1809.25 416.524L1806 438.937C1804.4 441.276 1802.79 444.424 1801.18 442.732C1797.75 450.48 1794.04 462.955 1791.01 463.996C1786.07 458.497 1782.13 452.632 1773.58 448.463L1765.48 448.276C1760.43 451.513 1755.39 454.766 1751.09 453.88L1760.61 468.448C1761.18 478.846 1761.45 489.243 1760.41 499.64L1745.82 510.1C1744.64 511.482 1744.24 512.936 1744.4 514.443C1746.38 515.023 1748.37 515.532 1750.48 514.769L1754.84 512.528C1761.82 511.652 1766.41 508.562 1772.16 506.551L1772.66 601.879C1775.31 627.986 1777.13 656.149 1776.01 691.649C1773.92 714.885 1767.29 736.451 1767.3 756.648C1765.83 761.689 1772.17 768.485 1776.82 774.366L1766.93 794.705C1761.31 783.741 1752.89 775.167 1739.71 770.668L1721.5 791.023L1721.36 773.325C1722.13 769.349 1721.97 765.135 1727.39 762.347L1720.22 749.404L1719.65 737.518L1731.54 712.82C1724.71 681.437 1717.88 648.369 1711.05 616.143L1712.7 600.932C1706.11 569.628 1698.48 542.175 1693.86 503.617C1691.81 531.99 1694.81 587.664 1687.27 586.295C1689.51 587.182 1691.71 587.915 1695 593.162C1697.02 597.917 1693.67 602.672 1693 607.426C1704.48 610.135 1702.77 637.694 1705.32 657.35L1714.49 707.537L1719.65 737.914L1720.49 749.55C1717.41 751.163 1716.87 754.338 1715.22 756.835L1721.51 774.205L1721.71 784.851L1718.26 781.489L1703.88 784.664C1678.78 770.503 1666.64 768.274 1662.54 773.458L1672.26 754.593C1667.49 750.854 1658.35 748.118 1661.93 742.452C1667.07 733.798 1669.1 726.078 1664.36 717.424C1657.12 698.176 1653.76 686.426 1652.84 667C1647.9 652.343 1648.5 646.071 1647.6 636.391C1647.8 623.617 1637.2 627.026 1634.54 595.54L1623.93 540.069L1618.78 490.938L1616.48 466.637L1614.76 442.864L1607.31 438.637C1607.72 431.34 1609.33 419.563 1611.9 404.299L1620.49 353.054L1621.35 345.394C1606.76 346.805 1594.18 341.562 1581.09 336.017C1580.53 332.737 1569.06 326.476 1561.46 319.772C1549.88 312.929 1544.17 305.479 1539.61 300.02L1540.1 292.907L1534.24 281.471L1538.82 271.434C1541.12 275.748 1540.98 280.062 1547.42 284.377C1553.4 284.205 1557.14 282.305 1560.89 280.415L1564.61 270.641L1564.33 266.415L1565.19 257.434C1564.63 263.011 1573.11 263.667 1580.66 264.83V276.188L1594.42 282.528L1595.56 287.282L1607.6 292.565C1603.77 287.106 1596.17 281.719 1610.18 275.924L1616.77 264.038L1618.92 261.792L1624.51 232.868L1630.81 217.284L1638.84 204.605C1643.08 201.349 1653.32 200.105 1663.34 198.786C1670.19 196.326 1676.86 193.839 1682.11 191.134L1688.13 179.775L1699.18 174.786C1700.32 179.33 1700.64 184.025 1698.84 187.665C1693.99 189.514 1694.1 186.082 1692.43 184.544L1698 207.705C1701.77 198.73 1708.35 192.253 1713.2 182.677L1713.2 182.677Z" fill="#E1E2E8"/>
<path d="M1542.78 195.938C1538.98 200.172 1537.2 204.406 1536.09 208.639L1529 219.659L1531.43 226.57L1534.27 237.963L1537.31 240.952L1534.88 251.225C1534.1 253.647 1536.71 255.645 1537.11 257.575L1537.31 262.431L1538.82 271.434C1540.31 276.804 1542.7 281.485 1547.42 284.377C1551.42 283.951 1555.31 283.735 1560.89 280.415C1562.51 277.157 1563.5 273.899 1564.61 270.641L1565.19 257.434L1572.16 244.314L1572.36 239.084L1564.66 227.877L1562.64 208.266C1562.14 207.083 1561.01 205.9 1556.76 204.717L1554.73 206.958L1556.15 229.185C1553.82 231.995 1551.66 235.535 1547.24 229.185L1546.83 221.714L1551.9 215.363C1552.21 213.118 1549.51 211.985 1547.24 210.694L1542.17 214.056L1546.83 201.915C1547.68 195.863 1545.05 196.228 1542.78 195.938Z" fill="#E9C5AA"/>
<path d="M1751.09 453.88C1754.07 453.525 1755.09 454.973 1765.48 448.276C1767.59 448.14 1768.7 447.67 1773.58 448.463C1780.21 451.534 1785.72 457.476 1791.01 463.996C1788.35 470.777 1786.56 482.942 1788.58 498.707C1782.53 502.112 1774.78 503.473 1772.16 506.551C1766.4 508.551 1762.66 511.948 1754.84 512.528L1750.48 514.77C1748.82 515.783 1743.13 514.235 1744.4 514.443C1744.04 512.854 1744.71 511.44 1745.82 510.1L1760.41 499.641C1761.41 489.719 1760.92 479.102 1760.61 468.449L1751.09 453.88Z" fill="#E9C5AA"/>
<path d="M1662.54 773.458C1659.29 779.057 1655.7 784.502 1641.87 785.225C1625.39 785.056 1616.24 790.616 1611.59 793.971C1603.61 799.729 1601.7 803.475 1597.69 807.265C1599.1 812.226 1624.77 813.119 1661.73 812.121C1671.05 807.125 1679.4 806.617 1687.66 806.518L1689.29 812.869C1698.34 812.353 1705.97 812.024 1707.52 812.495L1716.03 803.903C1706.2 821.886 1710.13 824.259 1714.01 826.69C1745.49 835.334 1763.48 829.397 1777.9 822.668C1773.56 816.35 1775.31 820.136 1770.6 808.673L1766.93 794.705C1759.39 779.156 1749.47 775.297 1739.71 770.668L1721.5 791.023C1721.7 787.575 1723.46 783.798 1718.26 781.489L1703.88 784.665C1689.11 778.201 1672.3 766.079 1662.54 773.458Z" fill="#805D3F"/>
</svg>
